SplineFontDB: 1.0
FontName: URWPalladioL-Bold
FullName: URW Palladio L Bold
FamilyName: URW Palladio L
Weight: Bold
Copyright: Copyright (URW)++,Copyright 1999 by (URW)++ Design & Development; Cyrillic glyphs added by Valek Filippov (C) 2001
Version: 1.06
ItalicAngle: 0
UnderlinePosition: -100
UnderlineWidth: 50
Ascent: 800
Descent: 200
NeedsXUIDChange: 1
UniqueID: 4191545
FSType: 0
OS2WinAscent: 0
OS2WinAOffset: 1
OS2WinDescent: 0
OS2WinDOffset: 1
HheadAscent: 0
HheadAOffset: 1
HheadDescent: 0
HheadDOffset: 1
ScriptLang: 2
 1 latn 1 dflt 
 1 DFLT 1 dflt 
Encoding: adobestandard
UnicodeInterp: none
DisplaySize: -36
AntiAlias: 1
FitToEm: 1
WinInfo: 360 30 14
BeginPrivate: 7
BlueValues 23 [-20 0 681 701 643 663]
BlueScale 8 0.039625
StdHW 4 [49]
StdVW 5 [123]
StemSnapH 206 [49 57 64 69 73 84 88 96] 
systemdict /internaldict known
{1183615869 systemdict /internaldict get exec
/StemSnapLength 2 copy known { get 8 lt } { pop pop true } ifelse }
{ true } ifelse { pop [49 57] } if
StemSnapV 204 [123 128 138 143 151] 
systemdict /internaldict known
{1183615869 systemdict /internaldict get exec
/StemSnapLength 2 copy known { get 5 lt } { pop pop true } ifelse }
{ true } ifelse { pop [123 143] } if
ForceBold 5 false
EndPrivate
BeginChars: 767 660
StartChar: exclam
Encoding: 33 33 2
Width: 278
Flags: W
HStem: -12 156<138 144> 668 20G<168 219>
Fore
142 144 m 0
 182 144 219 106 219 65 c 0
 219 24 182 -12 140 -12 c 0
 99 -12 63 23 63 65 c 0
 63 107 100 144 142 144 c 0
168 688 m 1
 219 688 l 1
 219 654 217 631 212 592 c 1
 162 220 l 1
 124 199 l 1
 119 207 l 1
 72 565 l 1
 70 582 69 592 68 644 c 1
 168 688 l 1
EndSplineSet
EndChar
StartChar: quotedbl
Encoding: 34 34 3
Width: 402
Flags: W
HStem: 675 20G<73 107.5 295 329.5>
VStem: 22 136<624 633> 244 136<624 633>
Fore
113 376 m 1
 67 376 l 1
 23 615 l 1
 22 619 22 621 22 624 c 0
 22 660 56 695 90 695 c 0
 125 695 158 660 158 624 c 0
 158 621 158 618 157 615 c 1
 113 376 l 1
335 376 m 1
 289 376 l 1
 245 615 l 1
 244 619 244 621 244 624 c 0
 244 660 278 695 312 695 c 0
 347 695 380 660 380 624 c 0
 380 621 380 618 379 615 c 1
 335 376 l 1
EndSplineSet
EndChar
StartChar: numbersign
Encoding: 35 35 4
Width: 500
Flags: W
HStem: 0 21G<75 150 258 333> 215 75<4 107 194 290 376 470> 396 75<32 135 221 317 403 496>
DStem: 107 215 182 215 75 0 150 0 135 396 210 396 119 290 194 290 176 673 251 673 146 471 221 471 290 215 365 215 258 0 333 0 317 396 392 396 301 290 376 290 357 673 432 673 328 471 403 471
Fore
470 290 m 1
 470 215 l 1
 365 215 l 1
 333 0 l 1
 258 0 l 1
 290 215 l 1
 182 215 l 1
 150 0 l 1
 75 0 l 1
 107 215 l 1
 4 215 l 1
 4 290 l 1
 119 290 l 1
 135 396 l 1
 32 396 l 1
 32 471 l 1
 146 471 l 1
 176 673 l 1
 251 673 l 1
 221 471 l 1
 328 471 l 1
 357 673 l 1
 432 673 l 1
 403 471 l 1
 496 471 l 1
 496 396 l 1
 392 396 l 1
 376 290 l 1
 470 290 l 1
317 396 m 1
 210 396 l 1
 194 290 l 1
 301 290 l 1
 317 396 l 1
EndSplineSet
EndChar
StartChar: dollar
Encoding: 36 36 5
Width: 500
Flags: W
VStem: 28 102<462 505> 221 46<37 267 408 614> 365 107<161 214> 381 39<488 529.198>
DStem: 219 721 269 721 221 668 267 668
Fore
221 37 m 1xe0
 221 277 l 1
 140 288 102 302 72 332 c 0
 42 361 28 403 28 462 c 0
 28 524 48 574 88 609 c 0
 122 639 152 653 221 668 c 1
 219 721 l 1
 269 721 l 1
 267 668 l 1
 332 667 381 657 432 635 c 1
 434 628 l 1
 424 593 420 551 420 488 c 1
 381 488 l 1xd0
 381 546 377 571 366 579 c 0
 341 599 303 613 267 614 c 1
 267 402 l 1
 357 385 398 369 429 337 c 0
 458 307 472 267 472 214 c 0
 472 131 433 60 368 19 c 0
 338 1 315 -6 267 -13 c 1
 269 -114 l 1
 218 -114 l 1
 221 -17 l 1
 142 -14 86 -2 33 23 c 1
 30 32 l 1
 35 77 37 109 39 181 c 1
 80 181 l 1
 80 141 l 2
 80 110 89 90 109 75 c 0
 143 51 176 40 221 37 c 1xe0
267 267 m 1
 267 40 l 1
 331 59 365 101 365 161 c 0xe0
 365 221 332 256 267 267 c 1
221 408 m 1
 221 614 l 1
 169 610 130 563 130 505 c 0
 130 451 161 418 221 408 c 1
EndSplineSet
EndChar
StartChar: percent
Encoding: 37 37 6
Width: 889
Flags: W
HStem: 0 32<654.1 670> 296 32<663 669> 372 32<224 234> 668 32<220 236>
VStem: 61 100<518 552> 287 100<536 552> 502 100<150 184> 728 100<164 184>
DStem: 600 714 649 714 234 -9 283 -9
Fore
226 700 m 0
 318 700 387 630 387 536 c 0
 387 443 317 372 224 372 c 0
 132 372 61 443 61 535 c 0
 61 632 129 700 226 700 c 0
225 668 m 0
 182 668 161 625 161 539 c 0
 161 446 181 404 224 404 c 0
 267 404 287 446 287 536 c 0
 287 624 266 668 225 668 c 0
667 328 m 0
 759 328 828 258 828 164 c 0
 828 71 758 0 665 0 c 0
 573 0 502 71 502 163 c 0
 502 260 570 328 667 328 c 0
666 296 m 0
 623 296 602 253 602 167 c 0
 602 74 622 32 665 32 c 0
 708 32 728 74 728 164 c 0
 728 252 707 296 666 296 c 0
283 -9 m 1
 234 -9 l 1
 600 714 l 1
 649 714 l 1
 283 -9 l 1
EndSplineSet
EndChar
StartChar: ampersand
Encoding: 38 38 7
Width: 833
Flags: W
HStem: -17 70<282 350> -12 96<654 719> 323 66<630 677> 622 62<331 362>
VStem: 52 119<176 233> 174 91<503 544> 390 87<557 580> 557 76<250 286>
Fore
537 328 m 1xbf
 447 328 l 1
 467 365 472 377 476 394 c 1
 594 390 l 2
 613 389 631 389 643 389 c 0
 681 389 711 390 788 395 c 1
 791 386 l 1
 780 360 775 342 771 316 c 1
 721 321 685 323 630 323 c 1
 632 307 633 295 633 286 c 0
 633 239 615 195 568 133 c 1
 621 100 668 84 719 84 c 0
 737 84 748 88 771 104 c 0
 775 107 779 109 782 111 c 2
 799 122 l 1
 813 90 l 1
 772 55 741 23 720 -9 c 1
 654 -12 l 1x7f
 590 -12 540 7 483 53 c 1
 415 3 358 -17 282 -17 c 0
 147 -17 52 63 52 176 c 0
 52 262 93 314 207 373 c 1
 183 433 174 467 174 503 c 0
 174 541 186 566 225 608 c 2
 260 646 l 2
 282 669 321 684 362 684 c 0
 432 684 477 643 477 580 c 0
 477 510 438 462 319 385 c 1
 380 294 441 227 525 158 c 1
 549 195 557 219 557 250 c 0
 557 275 550 300 537 328 c 1xbf
222 336 m 1
 183 299 171 275 171 233 c 0
 171 137 254 53 350 53 c 0xbf
 384 53 411 62 441 83 c 1
 344 167 285 235 222 336 c 1
299 426 m 1
 305 430 309 433 314 436 c 0
 364 472 390 513 390 557 c 0
 390 596 366 622 331 622 c 0
 289 622 265 594 265 544 c 0
 265 511 273 484 299 426 c 1
EndSplineSet
EndChar
StartChar: quoteright
Encoding: 39 8217 8
Width: 278
Flags: W
Fore
109 432 m 1
 43 405 l 1
 29 421 l 1
 64 500 92 590 103 662 c 1
 151 668 197 679 235 695 c 1
 249 682 l 1
 219 615 166 521 109 432 c 1
EndSplineSet
KernsSLIF: 121 3 1 0 119 1 1 0 118 1 1 0 116 -6 1 0 115 -6 1 0 114 -9 1 0 46 -21 1 0 111 -21 1 0 100 -31 1 0 44 -33 1 0 262 -84 1 0 256 -84 1 0 257 -84 1 0 225 -114 1 0 65 -84 1 0
EndChar
StartChar: parenleft
Encoding: 40 40 9
Width: 333
Flags: W
Fore
279 723 m 1
 305 701 l 1
 261 647 244 617 226 562 c 0
 208 505 198 417 198 308 c 0
 198 104 218 30 305 -80 c 1
 281 -104 l 1
 181 -28 141 19 105 103 c 0
 78 164 65 231 65 307 c 0
 65 382 78 450 104 511 c 0
 139 595 179 643 279 723 c 1
EndSplineSet
EndChar
StartChar: parenright
Encoding: 41 41 10
Width: 333
Flags: W
Fore
28 701 m 1
 54 723 l 1
 154 643 194 594 229 511 c 0
 255 450 268 382 268 307 c 0
 268 231 255 164 228 103 c 0
 192 19 152 -28 52 -104 c 1
 28 -80 l 1
 115 31 135 103 135 308 c 0
 135 424 125 509 104 570 c 0
 86 621 70 648 28 701 c 1
EndSplineSet
EndChar
StartChar: asterisk
Encoding: 42 42 11
Width: 444
Flags: W
HStem: 640 20G<88 104>
Fore
319 673 m 1
 324 659 l 1
 300 635 269 587 242 532 c 1
 265 537 273 538 287 541 c 0
 344 551 364 556 383 563 c 1
 389 560 l 1
 388 551 388 545 388 540 c 0
 388 521 392 499 399 473 c 1
 390 462 l 1
 345 480 299 490 236 496 c 1
 243 484 l 2
 282 420 291 407 316 378 c 1
 314 366 l 1
 293 362 260 349 229 332 c 1
 214 339 l 1
 214 398 211 434 203 484 c 1
 171 461 131 420 102 379 c 1
 83 387 l 1
 74 413 59 440 44 457 c 1
 48 464 l 1
 91 475 136 492 185 517 c 1
 151 540 103 560 47 576 c 1
 44 583 l 1
 67 619 77 637 88 660 c 1
 104 660 l 1
 206 546 l 1
 216 597 219 633 219 688 c 1
 227 695 l 1
 260 683 283 678 319 673 c 1
EndSplineSet
EndChar
StartChar: plus
Encoding: 43 43 12
Width: 606
Flags: W
HStem: 0 21G<260 346> 212 86<51 260 346 555>
VStem: 260 86<0 212 298 505>
Fore
260 298 m 1
 260 505 l 1
 346 505 l 1
 346 298 l 1
 555 298 l 1
 555 212 l 1
 346 212 l 1
 346 0 l 1
 260 0 l 1
 260 212 l 1
 51 212 l 1
 51 298 l 1
 260 298 l 1
EndSplineSet
EndChar
StartChar: comma
Encoding: 44 44 13
Width: 250
Flags: W
Fore
80 -136 m 1
 9 -166 l 1
 -6 -153 l 1
 38 -64 68 32 76 103 c 1
 130 117 163 126 210 141 c 1
 227 125 l 1
 191 47 158 -11 80 -136 c 1
EndSplineSet
KernsSLIF: 39 17 1 0 186 14 1 0 49 -9 1 0
EndChar
StartChar: hyphen
Encoding: 45 45 14
Width: 333
Flags: W
HStem: 195 110<49 285>
Fore
50 305 m 1
 308 305 l 1
 317 295 l 1
 301 259 290 223 285 195 c 1
 24 195 l 1
 16 203 l 1
 21 218 24 227 31 246 c 0
 43 281 45 287 50 305 c 1
EndSplineSet
KernsSLIF: 89 -70 1 0 87 -12 1 0 86 -57 1 0 84 -60 1 0 262 -13 1 0 256 -13 1 0 257 -13 1 0 225 -28 1 0 65 -13 1 0
EndChar
StartChar: period
Encoding: 46 46 15
Width: 250
Flags: W
HStem: -12 21G<103.5 145>
Fore
126 144 m 0
 166 144 203 106 203 65 c 0
 203 24 166 -12 124 -12 c 0
 83 -12 47 23 47 65 c 0
 47 107 84 144 126 144 c 0
EndSplineSet
KernsSLIF: 39 1 1 0 49 -16 1 0
EndChar
StartChar: slash
Encoding: 47 47 16
Width: 296
Flags: W
HStem: -17 21G<-9 81>
DStem: 215 720 305 720 -9 -17 81 -17
Fore
215 720 m 1
 305 720 l 1
 81 -17 l 1
 -9 -17 l 1
 215 720 l 1
EndSplineSet
EndChar
StartChar: zero
Encoding: 48 48 17
Width: 500
Flags: W
HStem: -17 50<242 266> 610 50<240 266>
VStem: 33 120<302 372> 348 120<252 348>
Fore
266 660 m 0
 339 660 395 630 427 573 c 0
 456 522 468 455 468 348 c 0
 468 96 398 -17 242 -17 c 0
 96 -17 33 79 33 302 c 0
 33 424 47 502 81 561 c 0
 119 628 178 660 266 660 c 0
245 610 m 0
 217 610 195 597 180 570 c 0
 160 533 153 482 153 372 c 0
 153 238 165 128 185 85 c 0
 201 51 225 33 255 33 c 0
 315 33 348 110 348 252 c 0
 348 386 334 515 314 558 c 0
 298 592 274 610 245 610 c 0
EndSplineSet
KernsSLIF: 55 6 1 0 49 1 1 0 52 20 1 0
EndChar
StartChar: one
Encoding: 49 49 18
Width: 500
Flags: W
HStem: 0 21G<272 284>
VStem: 204 132<84 478>
Fore
189 564 m 2
 49 499 l 1
 39 525 35 544 35 569 c 1
 97 583 212 622 334 670 c 1
 346 660 l 1
 338 548 336 485 336 406 c 2
 336 84 l 2
 336 54 355 39 393 37 c 2
 455 34 l 1
 455 -3 l 1
 406 -2 360 -1 347 -1 c 0
 314 0 290 0 278 0 c 0
 266 0 245 0 215 -1 c 0
 197 -1 136 -2 75 -3 c 1
 75 34 l 1
 147 37 l 2
 185 39 204 55 204 84 c 2
 204 527 l 2
 204 557 202 564 194 565 c 0
 193 565 191 565 189 564 c 2
EndSplineSet
KernsSLIF: 48 -21 1 0 50 11 1 0 51 3 1 0 54 -25 1 0 55 -21 1 0 46 -1 1 0 49 -13 1 0 57 -11 1 0 52 -41 1 0 53 -8 1 0 56 -12 1 0 44 -4 1 0
EndChar
StartChar: two
Encoding: 50 50 19
Width: 500
Flags: W
HStem: 0 21G<197 241> 555 105<201 228>
VStem: 309 132<443 487>
DStem: 192 214 338 285 25 48 164 114 468 117 468 117 166 106 472 112
Fore
25 -3 m 1
 25 48 l 1
 192 214 l 2
 270 292 309 368 309 443 c 0
 309 511 267 555 201 555 c 0
 157 555 112 530 104 500 c 2
 86 432 l 1
 49 435 l 1
 67 600 l 1
 124 643 169 660 228 660 c 0
 352 660 441 588 441 487 c 0
 441 423 404 350 338 285 c 2
 164 114 l 1
 166 106 l 1
 468 117 l 1
 472 112 l 1
 470 85 469 72 469 50 c 0
 469 34 469 21 471 -3 c 1
 241 0 l 1
 197 0 l 1
 25 -3 l 1
EndSplineSet
KernsSLIF: 55 -5 1 0 49 -5 1 0
EndChar
StartChar: three
Encoding: 51 51 20
Width: 500
Flags: W
HStem: -17 56<171 210> 296 71<159 212> 562 98<205 237>
VStem: 307 111<472 519> 334 124<172 225>
Fore
22 156 m 1xe8
 56 165 l 1
 78 116 92 95 115 74 c 0
 141 52 175 39 210 39 c 0
 283 39 334 94 334 172 c 0xe8
 334 247 284 296 208 296 c 0
 186 296 167 294 147 288 c 1
 140 293 l 1
 159 367 l 1
 194 367 l 2
 262 367 307 408 307 472 c 0
 307 527 268 562 205 562 c 0
 144 562 107 530 88 461 c 1
 53 461 l 1
 84 615 l 1
 142 648 182 660 237 660 c 0
 342 660 418 601 418 519 c 0xf0
 418 458 383 413 306 373 c 1
 351 368 372 362 397 346 c 0
 437 319 458 278 458 225 c 0
 458 91 330 -17 171 -17 c 0
 122 -17 89 -11 47 7 c 1
 34 87 31 111 22 156 c 1xe8
EndSplineSet
KernsSLIF: 55 -13 1 0 49 -14 1 0 52 19 1 0
EndChar
StartChar: four
Encoding: 52 52 21
Width: 500
Flags: W
HStem: 0 21G<313 326.5> 165 82<82 263 380 469>
VStem: 263 117<94.0748 165 247 478>
Fore
19 165 m 1
 12 204 l 1
 69 346 140 474 257 645 c 1
 379 672 l 1
 386 660 l 1
 381 513 380 448 380 372 c 2
 380 247 l 1
 468 247 l 1
 469 244 l 1
 469 165 l 1
 380 165 l 1
 380 111 l 2
 380 65 399 40 437 37 c 2
 473 34 l 1
 473 -3 l 1
 334 0 334 0 319 0 c 0
 307 0 286 0 254 -1 c 0
 238 -1 192 -2 142 -3 c 1
 142 34 l 1
 206 37 l 2
 243 39 263 65 263 111 c 2
 263 165 l 1
 19 165 l 1
82 247 m 1
 263 247 l 1
 263 579 l 1
 253 564 242 546 230 526 c 0
 210 493 188 458 188 456 c 1
 126 340 l 2
 121 331 110 309 99 283 c 0
 90 263 88 259 82 247 c 1
EndSplineSet
KernsSLIF: 55 -12 1 0 49 -4 1 0 52 25 1 0
EndChar
StartChar: five
Encoding: 53 53 22
Width: 500
Flags: W
HStem: -17 58<186 227> 315 103<221 275> 539 111<209.468 268>
VStem: 354 118<177 237>
DStem: 96 512 149 539 96 410 145 384 444 656 444 656 267 650 448 648
Fore
149 539 m 1
 145 384 l 1
 202 410 232 418 275 418 c 0
 396 418 472 348 472 237 c 0
 472 96 345 -17 186 -17 c 0
 141 -17 110 -11 73 5 c 1
 67 37 61 62 42 139 c 1
 72 157 l 1
 107 80 158 41 227 41 c 0
 304 41 354 94 354 177 c 0
 354 261 302 315 221 315 c 0
 177 315 142 303 109 275 c 1
 90 286 l 1
 95 365 96 389 96 410 c 2
 96 512 l 2
 96 546 95 576 90 648 c 1
 97 656 l 1
 155 653 176 652 267 650 c 1
 444 656 l 1
 448 648 l 1
 443 626 441 612 441 592 c 0
 441 580 441 566 442 550 c 1
 436 539 l 1
 351 541 303 542 293 542 c 2
 149 539 l 1
EndSplineSet
KernsSLIF: 55 -3 1 0 52 26 1 0
EndChar
StartChar: six
Encoding: 54 54 23
Width: 500
Flags: W
HStem: -17 50<250 265> 323 86<254 314> 618 42<388 399>
VStem: 37 128<198 264> 351 118<171 221>
Fore
396 660 m 1
 435 633 l 1
 420 617 l 1
 411 618 403 618 399 618 c 0
 327 618 261 584 221 524 c 0
 190 478 176 426 168 326 c 1
 216 387 255 409 314 409 c 0
 409 409 469 336 469 221 c 0
 469 79 381 -17 252 -17 c 0
 181 -17 125 9 89 60 c 0
 57 106 37 182 37 264 c 0
 37 404 86 513 186 590 c 0
 251 640 303 658 396 660 c 1
254 323 m 0
 195 323 165 282 165 198 c 0
 165 97 203 33 263 33 c 0
 319 33 351 84 351 171 c 0
 351 262 312 323 254 323 c 0
EndSplineSet
KernsSLIF: 55 -9 1 0 49 -21 1 0 52 25 1 0
EndChar
StartChar: seven
Encoding: 55 55 24
Width: 500
Flags: W
HStem: 0 21G<144.5 152.5> 416 240<56 88> 532 118<228.821 385>
Fore
493 653 m 1xa0
 493 608 l 1
 459 554 440 517 400 436 c 2
 290 212 l 1
 264 157 219 46 204 -3 c 1
 196 -2 188 -2 185 -2 c 0
 168 -1 156 0 149 0 c 0
 140 0 140 0 94 -3 c 1
 88 8 l 1
 388 526 l 1
 384 532 l 1
 159 532 l 2xa0
 112 532 101 524 96 480 c 1
 88 416 l 1
 49 416 l 1
 50 494 50 494 50 506 c 0
 50 554 49 583 46 648 c 1
 56 656 l 1xc0
 100 655 141 654 155 654 c 0
 242 651 298 650 323 650 c 2
 352 650 l 1
 493 653 l 1xa0
EndSplineSet
KernsSLIF: 50 7 1 0 51 2 1 0 54 -31 1 0 55 20 1 0 46 -70 1 0 49 17 1 0 52 -44 1 0 53 -2 1 0 56 -3 1 0 44 -80 1 0 58 -34 1 0
EndChar
StartChar: eight
Encoding: 56 56 25
Width: 500
Flags: W
HStem: -17 52<232 256> 608 52<234 262>
VStem: 34 89<153 173> 51 103<476 519> 353 84<499 517> 357 110<150 203>
Fore
151 320 m 1xe4
 79 362 51 405 51 476 c 0
 51 587 134 660 260 660 c 0
 368 660 437 604 437 517 c 0xd8
 437 461 412 423 343 376 c 1
 384 359 402 347 424 322 c 0
 453 289 467 250 467 203 c 0
 467 77 367 -17 234 -17 c 0
 116 -17 34 54 34 155 c 0
 34 226 72 280 151 320 c 1xe4
253 275 m 2
 192 302 l 1
 140 256 123 224 123 171 c 0
 123 93 176 35 248 35 c 0
 310 35 357 84 357 150 c 0xe4
 357 207 327 242 253 275 c 2
250 412 m 2
 294 393 l 1
 337 430 353 459 353 501 c 0
 353 565 311 608 249 608 c 0
 192 608 154 573 154 519 c 0xd8
 154 471 180 442 250 412 c 2
EndSplineSet
KernsSLIF: 55 -4 1 0 49 -4 1 0 52 24 1 0
EndChar
StartChar: nine
Encoding: 57 57 26
Width: 500
Flags: W
HStem: 236 87<195 250> 608 52<238 252>
VStem: 31 118<427 476> 336 127<390 444>
Fore
105 -17 m 1
 67 12 l 1
 76 30 l 1
 90 28 101 27 107 27 c 0
 134 27 180 39 209 55 c 0
 255 80 291 129 310 193 c 0
 321 228 325 255 331 315 c 1
 268 260 l 2
 248 243 228 236 195 236 c 0
 90 236 31 305 31 427 c 0
 31 571 114 660 248 660 c 0
 388 660 463 565 463 390 c 0
 463 214 380 71 243 11 c 0
 199 -9 171 -14 105 -17 c 1
241 608 m 0
 183 608 149 559 149 476 c 0
 149 381 187 323 250 323 c 0
 309 323 336 361 336 444 c 0
 336 549 302 608 241 608 c 0
EndSplineSet
KernsSLIF: 55 3 1 0 49 -1 1 0 52 7 1 0
EndChar
StartChar: colon
Encoding: 58 58 27
Width: 250
Flags: W
HStem: -12 156<122 128> 298 156<122 128>
Fore
126 144 m 0
 166 144 203 106 203 65 c 0
 203 24 166 -12 124 -12 c 0
 83 -12 47 23 47 65 c 0
 47 107 84 144 126 144 c 0
126 454 m 0
 166 454 203 416 203 375 c 0
 203 334 166 298 124 298 c 0
 83 298 47 333 47 375 c 0
 47 417 84 454 126 454 c 0
EndSplineSet
EndChar
StartChar: semicolon
Encoding: 59 59 28
Width: 250
Flags: W
HStem: 298 156<137 155>
Fore
80 -136 m 1
 9 -166 l 1
 -6 -153 l 1
 38 -64 68 32 76 103 c 1
 130 117 163 126 210 141 c 1
 227 125 l 1
 191 47 158 -11 80 -136 c 1
149 454 m 0
 189 454 226 416 226 375 c 0
 226 334 189 298 147 298 c 0
 106 298 70 333 70 375 c 0
 70 417 107 454 149 454 c 0
EndSplineSet
EndChar
StartChar: less
Encoding: 60 60 29
Width: 606
Flags: W
DStem: 49 211 170 252 558 -19 558 73 558 523 558 431 49 293 170 252
Fore
170 252 m 1
 558 73 l 1
 558 -19 l 1
 49 211 l 1
 49 293 l 1
 558 523 l 1
 558 431 l 1
 170 252 l 1
EndSplineSet
EndChar
StartChar: equal
Encoding: 61 61 30
Width: 606
Flags: W
HStem: 114 86<51 555> 310 86<51 555>
Fore
555 396 m 1
 555 310 l 1
 51 310 l 1
 51 396 l 1
 555 396 l 1
555 200 m 1
 555 114 l 1
 51 114 l 1
 51 200 l 1
 555 200 l 1
EndSplineSet
EndChar
StartChar: greater
Encoding: 62 62 31
Width: 606
Flags: W
DStem: 49 431 49 523 437 252 558 293 437 252 558 211 49 73 49 -19
Fore
437 252 m 1
 49 431 l 1
 49 523 l 1
 558 293 l 1
 558 211 l 1
 49 -19 l 1
 49 73 l 1
 437 252 l 1
EndSplineSet
EndChar
StartChar: question
Encoding: 63 63 32
Width: 444
Flags: W
HStem: -12 156<186 203> 591 96<181 225>
VStem: 151 50<241 262> 277 134<508 530>
Fore
78 497 m 1
 43 506 l 1
 65 573 72 604 75 639 c 1
 128 675 167 687 225 687 c 0
 338 687 411 626 411 530 c 0
 411 474 393 440 340 396 c 2
 263 332 l 2
 222 298 201 267 201 241 c 0
 201 228 204 217 210 204 c 2
 211 202 l 1
 177 188 l 1
 159 211 151 234 151 262 c 0
 151 297 168 330 214 386 c 0
 261 442 277 473 277 508 c 0
 277 555 236 591 181 591 c 0
 146 591 115 581 109 568 c 2
 78 497 l 1
195 144 m 0
 235 144 272 106 272 65 c 0
 272 24 235 -12 194 -12 c 0
 152 -12 116 23 116 64 c 0
 116 106 153 144 195 144 c 0
EndSplineSet
EndChar
StartChar: at
Encoding: 64 64 33
Width: 747
Flags: W
HStem: -12 56<375 415> 143 29<294 314> 625 56<374 415>
VStem: 42 56<323 357> 170 95<242 278> 653 51<387 421>
Fore
635 173 m 1
 699 173 l 1
 670 123 654 102 623 75 c 0
 558 18 479 -12 392 -12 c 0
 195 -12 42 137 42 329 c 0
 42 527 195 681 391 681 c 0
 567 681 704 558 704 399 c 0
 704 329 677 261 631 213 c 0
 586 168 526 137 481 137 c 0
 442 137 418 166 412 219 c 1
 368 159 342 143 294 143 c 0
 220 143 170 198 170 278 c 0
 170 395 267 501 376 501 c 0
 420 501 447 477 457 429 c 1
 473 493 l 1
 567 493 l 1
 493 219 l 1
 491 210 489 200 489 194 c 0
 489 180 497 170 508 170 c 0
 530 170 559 190 588 225 c 0
 629 274 653 340 653 403 c 0
 653 528 541 625 396 625 c 0
 225 625 98 501 98 335 c 0
 98 167 227 44 403 44 c 0
 443 44 477 51 510 66 c 0
 562 89 590 113 635 173 c 1
392 471 m 0
 334 475 265 350 265 242 c 0
 265 201 285 172 314 172 c 0
 342 172 369 195 394 240 c 0
 420 285 438 353 438 403 c 0
 438 442 420 469 392 471 c 0
EndSplineSet
EndChar
StartChar: A
Encoding: 65 65 34
Width: 778
Flags: W
HStem: 0 21G<132.5 141.5 593 604.5> 206 56<242 469> 666 20G<348 419>
DStem: 291 535 342 516 110 97 242 262 291 535 218 206 110 97 176 94
Fore
469 206 m 1
 218 206 l 1
 176 94 l 2
 173 86 171 76 171 69 c 0
 171 52 183 38 200 37 c 2
 250 34 l 1
 250 -3 l 1
 223 -2 202 -2 193 -1 c 0
 165 0 146 0 137 0 c 0
 128 0 109 0 81 -1 c 0
 73 -2 50 -2 24 -3 c 1
 24 34 l 1
 54 37 l 2
 76 39 93 58 110 97 c 1
 291 535 l 1
 296 546 306 572 320 611 c 1
 348 686 l 1
 419 686 l 1
 678 81 l 1
 691 52 705 41 733 37 c 2
 757 34 l 1
 757 -3 l 1
 610 0 610 0 599 0 c 0
 587 0 587 0 447 -3 c 1
 447 34 l 1
 500 37 l 2
 511 38 520 49 520 64 c 0
 520 72 518 82 514 92 c 2
 469 206 l 1
342 516 m 1
 242 262 l 1
 446 262 l 1
 342 516 l 1
EndSplineSet
KernsSLIF: 121 -72 0 0 119 -58 0 0 118 -68 0 0 117 -26 0 0 116 -14 0 0 39 -81 0 0 186 -83 0 0 113 -18 0 0 46 12 0 0 111 -16 0 0 45 -12 0 0 172 -72 0 0 171 -49 0 0 101 -15 0 0 100 -14 0 0 44 7 0 0 332 -15 0 0 99 -13 0 0 98 -8 0 0 97 7 0 0 89 -66 0 0 87 -71 0 0 86 -124 0 0 300 -46 0 0 298 -46 0 0 301 -46 0 0 299 -46 0 0 85 -46 0 0 84 -53 0 0 81 -41 0 0 286 -45 0 0 79 -45 0 0 71 -54 0 0 264 -51 0 0 67 -51 0 0
EndChar
StartChar: B
Encoding: 66 66 35
Width: 667
Flags: W
HStem: -1 53<258 308> 348 52<265 323> 631 49<316 344>
VStem: 124 141<76 348 95 627> 440 148<524 546> 461 150<200 222>
Fore
316 680 m 2xf4
 399 681 l 2
 526 681 588 637 588 546 c 0xf8
 588 508 574 472 550 450 c 0
 519 421 490 407 406 377 c 1
 486 372 520 363 556 338 c 0
 591 313 611 269 611 216 c 0
 611 87 500 -3 340 -3 c 0
 337 -3 310 -2 258 -1 c 0
 234 0 213 0 198 0 c 0
 170 0 144 -1 72 -3 c 1
 72 20 l 1
 104 38 l 2
 119 46 124 61 124 95 c 2
 124 543 l 2
 124 631 121 637 76 641 c 2
 39 644 l 1
 39 681 l 1
 118 679 l 2
 164 678 193 678 207 678 c 0
 223 678 292 679 316 680 c 2xf4
265 348 m 1
 265 56 l 1
 282 53 293 52 308 52 c 0
 414 52 461 98 461 202 c 0xf4
 461 304 411 348 295 348 c 2
 265 348 l 1
265 627 m 1
 265 400 l 1
 295 400 l 2
 396 400 440 437 440 524 c 0xf8
 440 598 404 631 323 631 c 0
 304 631 289 630 265 627 c 1
EndSplineSet
KernsSLIF: 89 -9 0 0 87 -18 0 0 86 -20 0 0 233 -3 0 0 288 -7 0 0 286 -7 0 0 289 -7 0 0 287 -7 0 0 234 -4 0 0 79 -7 0 0 261 -36 0 0 262 -36 0 0 256 -36 0 0 259 -36 0 0 257 -36 0 0 225 -39 0 0 65 -36 0 0
EndChar
StartChar: C
Encoding: 67 67 36
Width: 722
Flags: W
HStem: -17 65<445 485> 639 56<427 477>
VStem: 44 150<334 368>
Fore
692 87 m 1
 670 38 l 1
 596 -3 537 -17 445 -17 c 0
 198 -17 44 123 44 347 c 0
 44 561 202 695 455 695 c 0
 542 695 598 684 689 648 c 1
 695 637 l 1
 686 599 683 580 672 484 c 1
 633 484 l 1
 628 570 l 1
 574 620 525 639 450 639 c 0
 292 639 194 533 194 361 c 0
 194 172 310 48 485 48 c 0
 550 48 615 65 680 99 c 1
 692 87 l 1
EndSplineSet
KernsSLIF: 286 -13 0 0 287 -13 0 0 79 -13 0 0 75 12 0 0 72 13 0 0 262 11 0 0 256 11 0 0 257 11 0 0 225 10 0 0 65 11 0 0
EndChar
StartChar: D
Encoding: 68 68 37
Width: 833
Flags: W
HStem: -3 55<320 356> 631 50<324 436>
VStem: 120 141<76 627> 636 150<346 382>
Fore
68 20 m 1
 100 38 l 2
 115 46 120 62 120 95 c 2
 120 543 l 2
 120 631 117 637 72 641 c 2
 35 644 l 1
 35 681 l 1
 184 678 184 678 197 678 c 0
 200 678 280 679 436 681 c 1
 571 680 651 656 709 598 c 0
 759 549 786 471 786 376 c 0
 786 269 751 180 682 113 c 0
 607 39 498 -3 379 -3 c 2
 320 -2 l 2
 295 -1 241 0 223 0 c 0
 204 0 204 0 68 -3 c 1
 68 20 l 1
261 627 m 1
 261 57 l 1
 286 53 304 52 329 52 c 0
 442 52 513 74 563 123 c 0
 611 171 636 247 636 348 c 0
 636 447 615 515 570 559 c 0
 521 607 441 631 324 631 c 0
 301 631 285 630 261 627 c 1
EndSplineSet
KernsSLIF: 89 -29 0 0 88 -35 0 0 87 -34 0 0 86 -41 0 0 84 -3 0 0 74 -25 0 0 261 -67 0 0 262 -67 0 0 258 -67 0 0 256 -67 0 0 259 -67 0 0 257 -67 0 0 65 -67 0 0
EndChar
StartChar: E
Encoding: 69 69 38
Width: 611
Flags: W
HStem: -4 59<305.305 424> 328 50<332 412> 624 56<357 440>
VStem: 124 141<73 325 95 620>
DStem: 455 291 498 349 461 241 501 241
Fore
265 620 m 1
 265 380 l 1
 285 378 299 378 332 378 c 2
 398 378 l 2
 440 378 453 383 455 399 c 1
 461 456 l 1
 501 456 l 1
 498 361 498 360 498 349 c 1
 501 241 l 1
 461 241 l 1
 455 291 l 2
 452 317 436 328 398 328 c 2
 332 328 l 2
 310 328 293 327 265 325 c 1
 265 58 l 1
 316 56 355 55 396 55 c 0
 452 55 481 59 512 69 c 0
 514 70 515 71 515 72 c 1
 538 166 l 1
 577 166 l 1
 566 8 l 1
 561 0 l 1
 503 -3 472 -4 420 -4 c 0
 369 -4 329 -3 228 0 c 2
 194 0 l 2
 171 0 171 0 72 -3 c 1
 72 20 l 1
 104 38 l 2
 119 46 124 61 124 95 c 2
 124 543 l 2
 124 631 121 637 76 641 c 2
 39 644 l 1
 39 681 l 1
 149 679 192 678 227 678 c 0
 256 678 284 678 357 680 c 0
 412 681 442 682 465 682 c 0
 504 682 523 681 560 678 c 1
 566 671 l 1
 552 529 l 1
 516 529 l 1
 508 604 l 1
 507 615 464 624 410 624 c 0
 355 624 321 623 265 620 c 1
EndSplineSet
EndChar
StartChar: F
Encoding: 70 70 39
Width: 556
Flags: W
HStem: 0 21G<166 199> 325 50<321 381> 623 59<370 411.601>
VStem: 113 141<135 322 135 620>
DStem: 429 288 472 346 435 238 475 238
Fore
254 620 m 1
 254 377 l 1
 274 375 288 375 321 375 c 2
 372 375 l 2
 414 375 427 380 429 396 c 1
 435 449 l 1
 475 449 l 1
 472 371 472 357 472 346 c 1
 475 238 l 1
 435 238 l 1
 429 288 l 2
 426 314 410 325 372 325 c 2
 321 325 l 2
 299 325 282 324 254 322 c 1
 254 135 l 2
 254 47 256 43 302 40 c 2
 349 37 l 1
 349 -3 l 1
 215 0 215 0 183 0 c 0
 149 0 149 0 28 -3 c 1
 28 37 l 1
 65 40 l 2
 112 44 113 46 113 135 c 2
 113 543 l 2
 113 631 110 637 65 641 c 2
 28 644 l 1
 28 681 l 1
 177 678 177 678 206 678 c 0
 226 678 251 678 297 679 c 0
 377 681 415 682 438 682 c 0
 477 682 495 681 533 678 c 1
 539 671 l 1
 525 529 l 1
 489 529 l 1
 481 604 l 1
 480 616 437 623 370 623 c 0
 336 623 303 622 254 620 c 1
EndSplineSet
KernsSLIF: 117 -10 0 0 114 -13 0 0 46 -36 0 0 249 -17 0 0 250 -21 0 0 351 -17 0 0 352 -17 0 0 111 -17 0 0 106 -11 0 0 105 -10 0 0 45 19 0 0 335 -18 0 0 101 -18 0 0 44 -46 0 0 328 -35 0 0 241 -38 0 0 322 -5 0 0 323 -35 0 0 97 -35 0 0 286 -9 0 0 79 -9 0 0 74 18 0 0 261 -67 0 0 262 -67 0 0 258 -67 0 0 256 -67 0 0 259 -67 0 0 257 -67 0 0 65 -67 0 0
EndChar
StartChar: G
Encoding: 71 71 40
Width: 833
Flags: W
HStem: -17 56<438 480> 639 56<430 485>
VStem: 47 150<334 368> 593 142<63 206>
Fore
776 276 m 1
 776 242 l 1
 739 234 735 230 735 206 c 2
 735 43 l 1
 615 -2 539 -17 438 -17 c 0
 201 -17 47 126 47 346 c 0
 47 562 205 695 461 695 c 0
 559 695 631 682 722 648 c 1
 728 637 l 1
 719 599 716 580 705 484 c 1
 666 484 l 1
 661 570 l 1
 637 593 628 600 603 610 c 0
 560 629 507 639 456 639 c 0
 293 639 197 534 197 358 c 0
 197 168 305 39 466 39 c 0
 509 39 542 45 593 64 c 1
 593 196 l 2
 593 222 578 231 536 233 c 2
 483 235 l 1
 483 276 l 1
 564 274 603 273 626 273 c 0
 652 273 652 273 776 276 c 1
EndSplineSet
KernsSLIF: 89 -14 0 0 87 -16 0 0 86 -18 0 0 84 -17 0 0 261 -14 0 0 262 -14 0 0 258 -14 0 0 256 -14 0 0 259 -14 0 0 257 -14 0 0 225 -17 0 0 65 -14 0 0
EndChar
StartChar: H
Encoding: 72 72 41
Width: 833
Flags: W
HStem: 0 21G<174 208 623 657> 327 56<343 533>
VStem: 121 141<135 325 135 590> 570 141<135 325 384 590>
Fore
262 543 m 2
 262 385 l 1
 285 383 305 383 343 383 c 2
 489 383 l 2
 527 383 546 383 570 385 c 1
 570 543 l 2
 570 632 569 634 522 638 c 2
 485 641 l 1
 485 681 l 1
 605 678 606 678 640 678 c 0
 674 678 674 678 796 681 c 1
 796 641 l 1
 759 638 l 2
 712 634 711 632 711 543 c 2
 711 135 l 2
 711 46 712 44 759 40 c 2
 796 37 l 1
 796 -3 l 1
 675 0 674 0 640 0 c 0
 606 0 606 0 485 -3 c 1
 485 37 l 1
 522 40 l 2
 569 44 570 46 570 135 c 2
 570 325 l 1
 544 326 523 327 489 327 c 2
 343 327 l 2
 309 327 288 326 262 325 c 1
 262 135 l 2
 262 46 263 44 310 40 c 2
 347 37 l 1
 347 -3 l 1
 226 0 225 0 191 0 c 0
 157 0 157 0 36 -3 c 1
 36 37 l 1
 73 40 l 2
 120 44 121 46 121 135 c 2
 121 543 l 2
 121 632 120 634 73 638 c 2
 36 641 l 1
 36 681 l 1
 156 678 157 678 191 678 c 0
 225 678 225 678 347 681 c 1
 347 641 l 1
 310 638 l 2
 263 634 262 632 262 543 c 2
EndSplineSet
EndChar
StartChar: I
Encoding: 73 73 42
Width: 389
Flags: W
HStem: 0 21G<177 211>
VStem: 124 141<135 590>
Fore
265 543 m 2
 265 135 l 2
 265 46 266 44 313 40 c 2
 350 37 l 1
 350 -3 l 1
 229 0 228 0 194 0 c 0
 160 0 160 0 39 -3 c 1
 39 37 l 1
 76 40 l 2
 123 44 124 46 124 135 c 2
 124 543 l 2
 124 632 123 634 76 638 c 2
 39 641 l 1
 39 681 l 1
 159 678 160 678 194 678 c 0
 228 678 228 678 350 681 c 1
 350 641 l 1
 313 638 l 2
 266 634 265 632 265 543 c 2
EndSplineSet
EndChar
StartChar: J
Encoding: 74 74 43
Width: 389
Flags: W
HStem: -213 65<19 69>
VStem: 124 141<-18 588>
Fore
-11 -208 m 1
 -11 -119 l 1
 0 -113 l 1
 4 -116 5 -116 11 -121 c 0
 37 -141 52 -148 69 -148 c 0
 109 -148 124 -113 124 -18 c 2
 124 543 l 2
 124 632 123 634 76 638 c 2
 39 641 l 1
 39 681 l 1
 159 678 160 678 194 678 c 0
 228 678 228 678 350 681 c 1
 350 641 l 1
 313 638 l 2
 266 634 265 632 265 543 c 2
 265 137 l 2
 265 32 259 -7 237 -55 c 0
 195 -144 100 -213 19 -213 c 0
 11 -213 2 -212 -11 -208 c 1
EndSplineSet
KernsSLIF: 262 -29 0 0 256 -29 0 0 225 -24 0 0 65 -29 0 0
EndChar
StartChar: K
Encoding: 75 75 44
Width: 778
Flags: W
HStem: 0 21G<177 211>
VStem: 124 141<135 332 135 590> 556 182<652 681>
DStem: 352 246 406 401 560 -3 672 88 462 536 628 608 265 343 406 401
Fore
265 343 m 1
 462 536 l 2
 471 545 495 570 520 598 c 0
 525 603 529 608 530 610 c 0
 551 632 556 641 556 656 c 2
 556 681 l 1
 614 679 632 678 647 678 c 0
 662 678 680 679 738 681 c 1
 738 642 l 1
 675 637 652 630 628 608 c 2
 406 401 l 1
 672 88 l 2
 703 52 726 39 763 38 c 1
 763 -3 l 1
 746 -2 734 -2 729 -2 c 0
 678 0 669 0 662 0 c 2
 560 -3 l 1
 352 246 l 2
 295 313 291 317 265 332 c 1
 265 135 l 2
 265 46 266 44 313 40 c 2
 350 37 l 1
 350 -3 l 1
 229 0 228 0 194 0 c 0
 160 0 160 0 39 -3 c 1
 39 37 l 1
 76 40 l 2
 123 44 124 46 124 135 c 2
 124 543 l 2
 124 632 123 634 76 638 c 2
 39 641 l 1
 39 681 l 1
 159 678 160 678 194 678 c 0
 228 678 228 678 350 681 c 1
 350 641 l 1
 313 638 l 2
 266 634 265 632 265 543 c 2
 265 343 l 1
EndSplineSet
KernsSLIF: 121 -72 0 0 362 -23 0 0 117 -23 0 0 351 -13 0 0 352 -13 0 0 111 -13 0 0 45 -43 0 0 101 -12 0 0 328 10 0 0 241 6 0 0 322 10 0 0 97 10 0 0 84 18 0 0 83 10 0 0 286 -42 0 0 287 -42 0 0 234 -42 0 0 79 -42 0 0 71 -51 0 0 67 -48 0 0
EndChar
StartChar: L
Encoding: 76 76 45
Width: 611
Flags: W
HStem: -4 59<305.626 424>
VStem: 124 141<73 589>
Fore
265 543 m 2
 265 58 l 1
 317 56 354 55 396 55 c 0
 458 55 513 63 515 72 c 2
 538 174 l 1
 577 174 l 1
 566 8 l 1
 561 0 l 1
 503 -3 472 -4 420 -4 c 0
 369 -4 329 -3 228 0 c 2
 194 0 l 2
 171 0 171 0 72 -3 c 1
 72 20 l 1
 104 38 l 2
 119 46 124 61 124 95 c 2
 124 543 l 2
 124 632 123 634 76 638 c 2
 39 641 l 1
 39 681 l 1
 159 678 160 678 194 678 c 0
 228 678 228 678 350 681 c 1
 350 641 l 1
 313 638 l 2
 266 634 265 632 265 543 c 2
EndSplineSet
KernsSLIF: 121 -57 0 0 362 -22 0 0 117 -22 0 0 39 -79 0 0 186 -82 0 0 45 19 0 0 89 -77 0 0 87 -64 0 0 86 -94 0 0 298 -26 0 0 85 -26 0 0 84 -63 0 0 83 -3 0 0 290 -9 0 0 288 -9 0 0 286 -9 0 0 289 -9 0 0 287 -9 0 0 79 -9 0 0 71 -14 0 0 264 -11 0 0 67 -11 0 0 262 13 0 0 256 13 0 0 257 13 0 0 225 19 0 0 65 13 0 0
EndChar
StartChar: M
Encoding: 77 77 46
Width: 1000
Flags: W
HStem: -10 21G<442 476>
VStem: 117 59<135 551> 742 141<135 551>
DStem: 176 552 272 681 406 73 347 520 176 552 347 520 406 73 505 190 688 568 742 551 505 190 536 122
Fore
742 551 m 1
 536 122 l 2
 499 46 495 36 476 -10 c 1
 442 -10 l 1
 424 34 413 58 406 73 c 2
 176 552 l 1
 176 135 l 2
 176 46 179 41 224 37 c 2
 261 34 l 1
 261 -3 l 1
 213 -1 167 0 147 0 c 0
 128 0 128 0 32 -3 c 1
 32 34 l 1
 69 37 l 2
 114 41 117 47 117 135 c 2
 117 543 l 2
 117 631 114 637 69 641 c 2
 32 644 l 1
 32 681 l 1
 67 680 68 680 83 680 c 0
 113 679 136 678 152 678 c 2
 272 681 l 1
 347 520 l 1
 505 190 l 1
 688 568 l 2
 699 591 708 612 737 681 c 1
 841 678 841 678 852 678 c 0
 863 678 863 678 968 681 c 1
 968 644 l 1
 931 641 l 2
 886 637 883 631 883 543 c 2
 883 135 l 2
 883 46 884 44 931 40 c 2
 968 37 l 1
 968 -3 l 1
 847 0 846 0 812 0 c 0
 778 0 778 0 657 -3 c 1
 657 37 l 1
 694 40 l 2
 741 44 742 46 742 135 c 2
 742 551 l 1
EndSplineSet
EndChar
StartChar: N
Encoding: 78 78 47
Width: 833
Flags: W
HStem: 0 21G<140.5 160>
VStem: 120 59<135 528> 654 59<184 593>
DStem: 179 528 342 548 505 136 654 184
Fore
155 678 m 1
 239 681 l 1
 303 596 321 572 342 548 c 2
 654 184 l 1
 654 543 l 2
 654 631 651 637 606 641 c 2
 569 644 l 1
 569 681 l 1
 657 678 673 678 684 678 c 2
 798 681 l 1
 798 644 l 1
 761 641 l 2
 716 637 713 631 713 543 c 2
 713 89 l 2
 713 66 714 44 716 -12 c 1
 709 -16 l 1
 627 -3 l 1
 505 136 l 1
 179 528 l 1
 179 135 l 2
 179 46 182 41 227 37 c 2
 264 34 l 1
 264 -3 l 1
 216 -1 170 0 150 0 c 0
 131 0 131 0 35 -3 c 1
 35 34 l 1
 72 37 l 2
 117 41 120 47 120 135 c 2
 120 543 l 2
 120 631 117 637 72 641 c 2
 35 644 l 1
 35 681 l 1
 92 679 125 678 134 678 c 2
 155 678 l 1
EndSplineSet
KernsSLIF: 362 -29 0 0 117 -29 0 0 46 -3 0 0 249 -17 0 0 351 -22 0 0 352 -22 0 0 111 -22 0 0 335 -23 0 0 101 -23 0 0 44 -11 0 0 328 -28 0 0 241 -31 0 0 322 -15 0 0 323 -28 0 0 97 -28 0 0 286 -20 0 0 287 -20 0 0 79 -20 0 0 71 -23 0 0 264 -21 0 0 67 -21 0 0 262 -24 0 0 256 -24 0 0 257 -24 0 0 225 -18 0 0 65 -24 0 0
EndChar
StartChar: O
Encoding: 79 79 48
Width: 833
Flags: W
HStem: -17 56<398 432> 639 56<398 432>
VStem: 47 150<323 357> 637 150<318 357>
Fore
430 695 m 0
 656 695 787 566 787 346 c 0
 787 118 646 -17 407 -17 c 0
 178 -17 47 110 47 332 c 0
 47 561 188 695 430 695 c 0
421 639 m 0
 358 639 306 620 267 582 c 0
 222 537 197 457 197 355 c 0
 197 240 228 144 282 91 c 0
 318 55 359 39 414 39 c 0
 560 39 637 137 637 325 c 0
 637 438 606 534 551 588 c 0
 516 622 474 639 421 639 c 0
EndSplineSet
KernsSLIF: 89 -37 0 0 88 -42 0 0 87 -31 0 0 86 -49 0 0 84 -9 0 0 262 -51 0 0 256 -51 0 0 257 -51 0 0 225 -54 0 0 65 -51 0 0
EndChar
StartChar: P
Encoding: 80 80 49
Width: 611
Flags: W
HStem: 0 21G<177.5 210.5> 319 46<347 369> 631 47<212 344>
VStem: 124 141<135 590> 450 144<497 531>
Fore
311 326 m 1
 294 361 l 1
 304 371 l 1
 308 370 311 370 312 370 c 0
 338 365 339 365 347 365 c 0
 410 365 450 417 450 497 c 0
 450 586 408 631 325 631 c 0
 298 631 280 628 265 622 c 1
 265 135 l 2
 265 47 267 43 313 40 c 2
 360 37 l 1
 360 -3 l 1
 226 0 226 0 195 0 c 0
 160 0 160 0 39 -3 c 1
 39 37 l 1
 76 40 l 2
 123 44 124 46 124 135 c 2
 124 543 l 2
 124 631 121 637 76 641 c 2
 39 644 l 1
 39 681 l 1
 191 678 191 678 212 678 c 0
 223 678 284 679 393 681 c 2
 405 681 l 2
 531 681 594 631 594 531 c 0
 594 410 498 319 369 319 c 0
 355 319 350 320 326 323 c 0
 323 324 322 324 311 326 c 1
EndSplineSet
KernsSLIF: 46 -86 0 0 249 -33 0 0 250 -37 0 0 351 -21 0 0 352 -33 0 0 111 -33 0 0 45 -27 0 0 335 -35 0 0 101 -35 0 0 44 -96 0 0 328 -28 0 0 241 -29 0 0 322 -7 0 0 323 -28 0 0 97 -28 0 0 262 -88 0 0 256 -88 0 0 257 -88 0 0 225 -85 0 0 65 -88 0 0
EndChar
StartChar: Q
Encoding: 81 81 50
Width: 833
Flags: W
HStem: -184 78<678 701> -16 55<374 432> 639 56<396 432>
VStem: 47 150<323 361> 637 150<323 357>
Fore
781 -120 m 1
 678 -184 l 1
 652 -184 632 -181 606 -174 c 2
 407 -120 l 2
 348 -104 333 -101 308 -101 c 0
 284 -101 259 -113 211 -146 c 1
 200 -115 l 1
 273 -57 308 -35 361 -15 c 1
 273 -4 231 9 182 41 c 0
 94 99 47 199 47 331 c 0
 47 560 188 695 427 695 c 0
 656 695 787 568 787 346 c 0
 787 217 742 118 655 54 c 0
 595 9 505 -15 395 -15 c 0
 387 -16 385 -16 374 -16 c 1
 421 -26 446 -32 474 -42 c 2
 594 -84 l 2
 631 -97 675 -106 701 -106 c 0
 719 -106 737 -101 770 -87 c 2
 781 -83 l 1
 781 -120 l 1
421 639 m 0
 358 639 306 620 267 582 c 0
 222 537 197 457 197 355 c 0
 197 240 228 144 282 91 c 0
 318 55 359 39 414 39 c 0
 560 39 637 137 637 325 c 0
 637 438 606 534 551 588 c 0
 516 622 474 639 421 639 c 0
EndSplineSet
EndChar
StartChar: R
Encoding: 82 82 51
Width: 722
Flags: W
HStem: 0 21G<177 211> 631 47<217 324>
VStem: 124 141<135 590> 464 142<503 534>
DStem: 297 344 457 356 521 -3 638 82
Fore
457 356 m 1
 638 82 l 1
 662 50 672 44 708 37 c 1
 708 -3 l 1
 671 -1 662 -1 611 0 c 1
 521 -3 l 1
 297 344 l 1
 304 362 l 1
 348 361 373 366 398 381 c 0
 439 405 464 450 464 503 c 0
 464 584 413 631 324 631 c 0
 298 631 279 628 265 622 c 1
 265 135 l 2
 265 46 266 44 313 40 c 2
 350 37 l 1
 350 -3 l 1
 229 0 228 0 194 0 c 0
 160 0 160 0 39 -3 c 1
 39 37 l 1
 76 40 l 2
 123 44 124 46 124 135 c 2
 124 543 l 2
 124 631 121 637 76 641 c 2
 39 644 l 1
 39 681 l 1
 189 678 189 678 217 678 c 0
 239 678 321 679 347 680 c 0
 381 681 405 681 416 681 c 0
 542 681 606 631 606 534 c 0
 606 492 592 455 563 424 c 1
 537 394 513 379 457 356 c 1
EndSplineSet
KernsSLIF: 121 -27 0 0 362 -22 0 0 363 -22 0 0 117 -22 0 0 250 -16 0 0 351 -12 0 0 352 -12 0 0 111 -12 0 0 45 -22 0 0 335 -12 0 0 101 -12 0 0 328 11 0 0 241 6 0 0 322 11 0 0 323 11 0 0 97 11 0 0 89 -30 0 0 87 -38 0 0 86 -40 0 0 298 -41 0 0 85 -41 0 0 84 -25 0 0 286 -34 0 0 287 -34 0 0 234 -31 0 0 79 -34 0 0 71 -37 0 0 264 -35 0 0 67 -35 0 0
EndChar
StartChar: S
Encoding: 83 83 52
Width: 611
Flags: W
HStem: -17 54<263 296> 644 51<312 331>
VStem: 64 124<481 527> 433 126<166 220>
Fore
72 202 m 1
 112 202 l 1
 119 114 l 1
 150 67 215 37 283 37 c 0
 369 37 433 92 433 166 c 0
 433 214 406 245 350 262 c 2
 210 304 l 2
 116 332 64 395 64 481 c 0
 64 615 163 695 329 695 c 0
 395 695 447 685 514 661 c 1
 519 649 l 1
 510 620 505 572 505 507 c 1
 464 507 l 1
 458 589 l 1
 420 626 375 644 322 644 c 0
 243 644 188 596 188 527 c 0
 188 476 220 445 294 426 c 2
 408 396 l 2
 507 370 559 309 559 220 c 0
 559 76 444 -17 265 -17 c 0
 190 -17 130 -4 57 29 c 1
 68 86 72 127 72 202 c 1
EndSplineSet
KernsSLIF: 116 -14 0 0 89 -7 0 0 87 -8 0 0 86 -9 0 0 84 -9 0 0 262 -27 0 0 256 -27 0 0 257 -27 0 0 225 -30 0 0 65 -27 0 0
EndChar
StartChar: T
Encoding: 84 84 53
Width: 667
Flags: W
HStem: 0 21G<316 350> 619 59<334 500.045>
VStem: 263 141<135 619>
Fore
404 619 m 1
 404 135 l 2
 404 46 405 44 452 40 c 2
 489 37 l 1
 489 -3 l 1
 368 0 367 0 333 0 c 0
 299 0 299 0 178 -3 c 1
 178 37 l 1
 215 40 l 2
 262 44 263 46 263 135 c 2
 263 619 l 1
 146 619 l 2
 104 619 88 616 83 609 c 0
 80 604 75 592 75 586 c 1
 70 517 l 1
 30 517 l 1
 27 593 25 628 17 676 c 1
 23 681 l 1
 299 678 299 678 334 678 c 0
 368 678 368 678 644 681 c 1
 650 676 l 1
 642 628 639 593 637 517 c 1
 597 517 l 1
 592 586 l 1
 583 610 l 1
 574 617 563 619 521 619 c 2
 404 619 l 1
EndSplineSet
KernsSLIF: 121 -93 0 0 119 -95 0 0 118 -94 0 0 117 -100 0 0 59 -71 0 0 115 -65 0 0 114 -61 0 0 46 -65 0 0 249 -59 0 0 111 -89 0 0 106 -12 0 0 105 -11 0 0 45 -60 0 0 172 -124 0 0 171 -101 0 0 103 -79 0 0 101 -90 0 0 44 -71 0 0 58 -67 0 0 99 -92 0 0 241 -75 0 0 97 -71 0 0 89 29 0 0 87 29 0 0 86 28 0 0 83 -1 0 0 290 -12 0 0 233 -12 0 0 288 -12 0 0 286 -12 0 0 289 -12 0 0 287 -12 0 0 234 -6 0 0 79 -12 0 0 74 18 0 0 71 -13 0 0 67 -12 0 0 261 -54 0 0 262 -54 0 0 258 -54 0 0 256 -54 0 0 259 -54 0 0 257 -54 0 0 225 -48 0 0 65 -54 0 0
EndChar
StartChar: U
Encoding: 85 85 54
Width: 778
Flags: W
HStem: -17 82<391 428>
VStem: 111 141<177 592> 616 59<270 592>
Fore
675 543 m 2
 675 251 l 2
 675 70 582 -17 391 -17 c 0
 219 -17 111 58 111 177 c 2
 111 543 l 2
 111 631 108 637 63 641 c 2
 26 644 l 1
 26 681 l 1
 146 678 147 678 181 678 c 0
 215 678 215 678 337 681 c 1
 337 644 l 1
 300 641 l 2
 255 637 252 631 252 543 c 2
 252 295 l 2
 252 193 261 146 287 114 c 0
 314 81 359 65 428 65 c 0
 494 65 541 79 569 108 c 0
 603 143 616 196 616 302 c 2
 616 543 l 2
 616 631 613 637 568 641 c 2
 531 644 l 1
 531 681 l 1
 619 678 635 678 646 678 c 2
 760 681 l 1
 760 644 l 1
 723 641 l 2
 678 637 675 631 675 543 c 2
EndSplineSet
KernsSLIF: 114 -23 0 0 46 -13 0 0 112 -23 0 0 110 -20 0 0 109 -20 0 0 44 -24 0 0 261 -51 0 0 262 -51 0 0 256 -51 0 0 259 -51 0 0 257 -51 0 0 225 -54 0 0 65 -51 0 0
EndChar
StartChar: V
Encoding: 86 86 55
Width: 778
Flags: W
HStem: -3 21G<362 438>
DStem: 123 569 285 550 362 -3 442 163 584 516 684 594 442 163 476 96
Fore
340 644 m 1
 290 641 l 2
 276 640 264 631 264 622 c 0
 264 604 265 601 285 550 c 1
 442 163 l 1
 584 516 l 2
 605 569 615 600 615 615 c 0
 615 630 601 639 578 641 c 2
 532 644 l 1
 532 681 l 1
 558 680 583 680 591 679 c 0
 619 678 637 678 647 678 c 0
 657 678 657 678 763 681 c 1
 763 644 l 1
 731 641 l 2
 710 639 697 626 684 594 c 2
 476 96 l 2
 472 87 469 79 468 75 c 0
 466 72 462 61 457 46 c 0
 452 34 448 23 438 -3 c 1
 362 -3 l 1
 123 569 l 1
 101 620 86 638 61 641 c 2
 20 644 l 1
 20 681 l 1
 164 678 164 678 178 678 c 0
 191 678 214 678 248 679 c 0
 259 680 298 680 340 681 c 1
 340 644 l 1
EndSplineSet
KernsSLIF: 121 -36 0 0 117 -49 0 0 59 -77 0 0 114 -52 0 0 46 -91 0 0 249 -79 0 0 111 -83 0 0 105 -8 0 0 45 -48 0 0 172 -112 0 0 171 -89 0 0 103 -78 0 0 101 -84 0 0 44 -101 0 0 58 -63 0 0 241 -87 0 0 97 -87 0 0 84 30 0 0 83 -26 0 0 290 -52 0 0 233 -51 0 0 288 -52 0 0 286 -52 0 0 289 -52 0 0 287 -52 0 0 79 -52 0 0 71 -55 0 0 67 -53 0 0 261 -115 0 0 262 -115 0 0 258 -115 0 0 256 -115 0 0 259 -115 0 0 257 -115 0 0 225 -119 0 0 65 -115 0 0
EndChar
StartChar: W
Encoding: 87 87 56
Width: 1000
Flags: W
HStem: -3 21G<225 295 684 757> 666 20G<521 566>
DStem: 86 599 238 590 225 -3 320 207 470 562 497 477 320 207 342 122 497 477 615 553 646 102 752 210
Fore
320 207 m 1
 470 562 l 2
 480 585 489 609 499 633 c 2
 521 686 l 1
 566 686 l 1
 587 626 599 592 615 553 c 2
 752 210 l 1
 849 588 l 2
 852 599 853 608 853 618 c 0
 853 632 841 640 818 641 c 2
 772 644 l 1
 772 681 l 1
 796 680 818 680 825 679 c 0
 851 678 868 678 878 678 c 0
 888 678 888 678 988 681 c 1
 988 644 l 1
 955 641 l 2
 938 639 925 618 912 572 c 2
 790 140 l 1
 783 114 777 88 757 -3 c 1
 684 -3 l 1
 676 18 676 20 667 45 c 0
 659 69 653 83 646 102 c 1
 497 477 l 1
 342 122 l 1
 333 100 325 80 295 -3 c 1
 225 -3 l 1
 86 599 l 1
 79 627 68 639 49 641 c 2
 17 644 l 1
 17 681 l 1
 173 678 l 2
 185 678 185 678 307 681 c 1
 307 644 l 1
 265 641 l 2
 249 640 235 628 235 616 c 0
 235 608 236 599 238 590 c 2
 320 207 l 1
EndSplineSet
KernsSLIF: 121 -21 0 0 117 -33 0 0 59 -55 0 0 114 -35 0 0 46 -51 0 0 249 -49 0 0 111 -52 0 0 105 -6 0 0 45 -19 0 0 172 -83 0 0 171 -60 0 0 103 -55 0 0 101 -53 0 0 44 -61 0 0 58 -42 0 0 241 -64 0 0 97 -60 0 0 84 32 0 0 83 -24 0 0 290 -36 0 0 233 -31 0 0 288 -36 0 0 286 -36 0 0 289 -36 0 0 287 -36 0 0 79 -36 0 0 71 -38 0 0 67 -36 0 0 261 -82 0 0 262 -82 0 0 258 -82 0 0 256 -82 0 0 259 -82 0 0 257 -82 0 0 225 -78 0 0 65 -82 0 0
EndChar
StartChar: X
Encoding: 88 88 57
Width: 667
Flags: W
HStem: 0 34<17 27.3333> 644 34<639.667 649>
DStem: 186 482 278 604 280 316 373 435 310 263 403 381 459 -3 562 106
Fore
22 658 m 1
 205 695 l 1
 234 673 250 653 278 604 c 2
 373 435 l 1
 538 678 l 1
 649 678 l 1
 649 644 l 1
 621 641 l 2
 601 638 594 633 573 605 c 2
 403 381 l 1
 562 106 l 1
 563 103 l 1
 591 54 603 41 625 37 c 2
 650 34 l 1
 650 -3 l 1
 614 -1 604 -1 555 0 c 1
 459 -3 l 1
 310 263 l 1
 170 62 l 1
 165 56 148 26 134 0 c 1
 17 0 l 1
 17 34 l 1
 48 37 l 2
 60 38 74 46 81 55 c 2
 280 316 l 1
 186 482 l 2
 160 528 122 581 100 605 c 0
 87 618 75 623 59 623 c 0
 50 623 43 622 27 617 c 1
 22 658 l 1
EndSplineSet
KernsSLIF: 121 -61 0 0 117 -24 0 0 111 -14 0 0 45 -20 0 0 101 -13 0 0 97 9 0 0 81 -36 0 0 286 -36 0 0 79 -36 0 0 67 -38 0 0
EndChar
StartChar: Y
Encoding: 89 89 58
Width: 667
Flags: W
HStem: 0 21G<343 377>
VStem: 290 141<135 274>
Fore
395 356 m 1
 583 678 l 1
 660 678 l 1
 660 659 l 1
 484 398 l 2
 466 371 450 341 431 298 c 1
 431 135 l 2
 431 46 432 44 479 40 c 2
 516 37 l 1
 516 -3 l 1
 395 0 394 0 360 0 c 0
 326 0 326 0 205 -3 c 1
 205 37 l 1
 242 40 l 2
 289 44 290 46 290 135 c 2
 290 274 l 1
 274 310 262 332 246 359 c 1
 145 522 l 1
 86 607 66 622 15 622 c 1
 15 659 l 1
 174 695 l 1
 220 668 247 635 288 559 c 1
 395 356 l 1
EndSplineSet
KernsSLIF: 118 -35 0 0 117 -49 0 0 59 -58 0 0 46 -51 0 0 112 -51 0 0 249 -45 0 0 111 -68 0 0 105 -5 0 0 45 -45 0 0 172 -105 0 0 171 -82 0 0 103 -65 0 0 101 -69 0 0 44 -57 0 0 58 -54 0 0 241 -62 0 0 97 -57 0 0 84 34 0 0 83 -24 0 0 290 -45 0 0 233 -39 0 0 288 -45 0 0 286 -45 0 0 289 -45 0 0 287 -45 0 0 79 -45 0 0 71 -47 0 0 67 -46 0 0 261 -41 0 0 262 -41 0 0 258 -41 0 0 256 -41 0 0 259 -41 0 0 257 -41 0 0 225 -35 0 0 65 -41 0 0
EndChar
StartChar: Z
Encoding: 90 90 59
Width: 667
Flags: W
HStem: -3 60<215 474.752> -3 177<587 610.806> 0 57<215 328> 620 58<174.146 211.937 212 434>
DStem: 80 681 125 574 80 519 117 519 434 620 540 536 128 174 215 57
Fore
623 681 m 1x50
 623 646 l 1
 591 607 568 576 540 536 c 1
 215 57 l 1x90
 491 57 l 2x30
 542 57 567 69 572 96 c 2
 587 174 l 1
 627 174 l 1
 618 124 612 58 611 -3 c 1x50
 480 -1 419 0 327 0 c 0x30
 234 0 167 -1 24 -3 c 1
 24 35 l 1
 73 97 100 134 128 174 c 2
 434 620 l 1
 212 620 l 2
 141 620 131 615 125 574 c 2
 117 519 l 1
 80 519 l 1
 80 681 l 1
 352 678 l 2
 371 678 371 678 623 681 c 1x50
EndSplineSet
KernsSLIF: 121 -49 0 0 118 -46 0 0
EndChar
StartChar: bracketleft
Encoding: 91 91 60
Width: 333
Flags: W
HStem: -104 38<259.5 291> 682 35<193 242>
Fore
291 -66 m 1
 291 -104 l 1
 228 -102 205 -101 192 -101 c 0
 183 -101 166 -101 142 -102 c 0
 134 -103 103 -103 73 -104 c 1
 74 -38 75 18 76 39 c 0
 78 116 79 170 79 188 c 2
 79 407 l 2
 79 433 78 488 76 566 c 0
 76 595 75 644 73 720 c 1
 105 719 133 719 142 718 c 0
 166 717 184 717 193 717 c 0
 204 717 219 717 237 718 c 2
 291 720 l 1
 291 682 l 1
 242 682 l 2
 219 682 197 673 186 660 c 0
 180 652 179 637 179 561 c 2
 179 48 l 2
 179 -28 179 -33 184 -41 c 0
 192 -55 217 -66 242 -66 c 2
 291 -66 l 1
EndSplineSet
EndChar
StartChar: backslash
Encoding: 92 92 61
Width: 606
Flags: W
HStem: 0 21G<444 534>
DStem: 72 720 162 720 444 0 534 0
Fore
72 720 m 1
 162 720 l 1
 534 0 l 1
 444 0 l 1
 72 720 l 1
EndSplineSet
EndChar
StartChar: bracketright
Encoding: 93 93 62
Width: 333
Flags: W
HStem: -104 38<42 73.5> 682 35<91 140>
VStem: 154 100<48 473>
Fore
42 720 m 1
 96 718 l 2
 114 717 129 717 140 717 c 0
 149 717 167 717 191 718 c 0
 200 719 228 719 260 720 c 1
 258 644 257 594 257 566 c 0
 255 488 254 433 254 407 c 2
 254 188 l 2
 254 170 255 116 257 39 c 0
 258 18 259 -38 260 -104 c 1
 229 -103 200 -103 191 -102 c 0
 167 -101 150 -101 141 -101 c 0
 128 -101 105 -102 42 -104 c 1
 42 -66 l 1
 91 -66 l 2
 116 -66 141 -55 149 -41 c 0
 154 -33 154 -28 154 48 c 2
 154 561 l 2
 154 641 153 653 146 661 c 0
 134 674 113 682 91 682 c 2
 42 682 l 1
 42 720 l 1
EndSplineSet
EndChar
StartChar: asciicircum
Encoding: 94 94 63
Width: 606
Flags: W
DStem: 258 678 303 569 52 275 147 275 303 569 348 678 459 275 554 275
Fore
147 275 m 1
 52 275 l 1
 258 678 l 1
 348 678 l 1
 554 275 l 1
 459 275 l 1
 303 569 l 1
 147 275 l 1
EndSplineSet
EndChar
StartChar: underscore
Encoding: 95 95 64
Width: 500
Flags: W
HStem: -125 50<0 500>
Fore
500 -125 m 1
 0 -125 l 1
 0 -75 l 1
 500 -75 l 1
 500 -125 l 1
EndSplineSet
EndChar
StartChar: quoteleft
Encoding: 96 8216 65
Width: 278
Flags: W
Fore
169 668 m 1
 235 695 l 1
 249 679 l 1
 214 600 186 510 175 438 c 1
 126 432 82 421 43 405 c 1
 29 418 l 1
 59 485 113 581 169 668 c 1
EndSplineSet
KernsSLIF: 89 23 1 0 87 23 1 0 86 21 1 0 84 23 1 0 262 -84 1 0 256 -84 1 0 257 -84 1 0 225 -114 1 0 65 -84 1 0
EndChar
StartChar: a
Encoding: 97 97 66
Width: 500
Flags: W
HStem: -17 87<157 213> 393 78<197 260>
VStem: 40 122<107 133> 299 121<114 119 115 233>
Fore
299 67 m 1
 206 -5 l 2
 196 -13 179 -17 157 -17 c 0
 81 -17 40 26 40 107 c 0
 40 192 85 231 211 257 c 2
 299 275 l 1
 296 357 264 393 197 393 c 0
 170 393 142 386 139 379 c 2
 117 329 l 1
 87 336 l 1
 87 405 l 1
 140 437 l 2
 177 460 218 471 260 471 c 0
 361 471 421 418 421 329 c 0
 421 322 421 313 420 300 c 0
 419 262 418 230 418 203 c 0
 418 179 419 151 420 119 c 1
 420 98 l 1
 421 51 426 41 448 37 c 1
 478 34 l 1
 478 -3 l 1
 418 -1 402 0 390 0 c 0
 378 0 361 -1 299 -3 c 1
 294 5 l 1
 299 67 l 1
299 115 m 1
 299 233 l 1
 254 221 l 2
 183 202 162 182 162 133 c 0
 162 94 181 70 213 70 c 0
 243 70 280 89 299 115 c 1
EndSplineSet
KernsSLIF: 121 -22 0 0 119 -19 0 0 118 -18 0 0 106 -23 0 0
EndChar
StartChar: b
Encoding: 98 98 67
Width: 611
Flags: W
HStem: -17 68<272 312> 381 90<307 375>
VStem: 89 122<107 331 162 714> 430 126<221 281>
DStem: 203 720 203 720 131 698 211 714
Fore
211 714 m 1
 211 383 l 1
 272 432 l 2
 307 460 336 471 375 471 c 0
 481 471 556 392 556 281 c 0
 556 204 523 127 473 86 c 0
 445 63 399 32 359 8 c 0
 330 -9 303 -17 272 -17 c 0
 229 -17 187 -5 141 20 c 1
 102 -12 l 1
 80 -4 l 1
 86 49 89 109 89 162 c 2
 89 568 l 2
 89 627 85 637 63 638 c 2
 10 641 l 1
 10 677 l 1
 68 683 102 689 131 698 c 2
 203 720 l 1
 211 714 l 1
211 331 m 1
 211 106 l 1
 238 68 270 51 312 51 c 0
 385 51 430 117 430 221 c 0
 430 321 384 381 307 381 c 0
 266 381 233 364 211 331 c 1
EndSplineSet
KernsSLIF: 121 -22 0 0 119 -19 0 0 118 -18 0 0
EndChar
StartChar: c
Encoding: 99 99 68
Width: 444
Flags: W
HStem: -17 71<259 320> 400 71<259 300>
VStem: 37 124<229 260>
Fore
390 297 m 1
 354 297 l 1
 347 357 l 1
 344 380 304 400 259 400 c 0
 195 400 161 351 161 260 c 0
 161 133 222 54 320 54 c 0
 349 54 371 59 405 73 c 1
 414 63 l 1
 393 17 l 1
 346 -8 309 -17 259 -17 c 0
 116 -17 37 70 37 229 c 0
 37 316 69 366 158 419 c 2
 210 450 l 2
 234 464 262 471 300 471 c 0
 336 471 357 467 403 451 c 1
 410 438 l 1
 401 394 396 361 390 297 c 1
EndSplineSet
KernsSLIF: 107 7 0 0 104 9 0 0
EndChar
StartChar: d
Encoding: 100 100 69
Width: 611
Flags: W
HStem: -17 95<233 284> 407 64<272 288>
VStem: 42 126<217 255> 386 122<148.658 344 446 714>
DStem: 500 720 500 720 428 698 508 714
Fore
508 714 m 1
 508 100 l 2
 508 46 513 38 544 36 c 2
 577 34 l 1
 577 -3 l 1
 556 -2 537 -2 530 -2 c 0
 502 -1 484 0 476 0 c 0
 465 0 446 -1 386 -3 c 1
 381 5 l 1
 386 80 l 1
 282 -5 l 2
 272 -13 256 -17 233 -17 c 0
 116 -17 42 74 42 217 c 0
 42 303 69 360 126 398 c 2
 198 445 l 2
 225 462 254 471 286 471 c 0
 311 471 338 465 366 454 c 2
 386 446 l 1
 386 568 l 2
 386 627 382 637 360 638 c 2
 307 641 l 1
 307 677 l 1
 365 683 399 689 428 698 c 2
 500 720 l 1
 508 714 l 1
386 160 m 2
 386 344 l 1
 353 387 317 407 274 407 c 0
 203 407 168 356 168 255 c 0
 168 147 213 78 284 78 c 0
 339 78 386 115 386 160 c 2
EndSplineSet
EndChar
StartChar: e
Encoding: 101 101 70
Width: 500
Flags: W
HStem: -17 71<271 322> 223 50<217 303> 415 56<250 272>
VStem: 334 127<276 297>
Fore
461 295 m 2
 461 243 l 1
 405 229 360 223 303 223 c 2
 172 223 l 1
 174 176 180 153 196 125 c 0
 221 82 270 54 322 54 c 0
 362 54 392 63 439 89 c 1
 451 74 l 1
 429 26 l 1
 365 -7 328 -17 271 -17 c 0
 122 -17 42 67 42 226 c 0
 42 321 71 381 137 420 c 2
 184 448 l 2
 211 464 237 471 272 471 c 0
 386 471 461 402 461 295 c 2
250 273 m 1
 334 276 l 1
 332 375 308 415 251 415 c 0
 193 415 169 375 166 276 c 1
 198 275 l 2
 213 274 240 273 246 273 c 2
 250 273 l 1
EndSplineSet
KernsSLIF: 121 -8 0 0 120 -1 0 0 119 -5 0 0 118 -4 0 0 116 5 0 0 39 17 0 0
EndChar
StartChar: f
Encoding: 102 102 71
Width: 389
Flags: W
HStem: 0 21G<165.5 182> 372 62<239 299.244> 634 86<298 339>
VStem: 117 122<100 372 435 542>
Fore
239 542 m 2
 239 434 l 1
 280 434 305 435 370 438 c 1
 374 430 l 1
 363 372 l 1
 239 372 l 1
 239 100 l 2
 239 76 240 64 242 55 c 0
 245 44 262 37 289 36 c 2
 334 34 l 1
 334 -3 l 1
 189 0 189 0 175 0 c 0
 156 0 156 0 34 -3 c 1
 34 34 l 1
 75 36 l 2
 112 38 117 45 117 100 c 2
 117 372 l 1
 38 367 l 1
 38 391 l 1
 71 407 91 418 117 436 c 1
 117 479 l 2
 117 558 124 576 172 616 c 2
 246 678 l 2
 284 710 307 720 339 720 c 0
 354 720 364 718 381 714 c 1
 381 617 l 1
 365 610 l 1
 335 628 319 634 298 634 c 0
 275 634 257 626 249 611 c 0
 242 598 239 580 239 542 c 2
EndSplineSet
KernsSLIF: 116 16 0 0 115 2 0 0 39 19 0 0 249 -1 0 0 250 -16 0 0 351 -12 0 0 352 -12 0 0 111 -12 0 0 108 23 0 0 106 15 0 0 105 15 0 0 102 10 0 0 335 -14 0 0 101 -14 0 0 328 -13 0 0 241 -16 0 0 322 -2 0 0 323 -13 0 0 97 -13 0 0
EndChar
StartChar: g
Encoding: 103 103 72
Width: 556
Flags: W
HStem: -266 50<242 274> -15 93<217 272> 145 46<239 264> 421 50<238 266>
VStem: 26 94<-126 -110> 47 123<290 311> 334 123<299 325> 424 111<-95 -42>
Fore
529 368 m 1xf4
 452 372 l 1
 456 353 457 341 457 325 c 0
 457 275 444 240 413 209 c 0
 372 168 308 145 239 145 c 0
 227 145 217 146 199 147 c 1
 179 135 170 123 170 108 c 0xf6
 170 88 186 78 217 78 c 0
 228 78 264 79 363 82 c 2
 387 82 l 2
 488 82 535 42 535 -42 c 0
 535 -175 417 -266 242 -266 c 0
 110 -266 26 -211 26 -124 c 0xf9
 26 -97 37 -71 52 -62 c 2
 133 -14 l 1
 83 -1 65 17 65 53 c 0
 65 73 72 94 82 101 c 2
 153 155 l 1
 118 167 103 176 84 196 c 0
 60 222 47 255 47 292 c 0
 47 397 136 471 264 471 c 0
 328 471 375 458 416 428 c 1
 432 427 444 427 452 427 c 0
 474 427 493 428 534 432 c 1
 529 368 l 1xf4
252 421 m 0
 198 421 170 383 170 311 c 0
 170 236 202 191 254 191 c 0
 307 191 334 228 334 299 c 0
 334 378 305 421 252 421 c 0
272 -15 m 0
 223 -15 187 -19 171 -26 c 0
 141 -41 120 -75 120 -112 c 0
 120 -174 179 -216 268 -216 c 0
 357 -216 424 -164 424 -95 c 0xf9
 424 -31 394 -15 272 -15 c 0
EndSplineSet
KernsSLIF: 114 13 0 0 351 -12 0 0 352 -12 0 0 108 10 0 0 335 -14 0 0 101 -14 0 0 328 -4 0 0 241 -9 0 0 322 -4 0 0 97 -4 0 0
EndChar
StartChar: h
Encoding: 104 104 73
Width: 611
Flags: W
HStem: 0 21G<478 493> 385 86<302 367>
VStem: 95 122<100 319 100 714> 396 122<-3 288>
DStem: 209 720 209 720 137 698 217 714
Fore
209 720 m 1
 217 714 l 1
 217 390 l 1
 297 452 l 2
 313 465 337 471 367 471 c 0
 416 471 457 456 483 429 c 0
 509 401 518 363 518 286 c 2
 518 100 l 2
 518 46 523 38 554 36 c 2
 587 34 l 1
 587 -3 l 1
 500 0 500 0 486 0 c 0
 470 0 453 -1 396 -3 c 1
 396 269 l 2
 396 350 368 385 302 385 c 0
 258 385 217 352 217 317 c 2
 217 100 l 2
 217 46 222 38 253 36 c 2
 288 34 l 1
 288 -3 l 1
 221 -1 173 0 153 0 c 2
 24 -3 l 1
 24 34 l 1
 59 36 l 2
 90 38 95 46 95 100 c 2
 95 568 l 2
 95 627 92 636 69 638 c 2
 24 641 l 1
 24 677 l 1
 78 684 111 690 137 698 c 2
 209 720 l 1
EndSplineSet
KernsSLIF: 121 -27 0 0 39 -6 0 0
EndChar
StartChar: i
Encoding: 105 105 74
Width: 333
Flags: W
HStem: 556 150<149.875 165>
VStem: 105 122<100 350>
DStem: 217 471 217 471 147 449 227 465
Fore
217 471 m 1
 227 465 l 1
 227 100 l 2
 227 46 232 38 263 36 c 2
 298 34 l 1
 298 -3 l 1
 231 -1 183 0 163 0 c 2
 34 -3 l 1
 34 34 l 1
 69 36 l 2
 100 38 105 46 105 100 c 2
 105 319 l 2
 105 378 102 387 79 389 c 2
 34 392 l 1
 34 428 l 1
 41 429 46 430 49 430 c 0
 91 435 115 439 147 449 c 2
 217 471 l 1
163 706 m 0
 204 706 237 672 237 631 c 0
 237 590 203 556 162 556 c 0
 120 556 87 590 87 632 c 0
 87 674 120 706 163 706 c 0
EndSplineSet
KernsSLIF: 106 -30 0 0 84 -15 0 0
EndChar
StartChar: j
Encoding: 106 106 75
Width: 333
Flags: W
HStem: -266 43<7 45> 556 150<162 177>
VStem: 105 122<-38 343>
DStem: 217 471 217 471 147 449 227 465
Fore
7 -223 m 1
 30 -223 l 2
 84 -223 105 -170 105 -38 c 2
 105 319 l 2
 105 378 102 387 79 389 c 2
 34 392 l 1
 34 428 l 1
 52 430 l 2
 90 435 121 441 147 449 c 2
 217 471 l 1
 227 465 l 1
 227 98 l 2
 227 -55 214 -123 175 -181 c 0
 139 -235 91 -266 45 -266 c 0
 42 -266 29 -265 13 -264 c 1
 3 -229 l 1
 7 -223 l 1
167 706 m 0
 208 706 241 672 241 631 c 0
 241 590 207 556 166 556 c 0
 124 556 91 590 91 632 c 0
 91 674 124 706 167 706 c 0
EndSplineSet
EndChar
StartChar: k
Encoding: 107 107 76
Width: 611
Flags: W
HStem: 0 34<586.5 597> 421 38<435 565>
VStem: 100 122<100 226 100 714>
DStem: 214 720 214 720 142 698 222 714 232 226 346 286 338 106 542 66
Fore
214 720 m 1
 222 714 l 1
 222 249 l 1
 278 297 305 322 328 346 c 2
 435 459 l 1
 565 459 l 1
 565 421 l 1
 534 421 l 2
 519 421 502 415 486 403 c 2
 424 358 l 2
 413 351 384 324 354 294 c 2
 346 286 l 1
 542 66 l 2
 560 46 576 36 597 34 c 1
 597 0 l 1
 425 0 l 1
 410 19 353 89 338 106 c 2
 232 226 l 1
 222 226 l 1
 222 100 l 2
 222 46 227 38 258 36 c 2
 293 34 l 1
 293 -3 l 1
 226 -1 178 0 158 0 c 2
 29 -3 l 1
 29 34 l 1
 64 36 l 2
 95 38 100 46 100 100 c 2
 100 568 l 2
 100 627 96 637 74 638 c 2
 21 641 l 1
 21 677 l 1
 79 683 113 689 142 698 c 2
 214 720 l 1
EndSplineSet
KernsSLIF: 362 4 0 0 117 4 0 0 115 13 0 0 46 11 0 0 351 -16 0 0 352 -16 0 0 111 -16 0 0 45 -37 0 0 335 -15 0 0 101 -15 0 0 44 7 0 0 328 7 0 0 241 3 0 0 322 7 0 0 323 7 0 0 97 7 0 0
EndChar
StartChar: l
Encoding: 108 108 77
Width: 333
Flags: W
VStem: 103 122<100 590>
DStem: 217 720 217 720 145 698 225 714
Fore
217 720 m 1
 225 714 l 1
 225 100 l 2
 225 46 230 38 261 36 c 2
 296 34 l 1
 296 -3 l 1
 229 -1 181 0 161 0 c 2
 32 -3 l 1
 32 34 l 1
 67 36 l 2
 98 38 103 46 103 100 c 2
 103 568 l 2
 103 627 99 637 77 638 c 2
 24 641 l 1
 24 677 l 1
 82 683 116 689 145 698 c 2
 217 720 l 1
EndSplineSet
KernsSLIF: 121 -19 0 0 118 -20 0 0
EndChar
StartChar: m
Encoding: 109 109 78
Width: 889
Flags: W
HStem: 0 21G<433.5 458> 385 86<298 368 587 652>
VStem: 95 122<100 321> 384 122<100 288> 673 122<-3 288>
CounterMasks: 1 00
Fore
24 392 m 1
 24 428 l 1
 79 431 107 437 211 471 c 1
 217 465 l 1
 217 390 l 1
 297 452 l 2
 314 465 336 471 368 471 c 0
 437 471 477 447 500 390 c 1
 580 452 l 2
 597 465 619 471 652 471 c 0
 759 471 795 424 795 286 c 2
 795 100 l 2
 795 46 800 38 831 36 c 2
 864 34 l 1
 864 -3 l 1
 823 -1 816 -1 766 0 c 1
 673 -3 l 1
 673 269 l 2
 673 347 645 385 587 385 c 0
 547 385 506 350 506 317 c 2
 506 100 l 2
 506 46 511 38 542 36 c 2
 577 34 l 1
 577 -3 l 1
 470 0 470 0 446 0 c 0
 421 0 421 0 317 -3 c 1
 317 34 l 1
 348 36 l 2
 380 38 384 46 384 100 c 2
 384 269 l 2
 384 347 356 385 298 385 c 0
 258 385 217 350 217 317 c 2
 217 100 l 2
 217 46 221 38 253 36 c 2
 280 34 l 1
 280 -3 l 1
 219 -1 176 0 153 0 c 2
 24 -3 l 1
 24 34 l 1
 59 36 l 2
 90 38 95 46 95 100 c 2
 95 319 l 2
 95 378 92 387 69 389 c 2
 24 392 l 1
EndSplineSet
KernsSLIF: 121 -26 0 0 119 -25 0 0 118 -24 0 0 112 -23 0 0
EndChar
StartChar: n
Encoding: 110 110 79
Width: 611
Flags: W
HStem: 0 21G<478 493> 385 86<302 367>
VStem: 95 122<100 321> 396 122<-3 288>
Fore
24 392 m 1
 24 428 l 1
 79 431 107 437 211 471 c 1
 217 465 l 1
 217 390 l 1
 297 452 l 2
 313 465 337 471 367 471 c 0
 416 471 457 456 483 429 c 0
 509 401 518 363 518 286 c 2
 518 100 l 2
 518 46 523 38 554 36 c 2
 587 34 l 1
 587 -3 l 1
 500 0 500 0 486 0 c 0
 470 0 453 -1 396 -3 c 1
 396 270 l 2
 396 350 368 385 302 385 c 0
 258 385 217 352 217 317 c 2
 217 100 l 2
 217 46 222 38 253 36 c 2
 288 34 l 1
 288 -3 l 1
 221 -1 173 0 153 0 c 2
 24 -3 l 1
 24 34 l 1
 59 36 l 2
 90 38 95 46 95 100 c 2
 95 319 l 2
 95 378 92 387 69 389 c 2
 24 392 l 1
EndSplineSet
KernsSLIF: 121 -27 0 0 119 -25 0 0 118 -24 0 0 39 -6 0 0 112 -22 0 0 84 -58 0 0
EndChar
StartChar: o
Encoding: 111 111 80
Width: 556
Flags: W
HStem: -17 48<267 289> 423 48<263 289>
VStem: 40 136<222 250> 381 136<205 240>
Fore
287 471 m 0
 435 471 517 388 517 236 c 0
 517 74 427 -17 267 -17 c 0
 122 -17 40 70 40 224 c 0
 40 383 128 471 287 471 c 0
275 423 m 0
 206 423 176 369 176 248 c 0
 176 104 213 31 285 31 c 0
 353 31 381 83 381 205 c 0
 381 352 347 423 275 423 c 0
EndSplineSet
KernsSLIF: 121 -22 0 0 120 -16 0 0 119 -19 0 0 118 -18 0 0 116 -2 0 0 39 6 0 0 84 -89 0 0
EndChar
StartChar: p
Encoding: 112 112 81
Width: 611
Flags: W
HStem: -17 68<309 325> 381 90<318 386>
VStem: 100 122<-155 -1 -155 331> 441 126<221 286>
DStem: 212 471 212 471 142 449 222 465
Fore
212 471 m 1
 222 465 l 1
 222 383 l 1
 283 432 l 2
 318 460 347 471 386 471 c 0
 490 471 567 392 567 286 c 0
 567 196 531 118 465 68 c 0
 460 64 454 59 448 55 c 0
 380 1 345 -17 311 -17 c 0
 287 -17 271 -14 222 0 c 1
 222 -155 l 2
 222 -209 227 -218 258 -219 c 2
 303 -221 l 1
 303 -258 l 1
 173 -255 171 -255 158 -255 c 2
 29 -258 l 1
 29 -221 l 1
 64 -219 l 2
 95 -217 100 -209 100 -155 c 2
 100 319 l 2
 100 378 97 387 74 389 c 2
 29 392 l 1
 29 428 l 1
 40 429 l 2
 91 436 108 439 142 449 c 2
 212 471 l 1
222 331 m 1
 222 106 l 1
 249 68 281 51 323 51 c 0
 396 51 441 117 441 221 c 0
 441 321 395 381 318 381 c 0
 277 381 244 364 222 331 c 1
EndSplineSet
KernsSLIF: 121 -17 0 0
EndChar
StartChar: q
Encoding: 113 113 82
Width: 611
Flags: W
HStem: -17 95<240 294> 407 64<284 323>
VStem: 52 126<212 255> 396 122<-155 75 157 344>
Fore
396 75 m 1
 300 -2 l 2
 288 -12 267 -17 240 -17 c 0
 124 -17 52 71 52 212 c 0
 52 311 82 362 169 411 c 0
 249 456 288 471 323 471 c 0
 353 471 396 458 439 437 c 2
 461 426 l 1
 513 468 l 1
 534 454 l 1
 522 395 518 362 518 324 c 2
 518 -155 l 2
 518 -209 523 -217 554 -219 c 2
 589 -221 l 1
 589 -258 l 1
 522 -256 474 -255 454 -255 c 2
 325 -258 l 1
 325 -221 l 1
 360 -219 l 2
 391 -217 396 -209 396 -155 c 2
 396 75 l 1
396 160 m 2
 396 344 l 1
 363 387 327 407 284 407 c 0
 213 407 178 356 178 255 c 0
 178 147 223 78 294 78 c 0
 349 78 396 115 396 160 c 2
EndSplineSet
KernsSLIF: 117 -13 0 0 99 -18 0 0
EndChar
StartChar: r
Encoding: 114 114 83
Width: 389
Flags: W
HStem: 362 109<303 352>
VStem: 101 122<100 302>
DStem: 213 471 213 471 143 449 223 465
Fore
213 471 m 1
 223 465 l 1
 223 370 l 1
 267 418 l 2
 305 459 324 471 352 471 c 0
 366 471 379 469 389 465 c 1
 384 336 l 1
 360 326 l 1
 346 350 328 362 303 362 c 0
 264 362 223 329 223 298 c 2
 223 100 l 2
 223 44 228 38 271 36 c 2
 310 34 l 1
 310 -3 l 1
 175 0 172 0 159 0 c 2
 30 -3 l 1
 30 34 l 1
 65 36 l 2
 96 38 101 46 101 100 c 2
 101 319 l 2
 101 378 98 387 75 389 c 2
 30 392 l 1
 30 428 l 1
 93 436 111 439 143 449 c 2
 213 471 l 1
EndSplineSet
KernsSLIF: 122 10 0 0 121 34 0 0 120 28 0 0 119 32 0 0 118 33 0 0 117 26 0 0 116 26 0 0 59 6 0 0 115 17 0 0 114 23 0 0 39 45 0 0 46 -21 0 0 112 24 0 0 249 9 0 0 353 9 0 0 250 5 0 0 351 9 0 0 354 9 0 0 352 9 0 0 111 9 0 0 110 26 0 0 109 26 0 0 108 -12 0 0 107 -10 0 0 106 21 0 0 105 21 0 0 45 20 0 0 104 -8 0 0 103 12 0 0 102 19 0 0 336 8 0 0 337 8 0 0 335 8 0 0 101 8 0 0 100 6 0 0 44 -25 0 0 58 17 0 0 332 7 0 0 99 7 0 0 328 -5 0 0 324 -5 0 0 241 -7 0 0 322 -5 0 0 325 -5 0 0 323 -5 0 0 97 -5 0 0
EndChar
StartChar: s
Encoding: 115 115 84
Width: 444
Flags: W
HStem: -17 48<182 216> 423 48<227 247>
VStem: 39 102<317 358> 294 111<108 155>
DStem: 46 152 85 152 39 11 90 83
Fore
362 326 m 1
 326 326 l 1
 316 384 l 1
 313 404 269 423 229 423 c 0
 175 423 141 398 141 358 c 0
 141 327 157 311 196 302 c 2
 278 284 l 2
 368 264 405 227 405 155 c 0
 405 52 320 -17 194 -17 c 0
 141 -17 96 -9 39 11 c 1
 46 152 l 1
 85 152 l 1
 90 83 l 1
 122 46 155 31 202 31 c 0
 258 31 294 61 294 108 c 0
 294 143 277 160 231 171 c 2
 145 192 l 2
 75 209 39 251 39 317 c 0
 39 417 112 471 247 471 c 0
 300 471 331 465 370 448 c 1
 362 326 l 1
EndSplineSet
KernsSLIF: 116 -10 0 0 39 7 0 0
EndChar
StartChar: t
Encoding: 116 116 85
Width: 333
Flags: W
HStem: -17 83<210 270>
VStem: 86 122<110 369 429 528>
Fore
324 60 m 1
 275 1 l 2
 266 -10 241 -17 210 -17 c 0
 123 -17 86 21 86 110 c 2
 86 369 l 1
 22 365 l 1
 22 387 l 1
 88 430 l 1
 88 490 l 2
 88 511 87 530 84 582 c 1
 135 601 166 613 206 632 c 1
 220 622 l 1
 211 572 208 539 208 486 c 2
 208 428 l 1
 322 434 l 1
 314 369 l 1
 208 369 l 1
 208 131 l 2
 208 82 223 66 270 66 c 0
 286 66 296 69 316 79 c 1
 324 60 l 1
EndSplineSet
KernsSLIF: 59 4 0 0 39 22 0 0 351 -4 0 0 352 -4 0 0 111 -4 0 0 104 18 0 0 335 -4 0 0 101 -4 0 0 58 15 0 0 328 12 0 0 241 9 0 0 322 12 0 0 323 12 0 0 97 12 0 0 83 8 0 0
EndChar
StartChar: u
Encoding: 117 117 86
Width: 611
Flags: W
HStem: -17 90<246 296>
VStem: 96 122<140 352> 392 122<158 465>
DStem: 208 471 208 471 138 449 218 465 504 471 504 471 434 449 514 465
Fore
392 80 m 1
 316 6 l 2
 301 -9 275 -17 246 -17 c 0
 150 -17 96 39 96 140 c 2
 96 319 l 2
 96 378 93 387 70 389 c 2
 25 392 l 1
 25 428 l 1
 88 436 105 439 138 449 c 2
 208 471 l 1
 218 465 l 1
 218 204 l 2
 218 108 239 73 296 73 c 0
 349 73 392 114 392 163 c 2
 392 319 l 2
 392 378 389 387 366 389 c 2
 321 392 l 1
 321 428 l 1
 383 436 401 439 434 449 c 2
 504 471 l 1
 514 465 l 1
 514 100 l 2
 514 46 519 38 550 36 c 2
 583 34 l 1
 583 -3 l 1
 562 -2 543 -2 536 -2 c 0
 508 0 491 0 481 0 c 0
 470 0 470 0 387 -3 c 1
 392 80 l 1
EndSplineSet
KernsSLIF: 39 1 0 0
EndChar
StartChar: v
Encoding: 118 118 87
Width: 556
Flags: W
HStem: -3 21G<227 313>
DStem: 84 357 220 351 227 -3 308 130
Fore
227 -3 m 1
 84 357 l 1
 66 400 53 417 36 419 c 2
 11 421 l 1
 11 459 l 1
 112 456 128 456 141 456 c 2
 270 459 l 1
 270 421 l 1
 229 419 l 2
 214 418 206 412 206 402 c 0
 206 391 210 376 220 351 c 2
 308 130 l 1
 325 167 334 188 343 210 c 2
 404 361 l 2
 410 376 413 390 413 402 c 0
 413 411 404 418 390 419 c 2
 352 421 l 1
 352 459 l 1
 389 457 398 457 449 456 c 1
 545 459 l 1
 545 421 l 1
 515 416 l 2
 498 413 488 404 479 382 c 1
 351 94 l 2
 339 67 329 42 313 -3 c 1
 227 -3 l 1
EndSplineSet
KernsSLIF: 59 -4 0 0 115 -3 0 0 46 -59 0 0 249 -22 0 0 353 -22 0 0 351 -22 0 0 352 -22 0 0 111 -22 0 0 108 -17 0 0 45 -13 0 0 103 -10 0 0 336 -27 0 0 337 -27 0 0 335 -27 0 0 101 -27 0 0 44 -70 0 0 58 10 0 0 99 -39 0 0 327 -19 0 0 328 -19 0 0 324 -19 0 0 241 -20 0 0 322 -19 0 0 325 -19 0 0 323 -19 0 0 97 -19 0 0
EndChar
StartChar: w
Encoding: 119 119 88
Width: 833
Flags: W
HStem: -3 21G<194 273 542 623> 419 37<230.921 237>
DStem: 87 381 220 378 194 -3 279 151 410 304 473 471 542 -3 611 154 686 379 750 372 650 266 658 112
Fore
194 -3 m 1
 87 381 l 1
 79 408 69 417 46 419 c 2
 13 421 l 1
 13 459 l 1
 119 456 135 456 149 456 c 2
 284 459 l 1
 284 421 l 1
 237 419 l 2
 226 419 218 410 218 397 c 0
 218 392 219 382 220 378 c 2
 279 151 l 1
 284 163 290 176 296 188 c 0
 300 197 303 205 307 213 c 2
 336 276 l 1
 423 471 l 1
 473 471 l 1
 611 154 l 1
 628 200 638 227 650 266 c 1
 686 379 l 2
 687 383 689 394 689 398 c 0
 689 410 677 418 660 419 c 2
 618 421 l 1
 618 459 l 1
 702 456 702 456 719 456 c 0
 736 456 736 456 820 459 c 1
 820 421 l 1
 786 419 l 2
 772 418 762 405 750 372 c 2
 658 112 l 2
 654 100 647 77 637 44 c 0
 636 40 632 26 623 -3 c 1
 542 -3 l 1
 410 304 l 1
 334 154 323 130 273 -3 c 1
 194 -3 l 1
EndSplineSet
KernsSLIF: 59 -5 0 0 115 -4 0 0 46 -47 0 0 249 -23 0 0 353 -23 0 0 351 -23 0 0 352 -23 0 0 111 -23 0 0 108 -18 0 0 45 -8 0 0 103 -11 0 0 336 -28 0 0 337 -28 0 0 335 -28 0 0 101 -28 0 0 44 -57 0 0 58 9 0 0 99 -36 0 0 327 -20 0 0 328 -20 0 0 324 -20 0 0 241 -21 0 0 322 -20 0 0 325 -20 0 0 323 -20 0 0 97 -20 0 0
EndChar
StartChar: x
Encoding: 120 120 89
Width: 500
Flags: W
HStem: 0 34<21 36.5> 422 37<446 483>
DStem: 200 210 228 166 90 70 164 78 228 166 308 265 328 -3 397 113
Fore
200 210 m 1
 120 346 l 2
 94 390 76 404 43 404 c 0
 40 404 33 404 28 403 c 1
 20 439 l 1
 57 446 131 462 166 471 c 1
 186 455 204 432 228 394 c 2
 280 309 l 1
 388 459 l 1
 483 459 l 1
 483 422 l 1
 446 421 436 415 405 379 c 2
 308 265 l 1
 397 113 l 1
 432 56 452 37 483 34 c 1
 483 -3 l 1
 454 -1 446 -1 406 0 c 1
 328 -3 l 1
 228 166 l 1
 164 78 l 2
 152 61 141 45 112 0 c 1
 21 0 l 1
 21 34 l 1
 52 36 70 46 90 70 c 1
 200 210 l 1
EndSplineSet
KernsSLIF: 113 -19 0 0 111 -17 0 0 335 -17 0 0 101 -17 0 0 99 -15 0 0 97 6 0 0
EndChar
StartChar: y
Encoding: 121 121 90
Width: 556
Flags: W
HStem: -266 79<104 130>
DStem: 87 364 231 343 245 -40 315 125
Fore
275 421 m 1
 240 419 l 2
 225 418 214 409 214 396 c 0
 214 386 217 377 225 358 c 0
 228 351 231 344 231 343 c 1
 315 125 l 1
 416 377 l 2
 418 382 420 393 420 399 c 0
 420 410 409 418 393 419 c 2
 360 421 l 1
 360 459 l 1
 419 457 450 456 453 456 c 2
 546 459 l 1
 546 421 l 1
 520 416 l 2
 506 413 491 396 479 369 c 2
 280 -94 l 2
 229 -212 174 -266 104 -266 c 0
 81 -266 58 -261 31 -249 c 1
 49 -154 l 1
 60 -150 l 1
 83 -176 104 -187 130 -187 c 0
 164 -187 199 -153 222 -96 c 2
 245 -40 l 1
 87 364 l 2
 72 402 60 418 45 419 c 2
 10 421 l 1
 10 459 l 1
 114 456 130 456 143 456 c 2
 275 459 l 1
 275 421 l 1
EndSplineSet
KernsSLIF: 59 -7 0 0 115 -8 0 0 46 -57 0 0 249 -28 0 0 353 -28 0 0 351 -28 0 0 352 -28 0 0 111 -28 0 0 108 -17 0 0 45 -11 0 0 103 -15 0 0 336 -34 0 0 337 -34 0 0 335 -34 0 0 101 -34 0 0 44 -67 0 0 58 7 0 0 99 -37 0 0 327 -27 0 0 328 -27 0 0 324 -27 0 0 241 -28 0 0 322 -27 0 0 325 -27 0 0 323 -27 0 0 97 -27 0 0
EndChar
StartChar: z
Encoding: 122 122 91
Width: 500
Flags: W
HStem: -3 58<186 447> 404 50<192.403 290>
DStem: 290 404 454 424 120 166 186 55
Fore
454 424 m 1
 186 55 l 1
 349 55 l 2
 397 55 410 67 419 124 c 2
 424 155 l 1
 464 155 l 1
 457 107 452 46 452 2 c 1
 447 -3 l 1
 174 0 l 2
 134 0 134 0 16 -3 c 1
 16 30 l 1
 81 113 99 137 120 166 c 2
 290 404 l 1
 172 404 l 2
 116 404 102 393 96 345 c 2
 93 320 l 1
 55 320 l 1
 58 454 l 1
 65 459 l 1
 209 455 269 454 301 454 c 0
 346 454 381 455 454 459 c 1
 454 424 l 1
EndSplineSet
EndChar
StartChar: braceleft
Encoding: 123 123 92
Width: 310
Flags: W
VStem: 96 97<-6 192 410 608>
Fore
5 301 m 1
 5 303 l 1
 81 323 96 342 96 414 c 2
 96 592 l 2
 96 647 112 682 144 702 c 0
 172 719 206 725 288 725 c 1
 288 723 l 1
 212 702 193 678 193 606 c 2
 193 429 l 2
 193 348 172 321 91 302 c 1
 172 284 193 256 193 169 c 2
 193 2 l 2
 193 -70 212 -94 288 -115 c 1
 288 -117 l 1
 206 -117 172 -111 144 -94 c 0
 112 -74 96 -39 96 16 c 2
 96 190 l 2
 96 262 81 281 5 301 c 1
EndSplineSet
EndChar
StartChar: bar
Encoding: 124 124 93
Width: 606
Flags: W
HStem: 0 21G<260 346>
VStem: 260 86<0 720>
Fore
260 0 m 1
 260 720 l 1
 346 720 l 1
 346 0 l 1
 260 0 l 1
EndSplineSet
EndChar
StartChar: braceright
Encoding: 125 125 94
Width: 310
Flags: W
VStem: 117 97<-6 192 410 608>
Fore
305 303 m 1
 305 301 l 1
 229 281 214 262 214 190 c 2
 214 16 l 2
 214 -39 198 -74 166 -94 c 0
 138 -111 104 -117 22 -117 c 1
 22 -115 l 1
 98 -94 117 -70 117 2 c 2
 117 169 l 2
 117 257 138 284 219 302 c 1
 138 321 117 348 117 429 c 2
 117 606 l 2
 117 678 98 702 22 723 c 1
 22 725 l 1
 111 725 150 717 177 694 c 0
 202 673 214 640 214 592 c 2
 214 414 l 2
 214 342 229 323 305 303 c 1
EndSplineSet
EndChar
StartChar: asciitilde
Encoding: 126 126 95
Width: 606
Flags: W
Fore
494 326 m 1
 555 287 l 1
 508 207 467 174 413 174 c 0
 385 174 366 180 304 207 c 0
 237 236 216 243 195 243 c 0
 163 243 142 226 112 177 c 1
 51 216 l 1
 98 296 139 329 193 329 c 0
 221 329 240 323 302 296 c 0
 369 267 390 260 411 260 c 0
 443 260 464 277 494 326 c 1
EndSplineSet
EndChar
StartChar: exclamdown
Encoding: 161 161 96
Width: 278
Flags: W
HStem: 315 156<134 140>
DStem: 159 262 159 262 121 241 164 254
Fore
115 -227 m 1
 64 -227 l 1
 64 -193 66 -171 71 -131 c 1
 121 241 l 1
 159 262 l 1
 164 254 l 1
 211 -104 l 1
 212 -105 214 -136 214 -164 c 1
 215 -183 l 1
 115 -227 l 1
138 471 m 0
 178 471 215 433 215 392 c 0
 215 351 178 315 136 315 c 0
 95 315 59 350 59 392 c 0
 59 434 96 471 138 471 c 0
EndSplineSet
EndChar
StartChar: cent
Encoding: 162 162 97
Width: 500
Flags: W
HStem: -17 72<299 358>
VStem: 73 123<214 263>
DStem: 192 0 230 -11 156 -106 198 -106 313 400 353 389 230 124 262 87 362 554 403 554 336 476 378 473
Fore
403 554 m 1
 378 473 l 1
 411 465 426 460 441 453 c 1
 446 444 l 1
 437 404 431 351 428 296 c 1
 390 296 l 1
 384 356 l 1
 383 369 368 385 353 389 c 1
 262 87 l 1
 290 64 317 55 358 55 c 0
 391 55 411 60 441 75 c 1
 450 64 l 1
 429 17 l 1
 425 13 l 1
 379 -8 342 -17 299 -17 c 0
 285 -17 272 -16 240 -12 c 2
 230 -11 l 1
 198 -106 l 1
 156 -106 l 1
 192 0 l 1
 109 42 73 106 73 214 c 0
 73 265 82 307 102 343 c 0
 113 363 128 377 166 401 c 2
 218 434 l 2
 260 460 303 475 336 476 c 1
 362 554 l 1
 403 554 l 1
230 124 m 1
 313 400 l 1
 305 401 297 401 292 401 c 0
 228 401 196 355 196 263 c 0
 196 209 205 174 230 124 c 1
EndSplineSet
EndChar
StartChar: sterling
Encoding: 163 163 98
Width: 500
Flags: W
HStem: -16 108<381 415> 32 80<113 221> 320 43<16 106 236 404> 610 66<355 404>
Fore
16 363 m 1xb0
 106 363 l 1
 106 406 l 2
 106 461 124 508 161 550 c 0
 221 619 331 676 404 676 c 0
 431 676 459 666 480 649 c 1
 470 513 l 1
 439 513 l 1
 436 548 l 1
 433 586 401 610 355 610 c 0
 283 610 253 570 244 463 c 1
 236 363 l 1
 404 363 l 1
 404 320 l 1
 231 320 l 1
 212 223 179 157 117 93 c 1
 167 108 191 112 221 112 c 0x70
 240 112 243 112 318 101 c 0
 371 93 384 92 406 92 c 0
 433 92 452 104 456 122 c 1
 467 178 l 1
 501 178 l 1
 491 -1 l 1
 462 -11 437 -16 408 -16 c 0xb0
 362 -16 308 -7 246 10 c 0
 195 24 149 32 113 32 c 0x70
 98 32 85 26 62 7 c 0
 45 -8 32 -15 18 -19 c 1
 -2 40 l 1
 62 92 l 1
 98 124 103 149 106 320 c 1
 16 320 l 1
 16 363 l 1xb0
EndSplineSet
EndChar
StartChar: fraction
Encoding: 164 8260 99
Width: 167
Flags: W
HStem: 0 21G<-152 -83> 640 20G<251 320>
DStem: 251 660 320 660 -152 0 -83 0
Fore
-83 0 m 1
 -152 0 l 1
 251 660 l 1
 320 660 l 1
 -83 0 l 1
EndSplineSet
EndChar
StartChar: yen
Encoding: 165 165 100
Width: 500
Flags: W
HStem: 0 21G<257 282> 206 40<66 215 317 466> 342 40<66 191 348 466>
VStem: 215 102<135 206 246 288>
Fore
215 206 m 1
 66 206 l 1
 66 246 l 1
 215 246 l 1
 215 286 l 2
 215 297 209 312 196 334 c 0
 193 338 192 339 191 342 c 1
 66 342 l 1
 66 382 l 1
 174 382 l 1
 111 522 l 1
 70 603 52 623 17 622 c 1
 17 659 l 1
 132 695 l 1
 164 669 183 637 214 559 c 2
 294 356 l 1
 427 678 l 1
 483 678 l 1
 483 659 l 1
 348 382 l 1
 466 382 l 1
 466 342 l 1
 332 342 l 1
 321 318 317 303 317 284 c 2
 317 246 l 1
 466 246 l 1
 466 206 l 1
 317 206 l 1
 317 135 l 2
 317 45 317 44 352 40 c 2
 378 37 l 1
 378 -3 l 1
 302 0 295 0 269 0 c 0
 245 0 221 -1 154 -3 c 1
 154 37 l 1
 180 40 l 2
 214 44 215 46 215 135 c 2
 215 206 l 1
EndSplineSet
EndChar
StartChar: florin
Encoding: 166 402 101
Width: 500
Flags: W
HStem: 368 44<107 207 338 439>
DStem: 207 368 329 368 134 -114 277 58
Fore
95 368 m 1
 108 412 l 1
 213 412 l 1
 229 482 258 550 289 592 c 1
 344 662 415 701 490 703 c 1
 483 620 l 1
 473 620 l 1
 452 635 439 640 424 640 c 0
 391 640 370 616 363 570 c 1
 338 412 l 1
 452 412 l 1
 439 368 l 1
 329 368 l 1
 277 58 l 1
 246 -116 140 -235 11 -242 c 1
 16 -214 18 -194 19 -154 c 1
 33 -146 l 1
 42 -161 62 -171 82 -171 c 0
 106 -171 129 -146 134 -114 c 2
 207 368 l 1
 95 368 l 1
EndSplineSet
EndChar
StartChar: section
Encoding: 167 167 102
Width: 500
Flags: W
HStem: -217 61<208 241> -37 20G<63 102> 626 69<261 294>
VStem: 30 74<233 280> 61 70<470 532> 375 80<-48 11> 397 74<200 261>
Fore
407 515 m 1xe8
 369 515 l 1
 369 550 367 574 362 595 c 1
 344 614 305 626 261 626 c 0
 186 626 131 586 131 532 c 0
 131 484 160 461 257 432 c 2
 310 416 l 2
 318 414 323 412 324 412 c 2
 328 411 l 2
 430 385 471 342 471 261 c 0xea
 471 203 455 171 400 115 c 1
 440 85 455 56 455 11 c 0
 455 -110 339 -217 208 -217 c 0
 142 -217 103 -206 49 -172 c 1
 57 -92 58 -79 63 -17 c 1
 102 -17 l 1
 101 -26 101 -33 101 -37 c 0
 101 -59 104 -79 110 -101 c 1
 144 -138 186 -156 241 -156 c 0
 311 -156 375 -105 375 -48 c 0
 375 -28 365 -6 347 10 c 0
 328 26 301 39 240 59 c 2
 179 79 l 2
 70 115 30 156 30 233 c 0xf4
 30 281 45 312 89 354 c 2
 108 372 l 1
 76 400 61 431 61 470 c 0
 61 525 93 596 136 636 c 0
 175 672 237 695 294 695 c 0
 337 695 376 685 424 662 c 1
 416 623 412 589 407 515 c 1xe8
235 180 m 2
 368 131 l 1
 389 159 397 178 397 200 c 0
 397 249 364 279 282 307 c 2
 139 355 l 1
 115 326 104 303 104 280 c 0xf2
 104 244 144 214 235 180 c 2
EndSplineSet
EndChar
StartChar: currency
Encoding: 168 164 103
Width: 500
Flags: W
HStem: 102 76<239 257> 447 77<251 257>
VStem: 39 77<303 321> 384 77<314 321>
DStem: 32 484 79 531 81 435 127 483 81 190 125 144 32 141 77 96 375 145 421 189 422 96 467 141
Fore
32 141 m 1
 81 190 l 1
 51 228 39 263 39 313 c 0
 39 365 51 401 81 435 c 1
 32 484 l 1
 79 531 l 1
 127 483 l 1
 164 511 204 524 251 524 c 0
 297 524 334 512 371 484 c 1
 419 533 l 1
 468 484 l 1
 422 436 l 1
 449 401 461 363 461 314 c 0
 461 265 449 227 421 189 c 1
 467 141 l 1
 422 96 l 1
 375 145 l 1
 338 115 301 102 250 102 c 0
 199 102 162 114 125 144 c 1
 77 96 l 1
 32 141 l 1
251 447 m 0
 177 447 116 386 116 312 c 0
 116 240 177 178 249 178 c 0
 324 178 384 239 384 314 c 0
 384 386 324 447 251 447 c 0
EndSplineSet
EndChar
StartChar: quotesingle
Encoding: 169 39 104
Width: 227
Flags: W
HStem: 675 20G<96 130.5>
Fore
136 376 m 1
 90 376 l 1
 46 615 l 1
 45 619 45 621 45 624 c 0
 45 660 79 695 113 695 c 0
 148 695 181 660 181 624 c 0
 181 621 181 618 180 615 c 1
 136 376 l 1
EndSplineSet
EndChar
StartChar: quotedblleft
Encoding: 170 8220 105
Width: 500
Flags: W
Fore
174 668 m 1
 240 695 l 1
 254 679 l 1
 219 600 191 510 180 438 c 1
 131 432 87 421 48 405 c 1
 34 418 l 1
 64 485 118 581 174 668 c 1
386 668 m 1
 452 695 l 1
 466 679 l 1
 431 600 403 510 392 438 c 1
 343 432 299 421 260 405 c 1
 246 418 l 1
 276 485 330 581 386 668 c 1
EndSplineSet
KernsSLIF: 89 20 1 0 87 20 1 0 86 19 1 0 84 20 1 0 262 -87 1 0 256 -87 1 0 257 -87 1 0 225 -117 1 0 65 -87 1 0
EndChar
StartChar: guillemotleft
Encoding: 171 171 106
Width: 500
Flags: W
Fore
234 438 m 1
 261 416 l 1
 151 243 l 1
 261 64 l 1
 234 44 l 1
 144 136 86 190 36 231 c 1
 36 256 l 1
 142 349 183 386 234 438 c 1
436 438 m 1
 463 416 l 1
 353 243 l 1
 463 64 l 1
 436 44 l 1
 346 136 288 190 238 231 c 1
 238 256 l 1
 344 349 385 386 436 438 c 1
EndSplineSet
EndChar
StartChar: guilsinglleft
Encoding: 172 8249 107
Width: 389
Flags: W
Fore
280 438 m 1
 307 416 l 1
 197 243 l 1
 307 64 l 1
 280 44 l 1
 190 136 132 190 82 231 c 1
 82 256 l 1
 188 349 229 386 280 438 c 1
EndSplineSet
EndChar
StartChar: guilsinglright
Encoding: 173 8250 108
Width: 389
Flags: W
Fore
82 416 m 1
 109 438 l 1
 150 396 216 335 307 256 c 1
 307 231 l 1
 258 191 197 134 109 44 c 1
 82 64 l 1
 192 243 l 1
 82 416 l 1
EndSplineSet
KernsSLIF: 89 -129 1 0 87 -77 1 0 86 -122 1 0 84 -124 1 0 262 -73 1 0 256 -73 1 0 257 -73 1 0 225 -86 1 0 65 -73 1 0
EndChar
StartChar: fi
Encoding: 174 64257 109
Width: 611
Flags: W
HStem: 0 21G<142.5 164> 372 62<215 326> 391 43<333 361.29> 556 150<460 475> 634 86<274 315>
VStem: 93 122<100 372 435 542> 402 122<100 334>
Fore
524 471 m 1xce
 524 100 l 2
 524 46 529 38 560 36 c 2
 595 34 l 1
 595 -3 l 1
 528 -1 480 0 460 0 c 2
 331 -3 l 1
 331 34 l 1
 366 36 l 2
 397 38 402 46 402 100 c 2
 402 326 l 2
 402 372 391 391 364 391 c 2
 333 391 l 1xa6
 326 372 l 1
 215 372 l 1
 215 100 l 2
 215 45 219 38 255 36 c 2
 290 34 l 1
 290 -3 l 1
 175 0 175 0 153 0 c 0
 132 0 132 0 10 -3 c 1
 10 34 l 1
 51 36 l 2
 88 38 93 45 93 100 c 2
 93 372 l 1xc6
 14 367 l 1
 14 391 l 1xa6
 47 407 67 418 93 436 c 1
 93 479 l 2
 93 558 100 576 148 616 c 2
 222 678 l 2
 260 710 283 720 315 720 c 0
 330 720 340 718 357 714 c 1
 357 617 l 1
 341 610 l 1
 311 628 295 634 274 634 c 0
 251 634 233 626 225 611 c 0
 218 598 215 580 215 542 c 2
 215 434 l 1
 326 434 l 2
 373 434 411 439 444 449 c 2
 516 471 l 1
 524 471 l 1xce
473 706 m 0x96
 514 706 547 672 547 631 c 0
 547 590 513 556 472 556 c 0
 430 556 397 590 397 632 c 0
 397 674 430 706 473 706 c 0x96
EndSplineSet
Ligature: 0 0 'liga' f i
EndChar
StartChar: fl
Encoding: 175 64258 110
Width: 611
Flags: W
HStem: 0 21G<149.5 171> 372 62<222 275.945> 634 86<274 318>
VStem: 100 122<100 372 435 542> 400 122<100 606>
DStem: 514 720 514 720 453 700 522 714
Fore
347 641 m 1
 347 608 l 1
 332 604 l 1
 315 624 296 634 274 634 c 0
 238 634 222 606 222 542 c 2
 222 434 l 1
 256 434 282 435 343 438 c 1
 347 430 l 1
 336 372 l 1
 222 372 l 1
 222 100 l 2
 222 76 223 64 225 55 c 0
 228 45 243 38 272 36 c 2
 297 34 l 1
 297 -3 l 1
 182 0 182 0 160 0 c 0
 139 0 139 0 17 -3 c 1
 17 34 l 1
 58 36 l 2
 95 38 100 45 100 100 c 2
 100 372 l 1
 21 367 l 1
 21 391 l 1
 54 407 74 418 100 436 c 1
 100 479 l 2
 100 558 107 576 155 616 c 2
 229 678 l 2
 266 709 289 720 318 720 c 0
 325 720 333 719 341 718 c 0
 345 717 345 717 347 717 c 1
 347 680 l 1
 404 688 429 692 453 700 c 2
 514 720 l 1
 522 714 l 1
 522 100 l 2
 522 46 527 38 558 36 c 2
 593 34 l 1
 593 -3 l 1
 526 -1 478 0 458 0 c 2
 329 -3 l 1
 329 34 l 1
 364 36 l 2
 395 38 400 46 400 100 c 2
 400 568 l 2
 400 627 397 635 374 638 c 2
 347 641 l 1
EndSplineSet
Ligature: 0 0 'liga' f l
EndChar
StartChar: endash
Encoding: 177 8211 111
Width: 500
Flags: W
HStem: 208 83<0 500>
Fore
500 208 m 1
 0 208 l 1
 0 291 l 1
 500 291 l 1
 500 208 l 1
EndSplineSet
EndChar
StartChar: dagger
Encoding: 178 8224 112
Width: 500
Flags: W
HStem: -3 21G<245.5 256.5>
DStem: 469 470 469 470 305 462 472 464
Fore
196 462 m 1
 180 675 l 1
 186 682 l 1
 230 680 241 679 251 679 c 0
 261 679 272 680 316 682 c 1
 321 675 l 1
 305 462 l 1
 469 470 l 1
 472 464 l 1
 469 431 469 425 469 418 c 0
 469 411 469 411 472 371 c 1
 469 365 l 1
 305 373 l 1
 323 -1 l 1
 318 -6 l 1
 276 -4 262 -3 251 -3 c 0
 240 -3 226 -4 184 -6 c 1
 178 -1 l 1
 196 373 l 1
 32 365 l 1
 29 371 l 1
 30 387 l 2
 31 403 32 413 32 418 c 0
 32 423 31 433 30 449 c 2
 29 464 l 1
 32 470 l 1
 196 462 l 1
EndSplineSet
EndChar
StartChar: daggerdbl
Encoding: 179 8225 113
Width: 500
Flags: W
DStem: 195 682 195 682 187 677 206 681 461 494 461 494 297 484 468 489 461 494 468 489 297 484 467 477 461 41 461 41 297 31 468 36
Fore
189 220 m 1
 203 403 l 1
 39 394 l 1
 32 399 l 1
 33 407 l 1
 34 418 l 1
 34 423 34 431 35 442 c 1
 35 447 l 1
 32 489 l 1
 39 494 l 1
 203 484 l 1
 187 677 l 1
 195 682 l 1
 206 681 l 2
 228 680 243 679 249 679 c 0
 258 679 258 679 305 682 c 1
 313 677 l 1
 297 484 l 1
 461 494 l 1
 468 489 l 1
 467 477 l 1
 466 462 l 1
 465 451 465 445 465 444 c 1
 468 399 l 1
 461 394 l 1
 297 403 l 1
 311 220 l 1
 297 31 l 1
 461 41 l 1
 468 36 l 1
 466 15 465 0 465 -9 c 1
 468 -54 l 1
 461 -59 l 1
 297 -50 l 1
 313 -240 l 1
 305 -245 l 1
 258 -242 258 -242 250 -242 c 0
 242 -242 242 -242 195 -245 c 1
 187 -240 l 1
 203 -50 l 1
 39 -59 l 1
 32 -54 l 1
 33 -42 l 1
 34 -27 35 -14 35 -10 c 2
 35 -8 l 1
 32 36 l 1
 39 41 l 1
 203 31 l 1
 189 220 l 1
EndSplineSet
EndChar
StartChar: periodcentered
Encoding: 180 183 114
Width: 250
Flags: W
Fore
126 335 m 0
 166 335 203 297 203 256 c 0
 203 215 166 179 124 179 c 0
 83 179 47 214 47 256 c 0
 47 298 84 335 126 335 c 0
EndSplineSet
EndChar
StartChar: paragraph
Encoding: 182 182 115
Width: 641
Flags: W
HStem: -161 50<368 426> -158 47<368 398> 640 39<475 599>
VStem: 19 131<510 531> 280 88<-82 634> 426 88<-111 576>
Fore
195 -120 m 1xbc
 244 -118 l 2
 275 -117 280 -108 280 -54 c 2
 280 324 l 1
 199 330 151 347 97 387 c 0
 46 425 19 474 19 529 c 0
 19 620 104 683 228 683 c 0
 238 683 257 682 284 681 c 0
 323 679 377 678 436 678 c 0
 444 678 459 678 475 679 c 2
 599 681 l 1
 599 640 l 1
 552 640 l 2
 524 640 514 620 514 563 c 2
 514 -54 l 2
 514 -108 519 -117 550 -118 c 2
 599 -120 l 1
 599 -161 l 1xbc
 431 -158 431 -158 397 -158 c 0x7c
 363 -158 363 -158 195 -161 c 1
 195 -120 l 1xbc
426 634 m 1
 368 634 l 1
 368 -111 l 1
 426 -111 l 1
 426 634 l 1
280 371 m 1
 280 634 l 1
 274 635 268 635 265 635 c 0
 199 635 150 583 150 513 c 0
 150 441 197 389 280 371 c 1
EndSplineSet
EndChar
StartChar: bullet
Encoding: 183 8226 116
Width: 606
Flags: W
Fore
303 516 m 0
 397 516 475 438 475 344 c 0
 475 250 397 172 304 172 c 0
 208 172 131 250 131 346 c 0
 131 438 210 516 303 516 c 0
EndSplineSet
EndChar
StartChar: quotesinglbase
Encoding: 184 8218 117
Width: 333
Flags: W
Fore
136 -133 m 1
 70 -160 l 1
 56 -144 l 1
 91 -64 119 25 130 97 c 1
 178 103 224 114 262 130 c 1
 276 117 l 1
 246 50 193 -44 136 -133 c 1
EndSplineSet
EndChar
StartChar: quotedblbase
Encoding: 185 8222 118
Width: 500
Flags: W
Fore
114 -133 m 1
 48 -160 l 1
 34 -144 l 1
 69 -64 97 25 108 97 c 1
 156 103 202 114 240 130 c 1
 254 117 l 1
 224 50 171 -44 114 -133 c 1
326 -133 m 1
 260 -160 l 1
 246 -144 l 1
 281 -64 309 25 320 97 c 1
 368 103 414 114 452 130 c 1
 466 117 l 1
 436 50 383 -44 326 -133 c 1
EndSplineSet
KernsSLIF: 89 -72 1 0 87 -36 1 0 86 -94 1 0 84 -59 1 0 225 14 1 0 65 14 1 0
EndChar
StartChar: quotedblright
Encoding: 186 8221 119
Width: 500
Flags: W
Fore
114 432 m 1
 48 405 l 1
 34 421 l 1
 69 500 97 590 108 662 c 1
 156 668 202 679 240 695 c 1
 254 682 l 1
 224 615 171 521 114 432 c 1
326 432 m 1
 260 405 l 1
 246 421 l 1
 281 500 309 590 320 662 c 1
 368 668 414 679 452 695 c 1
 466 682 l 1
 436 615 383 521 326 432 c 1
EndSplineSet
KernsSLIF: 89 20 1 0 87 20 1 0 86 19 1 0 84 20 1 0 262 -87 1 0 256 -87 1 0 257 -87 1 0 225 -117 1 0 65 -87 1 0
EndChar
StartChar: guillemotright
Encoding: 187 187 120
Width: 500
Flags: W
Fore
37 416 m 1
 64 438 l 1
 105 396 171 335 262 256 c 1
 262 231 l 1
 213 191 152 134 64 44 c 1
 37 64 l 1
 147 243 l 1
 37 416 l 1
239 416 m 1
 266 438 l 1
 307 396 373 335 464 256 c 1
 464 231 l 1
 415 191 354 134 266 44 c 1
 239 64 l 1
 349 243 l 1
 239 416 l 1
EndSplineSet
KernsSLIF: 89 -106 1 0 87 -54 1 0 86 -99 1 0 84 -101 1 0 262 -50 1 0 256 -50 1 0 257 -50 1 0 225 -63 1 0 65 -50 1 0
EndChar
StartChar: ellipsis
Encoding: 188 8230 121
Width: 1000
Flags: W
HStem: -12 21G<145.5 187 478.5 520 811.5 853>
VStem: 89 156<53.3246 68> 422 156<53.3246 68> 755 156<53.3246 68>
CounterMasks: 1 00
Fore
168 144 m 0
 208 144 245 106 245 65 c 0
 245 24 208 -12 166 -12 c 0
 125 -12 89 23 89 65 c 0
 89 107 126 144 168 144 c 0
501 144 m 0
 541 144 578 106 578 65 c 0
 578 24 541 -12 499 -12 c 0
 458 -12 422 23 422 65 c 0
 422 107 459 144 501 144 c 0
834 144 m 0
 874 144 911 106 911 65 c 0
 911 24 874 -12 832 -12 c 0
 791 -12 755 23 755 65 c 0
 755 107 792 144 834 144 c 0
EndSplineSet
Ligature: 0 1 'liga' period period period
EndChar
StartChar: perthousand
Encoding: 189 8240 122
Width: 1000
Flags: W
HStem: 0 29<506 514 835 839> 294 29<496 514 832 839> 377 29<180 184> 671 29<170 184>
VStem: 33 93<518 552> 234 93<518 552> 359 93<150 167> 560 93<150 168> 688 93<150 167> 889 93<150 168>
DStem: 522 724 573 724 119 -9 170 -9
Fore
182 700 m 0
 270 700 327 635 327 534 c 0
 327 441 267 377 180 377 c 0
 92 377 33 441 33 534 c 0
 33 636 90 700 182 700 c 0
181 671 m 0
 141 671 126 635 126 538 c 0
 126 452 145 406 180 406 c 0
 216 406 234 452 234 541 c 0
 234 633 218 671 181 671 c 0
508 323 m 0
 596 323 653 258 653 157 c 0
 653 64 593 0 506 0 c 0
 418 0 359 64 359 157 c 0
 359 259 416 323 508 323 c 0
507 294 m 0
 467 294 452 258 452 161 c 0
 452 75 471 29 506 29 c 0
 542 29 560 75 560 164 c 0
 560 256 544 294 507 294 c 0
837 323 m 0
 925 323 982 258 982 157 c 0
 982 64 922 0 835 0 c 0
 747 0 688 64 688 157 c 0
 688 259 745 323 837 323 c 0
836 294 m 0
 796 294 781 258 781 161 c 0
 781 75 800 29 835 29 c 0
 871 29 889 75 889 164 c 0
 889 256 873 294 836 294 c 0
170 -9 m 1
 119 -9 l 1
 522 724 l 1
 573 724 l 1
 170 -9 l 1
EndSplineSet
EndChar
StartChar: questiondown
Encoding: 191 191 123
Width: 444
Flags: W
HStem: -231 96<219 263> 315 156<240 258>
VStem: 33 134<-74 -52> 243 50<194 216>
Fore
366 -41 m 1
 401 -50 l 1
 379 -117 371 -148 369 -183 c 1
 316 -219 277 -231 219 -231 c 0
 106 -231 33 -170 33 -74 c 0
 33 -18 51 16 104 60 c 2
 181 124 l 2
 222 158 243 189 243 216 c 0
 243 228 240 239 234 252 c 2
 233 254 l 1
 267 268 l 1
 285 245 293 222 293 194 c 0
 293 159 276 126 230 70 c 0
 183 14 167 -17 167 -52 c 0
 167 -99 208 -135 263 -135 c 0
 298 -135 329 -125 335 -112 c 2
 366 -41 l 1
251 471 m 0
 291 471 328 433 328 392 c 0
 328 351 291 315 249 315 c 0
 208 315 172 350 172 391 c 0
 172 433 209 471 251 471 c 0
EndSplineSet
EndChar
StartChar: grave
Encoding: 193 96 124
Width: 333
Flags: W
HStem: 671 20G<48.5 73.5>
Fore
200 506 m 1
 69 587 l 2
 65 589 62 591 58 594 c 0
 28 611 18 625 18 647 c 0
 18 674 35 691 62 691 c 0
 85 691 104 680 127 654 c 2
 256 506 l 1
 200 506 l 1
EndSplineSet
EndChar
StartChar: acute
Encoding: 194 180 125
Width: 333
Flags: W
HStem: 671 20G<260 285>
Fore
78 506 m 1
 207 654 l 2
 230 680 248 691 272 691 c 0
 298 691 316 674 316 647 c 0
 316 625 306 611 273 592 c 2
 265 587 l 1
 134 506 l 1
 78 506 l 1
EndSplineSet
Ligature: 0 1 'liga' space acutecomb
EndChar
StartChar: circumflex
Encoding: 195 710 126
Width: 333
Flags: W
HStem: 661 20G<119 212>
Fore
119 681 m 1
 212 681 l 1
 335 506 l 1
 278 506 l 1
 166 604 l 1
 53 506 l 1
 -2 506 l 1
 119 681 l 1
EndSplineSet
EndChar
StartChar: tilde
Encoding: 196 732 127
Width: 333
Flags: W
HStem: 641 20G<70 111.5 306 349>
Fore
306 661 m 1
 349 661 l 1
 325 574 289 535 231 535 c 0
 208 535 187 541 147 560 c 0
 110 578 89 584 70 584 c 0
 50 584 34 568 24 536 c 1
 -16 536 l 1
 -8 610 40 661 100 661 c 0
 123 661 142 655 180 637 c 0
 218 619 236 613 255 613 c 0
 279 613 288 622 306 661 c 1
EndSplineSet
Ligature: 0 1 'liga' space tildecomb
EndChar
StartChar: macron
Encoding: 197 175 128
Width: 333
Flags: W
HStem: 538 71<1 332>
Fore
332 538 m 1
 1 538 l 1
 1 609 l 1
 332 609 l 1
 332 538 l 1
EndSplineSet
Ligature: 0 1 'liga' space uni0304
EndChar
StartChar: breve
Encoding: 198 728 129
Width: 333
Flags: W
Fore
15 669 m 1
 59 669 l 1
 70 610 104 582 163 582 c 0
 201 582 230 594 250 618 c 0
 264 633 274 654 274 667 c 2
 274 669 l 1
 318 669 l 1
 314 621 308 597 292 570 c 0
 265 528 223 506 167 506 c 0
 106 506 59 532 34 580 c 0
 21 606 17 626 15 669 c 1
EndSplineSet
Ligature: 0 1 'liga' space uni0306
EndChar
StartChar: dotaccent
Encoding: 199 729 130
Width: 333
Flags: W
Fore
168 671 m 0
 204 671 234 640 234 604 c 0
 234 567 204 537 167 537 c 0
 130 537 100 567 100 605 c 0
 100 641 130 671 168 671 c 0
EndSplineSet
Ligature: 0 1 'liga' space uni0307
EndChar
StartChar: dieresis
Encoding: 200 168 131
Width: 333
Flags: W
VStem: -8 134<604 608> 207 134<600 607>
Fore
275 671 m 0
 311 671 341 640 341 604 c 0
 341 567 311 537 274 537 c 0
 237 537 207 567 207 605 c 0
 207 641 237 671 275 671 c 0
60 671 m 0
 96 671 126 640 126 604 c 0
 126 567 96 537 59 537 c 0
 22 537 -8 567 -8 604 c 0
 -8 641 22 671 60 671 c 0
EndSplineSet
Ligature: 0 1 'liga' space uni0308
EndChar
StartChar: ring
Encoding: 202 730 132
Width: 333
Flags: W
HStem: 500 50<167 171> 650 50<162 171>
VStem: 67 50<595 603> 217 50<600 604>
Fore
169 700 m 0
 222 700 267 654 267 600 c 0
 267 545 222 500 167 500 c 0
 112 500 67 545 67 601 c 0
 67 656 112 700 169 700 c 0
168 650 m 0
 139 650 117 628 117 600 c 0
 117 572 139 550 167 550 c 0
 195 550 217 572 217 600 c 0
 217 627 195 650 168 650 c 0
EndSplineSet
Ligature: 0 1 'liga' space uni030A
EndChar
StartChar: cedilla
Encoding: 203 184 133
Width: 333
Flags: W
HStem: -225 46<152 171> -107 42<168 223> -27 20G<165 206>
DStem: 165 -7 206 -7 122 -103 178 -71
Fore
122 -103 m 1
 165 -7 l 1
 206 -7 l 1
 178 -71 l 1
 197 -66 209 -65 223 -65 c 0
 270 -65 300 -93 300 -138 c 0
 300 -191 248 -225 167 -225 c 0
 138 -225 109 -219 73 -207 c 1
 89 -170 l 1
 123 -177 137 -179 156 -179 c 0
 189 -179 206 -166 206 -142 c 0
 206 -120 192 -107 168 -107 c 0
 161 -107 156 -108 132 -111 c 1
 122 -103 l 1
EndSplineSet
Ligature: 0 1 'liga' space uni0327
EndChar
StartChar: hungarumlaut
Encoding: 205 733 134
Width: 333
Flags: W
HStem: 671 20G<123 149 331 357>
Fore
152 506 m 1
 280 654 l 2
 305 683 319 691 343 691 c 0
 371 691 390 672 390 644 c 0
 390 627 384 615 371 607 c 2
 206 506 l 1
 152 506 l 1
-56 506 m 1
 72 654 l 2
 97 683 111 691 135 691 c 0
 163 691 182 672 182 645 c 0
 182 627 176 615 163 607 c 2
 -2 506 l 1
 -56 506 l 1
EndSplineSet
Ligature: 0 1 'liga' space uni030B
EndChar
StartChar: ogonek
Encoding: 206 731 135
Width: 333
Flags: W
HStem: -229 42<163 200> -20 20G<154 192>
VStem: 60 76<-129 -113>
Fore
268 -172 m 1
 274 -198 l 1
 244 -219 207 -229 163 -229 c 0
 98 -229 60 -191 60 -127 c 0
 60 -64 89 -25 154 0 c 1
 192 0 l 1
 153 -42 136 -77 136 -115 c 0
 136 -159 161 -187 200 -187 c 0
 222 -187 238 -183 268 -172 c 1
EndSplineSet
Ligature: 0 1 'liga' space uni0328
EndChar
StartChar: caron
Encoding: 207 711 136
Width: 333
Flags: W
HStem: 665 20G<-2 53 278 335>
Fore
212 510 m 1
 119 510 l 1
 -2 685 l 1
 53 685 l 1
 166 587 l 1
 278 685 l 1
 335 685 l 1
 212 510 l 1
EndSplineSet
EndChar
StartChar: emdash
Encoding: 208 8212 137
Width: 1000
Flags: W
HStem: 208 83<0 1000>
Fore
1000 208 m 1
 0 208 l 1
 0 291 l 1
 1000 291 l 1
 1000 208 l 1
EndSplineSet
EndChar
StartChar: AE
Encoding: 225 198 138
Width: 1000
Flags: W
HStem: -4 59<676.205 813> 214 53<271 501> 328 50<709 789> 623 58<487 494 720 776.168 787 813>
VStem: 501 141<73 325 267 620> 501 374<267 392.067>
DStem: 394 584 487 623 104 94 271 267 394 584 241 214 104 94 179 107 832 291 875 349 838 241 878 241
Fore
449 20 m 1xf8
 481 38 l 2
 496 46 501 62 501 95 c 2
 501 214 l 1
 241 214 l 1
 179 107 l 2
 164 81 160 70 160 52 c 1
 166 43 176 37 184 37 c 2
 238 34 l 1
 238 -3 l 1
 172 -1 138 0 120 0 c 0
 99 0 99 0 12 -3 c 1
 12 34 l 1
 50 37 l 2
 65 39 79 54 104 94 c 1
 394 584 l 2
 406 604 411 616 411 624 c 0
 411 632 393 640 368 641 c 2
 316 644 l 1
 316 681 l 1
 438 679 526 678 578 678 c 0
 643 678 643 678 720 680 c 0
 766 681 793 681 803 682 c 2
 842 682 l 2
 882 682 899 681 937 678 c 1
 943 671 l 1
 929 529 l 1
 893 529 l 1
 885 604 l 1
 884 615 841 624 787 624 c 0
 732 624 698 623 642 620 c 1
 642 380 l 1xf8
 662 378 676 378 709 378 c 2
 775 378 l 2
 817 378 830 383 832 399 c 1
 838 456 l 1
 878 456 l 1
 875 361 875 360 875 349 c 1xf4
 878 241 l 1
 838 241 l 1
 832 291 l 2
 829 317 813 328 775 328 c 2
 709 328 l 2
 687 328 670 327 642 325 c 1
 642 58 l 1
 693 56 732 55 773 55 c 0
 829 55 858 59 889 69 c 0
 891 70 892 71 892 72 c 1
 915 166 l 1
 954 166 l 1
 943 8 l 1
 938 0 l 1
 880 -3 849 -4 797 -4 c 0
 750 -4 700 -3 636 -1 c 0
 601 0 590 0 571 0 c 0
 547 0 522 -1 449 -3 c 1
 449 20 l 1xf8
271 267 m 1
 501 267 l 1
 501 606 l 1
 494 623 l 1
 487 623 l 1
 271 267 l 1
EndSplineSet
EndChar
StartChar: ordfeminine
Encoding: 227 170 139
Width: 438
Flags: W
HStem: 376 22<351.5 361> 640 20G<207.5 250>
VStem: 77 79<442 457> 245 79<445 572>
Fore
245 418 m 1
 185 374 l 2
 179 370 167 367 154 367 c 0
 104 367 77 393 77 442 c 0
 77 480 92 501 131 516 c 0
 146 522 172 529 188 532 c 2
 245 542 l 1
 244 563 242 573 235 585 c 0
 226 601 201 615 183 614 c 0
 182 614 180 614 177 613 c 2
 141 605 l 1
 127 575 l 1
 105 579 l 1
 105 618 l 1
 182 655 l 2
 189 658 200 660 215 660 c 0
 285 660 324 628 324 572 c 2
 324 424 l 2
 324 408 329 401 342 400 c 2
 361 398 l 1
 361 376 l 1
 332 376 l 2
 317 377 307 377 304 377 c 2
 278 377 l 2
 274 376 260 376 245 376 c 1
 242 380 l 1
 245 418 l 1
245 446 m 1
 245 517 l 1
 216 510 l 2
 171 499 156 486 156 457 c 0
 156 434 169 419 189 419 c 0
 209 419 229 429 245 446 c 1
EndSplineSet
EndChar
StartChar: Lslash
Encoding: 232 321 140
Width: 611
Flags: W
HStem: -4 59<309.367 433>
VStem: 124 141<73 360 330 589>
DStem: 124 330 124 282 16 270 30 230 380 472 394 432 265 408 265 360
Fore
265 408 m 1
 380 472 l 1
 394 432 l 1
 265 360 l 1
 265 58 l 1
 317 56 354 55 396 55 c 0
 458 55 513 63 515 72 c 2
 538 174 l 1
 577 174 l 1
 566 8 l 1
 561 0 l 1
 503 -3 472 -4 420 -4 c 0
 369 -4 329 -3 228 0 c 2
 194 0 l 2
 171 0 171 0 72 -3 c 1
 72 20 l 1
 104 38 l 2
 119 46 124 61 124 95 c 2
 124 282 l 1
 30 230 l 1
 16 270 l 1
 124 330 l 1
 124 543 l 2
 124 632 123 634 76 638 c 2
 39 641 l 1
 39 681 l 1
 159 678 160 678 194 678 c 0
 228 678 228 678 350 681 c 1
 350 641 l 1
 313 638 l 2
 266 634 265 632 265 543 c 2
 265 408 l 1
EndSplineSet
EndChar
StartChar: Oslash
Encoding: 233 216 141
Width: 833
Flags: W
HStem: -17 56<399 433> 639 56<399 449>
VStem: 47 150<315 355> 637 150<324 365>
DStem: 123 103 160 62 32 20 70 -20 592 534 615 481 222 192 242 138 771 698 808 659 682 617 719 577
Fore
160 62 m 1
 70 -20 l 1
 32 20 l 1
 123 103 l 1
 67 169 47 228 47 326 c 0
 47 561 186 695 428 695 c 0
 477 695 521 689 564 677 c 0
 613 663 637 651 682 617 c 1
 771 698 l 1
 808 659 l 1
 719 577 l 1
 770 504 787 448 787 353 c 0
 787 117 649 -17 405 -17 c 0
 352 -17 305 -10 259 4 c 0
 214 18 195 30 160 62 c 1
222 192 m 1
 592 534 l 1
 548 611 502 639 424 639 c 0
 273 639 197 542 197 349 c 0
 197 282 205 233 222 192 c 1
615 481 m 1
 242 138 l 1
 293 65 337 39 410 39 c 0
 563 39 637 135 637 333 c 0
 637 398 630 444 615 481 c 1
EndSplineSet
KernsSLIF: 65 -52 0 0
EndChar
StartChar: OE
Encoding: 234 338 142
Width: 1000
Flags: W
HStem: -17 56<392 416> -4 59<707.205 844> 328 50<740 822> 529 153<874 960> 624 54<632 819> 624 58<818 874> 639 56<392 416>
VStem: 43 150<323 378> 532 141<74 325 75 620> 532 374<75 392.067>
DStem: 863 291 906 349 869 241 909 241
Fore
974 8 m 1x6980
 969 0 l 1
 911 -3 880 -4 828 -4 c 0x6980
 781 -4 731 -3 667 -1 c 0
 631 0 621 0 601 0 c 0
 550 0 529 -2 481 -9 c 0
 443 -15 420 -17 394 -17 c 0
 175 -17 43 119 43 344 c 0
 43 456 73 542 132 601 c 0
 193 662 289 695 409 695 c 0xa380
 437 695 460 693 516 686 c 0
 566 679 585 678 632 678 c 0x2980
 667 678 667 678 819 681 c 0
 838 682 858 682 874 682 c 0x3180
 912 682 931 681 968 678 c 1x2980
 974 671 l 1
 960 529 l 1
 924 529 l 1x3180
 916 604 l 1
 915 615 872 624 818 624 c 0
 763 624 729 623 673 620 c 1
 673 380 l 1x2980
 693 378 707 378 740 378 c 2
 806 378 l 2
 848 378 861 383 863 399 c 1
 869 456 l 1
 909 456 l 1
 906 361 906 360 906 349 c 1x2940
 909 241 l 1
 869 241 l 1
 863 291 l 2
 860 317 844 328 806 328 c 2
 740 328 l 2
 718 328 701 327 673 325 c 1
 673 58 l 1
 724 56 763 55 804 55 c 0
 860 55 889 59 920 69 c 0
 922 70 923 71 923 72 c 1
 946 166 l 1
 985 166 l 1
 974 8 l 1x6980
532 75 m 1
 532 594 l 1
 481 629 451 639 403 639 c 0
 264 639 193 544 193 357 c 0
 193 155 274 39 414 39 c 0xa380
 462 39 491 48 532 75 c 1
EndSplineSet
EndChar
StartChar: ordmasculine
Encoding: 235 186 143
Width: 488
Flags: W
HStem: 367 29<236 252> 631 29<232 252>
VStem: 89 88<498 530> 311 88<498 530>
Fore
250 660 m 0
 346 660 399 609 399 517 c 0
 399 422 339 367 236 367 c 0
 141 367 89 419 89 514 c 0
 89 608 147 660 250 660 c 0
241 631 m 0
 197 631 177 599 177 528 c 0
 177 441 201 396 248 396 c 0
 292 396 311 427 311 500 c 0
 311 588 288 631 241 631 c 0
EndSplineSet
EndChar
StartChar: ae
Encoding: 241 230 144
Width: 778
Flags: W
HStem: -17 71<539 591> 223 50<493 573> 400 71<212 267> 415 56<521 547>
VStem: 46 126<107 128> 604 127<276 297>
Fore
731 295 m 2xdc
 731 243 l 1
 675 229 630 223 573 223 c 2
 442 223 l 1
 444 176 450 153 466 125 c 0
 491 82 540 54 591 54 c 0
 632 54 662 63 709 89 c 1
 721 74 l 1
 699 26 l 1
 635 -7 598 -17 539 -17 c 0
 449 -17 390 11 344 78 c 1
 230 -4 l 2
 221 -10 189 -17 167 -17 c 0
 97 -17 46 35 46 107 c 0
 46 143 57 176 75 197 c 1
 96 219 152 241 231 257 c 2
 319 275 l 1
 317 319 312 339 297 361 c 0
 279 386 249 400 212 400 c 0
 185 400 166 394 140 376 c 1
 124 334 l 1
 92 338 l 1
 92 405 l 1
 145 437 l 2
 183 460 222 471 267 471 c 0xec
 329 471 362 458 405 419 c 1
 450 456 492 471 547 471 c 0
 657 471 731 401 731 295 c 2xdc
520 273 m 1
 604 276 l 1
 602 375 578 415 521 415 c 0xdc
 463 415 439 375 436 276 c 1
 468 275 l 2
 483 274 510 273 516 273 c 2
 520 273 l 1
319 115 m 1
 319 229 l 1
 264 216 l 2
 201 201 172 174 172 128 c 0
 172 91 193 70 230 70 c 0
 263 70 299 88 319 115 c 1
EndSplineSet
KernsSLIF: 121 -12 0 0 119 -9 0 0 118 -8 0 0
EndChar
StartChar: dotlessi
Encoding: 245 305 145
Width: 333
Flags: W
VStem: 105 122<100 350>
DStem: 217 471 217 471 147 449 227 465
Fore
217 471 m 1
 227 465 l 1
 227 100 l 2
 227 46 232 38 263 36 c 2
 298 34 l 1
 298 -3 l 1
 231 -1 183 0 163 0 c 2
 34 -3 l 1
 34 34 l 1
 69 36 l 2
 100 38 105 46 105 100 c 2
 105 319 l 2
 105 378 102 387 79 389 c 2
 34 392 l 1
 34 428 l 1
 41 429 46 430 49 430 c 0
 91 435 115 439 147 449 c 2
 217 471 l 1
EndSplineSet
EndChar
StartChar: lslash
Encoding: 248 322 146
Width: 333
Flags: W
VStem: 103 122<100 324 366 403 367 714>
DStem: 103 367 103 324 -4 298 10 264 217 720 217 720 145 698 225 714 320 508 334 474 225 446 225 403
Fore
225 714 m 1
 225 446 l 1
 320 508 l 1
 334 474 l 1
 225 403 l 1
 225 100 l 2
 225 46 230 38 261 36 c 2
 296 34 l 1
 296 -3 l 1
 229 -1 181 0 161 0 c 2
 32 -3 l 1
 32 34 l 1
 67 36 l 2
 98 38 103 46 103 100 c 2
 103 324 l 1
 10 264 l 1
 -4 298 l 1
 103 367 l 1
 103 568 l 2
 103 627 99 637 77 638 c 2
 24 641 l 1
 24 677 l 1
 82 683 116 689 145 698 c 2
 217 720 l 1
 225 714 l 1
EndSplineSet
EndChar
StartChar: oslash
Encoding: 249 248 147
Width: 556
Flags: W
HStem: -17 48<267 296> 423 48<262 288>
VStem: 40 136<221 258> 381 136<207 245>
DStem: 86 64 107 40 23 5 46 -18 368 333 374 294 184 158 190 119 510 468 534 446 454 414 474 390
Fore
510 468 m 1
 534 446 l 1
 474 390 l 1
 506 343 517 307 517 243 c 0
 517 75 429 -17 267 -17 c 0
 203 -17 160 -2 107 40 c 1
 46 -18 l 1
 23 5 l 1
 86 64 l 1
 55 104 40 157 40 224 c 0
 40 383 128 471 286 471 c 0
 360 471 410 454 454 414 c 1
 510 468 l 1
184 158 m 1
 368 333 l 1
 348 398 323 423 276 423 c 0
 208 423 176 369 176 258 c 0
 176 224 178 200 184 158 c 1
374 294 m 1
 190 119 l 1
 214 56 241 31 286 31 c 0
 353 31 381 83 381 207 c 0
 381 248 379 269 374 294 c 1
EndSplineSet
EndChar
StartChar: oe
Encoding: 250 339 148
Width: 833
Flags: W
HStem: -17 48<272 299> 223 50<559 641> 423 48<270 298>
VStem: 48 136<221 250> 672 127<276 297>
Fore
799 295 m 2
 799 243 l 1
 743 229 698 223 641 223 c 2
 510 223 l 1
 512 176 518 153 534 125 c 0
 559 82 608 54 659 54 c 0
 700 54 730 63 777 89 c 1
 789 74 l 1
 767 26 l 1
 704 -7 666 -17 611 -17 c 0
 539 -17 491 2 448 47 c 1
 398 1 347 -17 272 -17 c 0
 130 -17 48 71 48 225 c 0
 48 384 136 471 296 471 c 0
 368 471 412 456 462 414 c 1
 518 455 561 471 616 471 c 0
 725 471 799 400 799 295 c 2
588 273 m 1
 672 276 l 1
 670 375 646 415 589 415 c 0
 531 415 507 375 504 276 c 1
 536 275 l 2
 551 274 578 273 584 273 c 2
 588 273 l 1
283 423 m 0
 214 423 184 369 184 248 c 0
 184 104 221 31 293 31 c 0
 361 31 389 83 389 205 c 0
 389 352 355 423 283 423 c 0
EndSplineSet
EndChar
StartChar: germandbls
Encoding: 251 223 149
Width: 611
Flags: W
HStem: -17 57<362 398> 415 51<422 441> 653 67<336 371>
VStem: 103 124<493 509> 288 87<310 376> 448 73<532 577> 465 100<100 167>
Fore
105 368 m 1xfa
 34 368 l 1
 34 391 l 1
 103 436 l 1
 103 509 l 2
 103 546 123 579 174 625 c 0
 249 693 305 720 371 720 c 0
 462 720 521 664 521 577 c 0xfc
 521 543 517 516 497 431 c 2
 491 405 l 1
 478 396 l 1
 461 409 445 415 424 415 c 0
 394 415 375 400 375 376 c 0
 375 352 389 336 427 316 c 0
 430 314 430 314 432 313 c 2
 511 267 l 2
 550 244 565 217 565 167 c 0
 565 124 551 96 513 60 c 2
 468 18 l 2
 453 4 450 2 440 -2 c 0
 418 -10 384 -17 362 -17 c 0
 341 -17 316 -10 289 4 c 1
 289 -3 l 1
 194 0 194 0 170 0 c 0
 151 0 151 0 30 -3 c 1
 30 34 l 1
 69 36 l 2
 100 38 105 46 105 100 c 2
 105 368 l 1xfa
330 118 m 1
 334 64 l 1
 361 46 377 40 398 40 c 0
 436 40 465 66 465 100 c 0xfa
 465 133 449 151 382 191 c 0
 307 237 288 260 288 310 c 0
 288 360 318 405 380 448 c 0
 400 462 415 466 441 466 c 1
 447 505 448 518 448 532 c 0
 448 603 402 653 336 653 c 0
 297 653 260 635 244 606 c 0
 232 587 227 551 227 493 c 2
 227 99 l 2
 227 52 233 40 259 37 c 2
 288 34 l 1
 297 112 l 1
 330 118 l 1
EndSplineSet
EndChar
StartChar: Adieresis
Encoding: 256 196 150
Width: 778
Flags: W
HStem: 0 21G<132.5 141.5 593 604.5> 206 56<242 469> 666 20G<348 419> 761 134<279 293 487 505>
VStem: 215 134<816.364 831> 430 134<826 831>
DStem: 291 535 342 516 110 97 242 262 291 535 218 206 110 97 176 94
Fore
469 206 m 1
 218 206 l 1
 176 94 l 2
 173 86 171 76 171 69 c 0
 171 52 183 38 200 37 c 2
 250 34 l 1
 250 -3 l 1
 223 -2 202 -2 193 -1 c 0
 165 0 146 0 137 0 c 0
 128 0 109 0 81 -1 c 0
 73 -2 50 -2 24 -3 c 1
 24 34 l 1
 54 37 l 2
 76 39 93 58 110 97 c 1
 291 535 l 1
 296 546 306 572 320 611 c 1
 348 686 l 1
 419 686 l 1
 678 81 l 1
 691 52 705 41 733 37 c 2
 757 34 l 1
 757 -3 l 1
 610 0 610 0 599 0 c 0
 587 0 587 0 447 -3 c 1
 447 34 l 1
 500 37 l 2
 511 38 520 49 520 64 c 0
 520 72 518 82 514 92 c 2
 469 206 l 1
342 516 m 1
 242 262 l 1
 446 262 l 1
 342 516 l 1
498 895 m 0
 534 895 564 864 564 828 c 0
 564 791 534 761 497 761 c 0
 460 761 430 791 430 829 c 0
 430 865 460 895 498 895 c 0
283 895 m 0
 319 895 349 864 349 828 c 0
 349 791 319 761 282 761 c 0
 245 761 215 791 215 828 c 0
 215 865 245 895 283 895 c 0
EndSplineSet
KernsSLIF: 121 -72 0 0 119 -58 0 0 118 -68 0 0 117 -26 0 0 116 -14 0 0 39 -81 0 0 186 -83 0 0 113 -18 0 0 46 12 0 0 111 -16 0 0 45 -12 0 0 172 -72 0 0 171 -49 0 0 100 -14 0 0 44 7 0 0 99 -13 0 0 98 -8 0 0 97 7 0 0 89 -66 0 0 87 -71 0 0 86 -124 0 0 85 -46 0 0 84 -53 0 0 81 -41 0 0 79 -45 0 0 71 -54 0 0 67 -51 0 0
Ligature: 0 0 'liga' A uni0308
EndChar
StartChar: Aacute
Encoding: 257 193 151
Width: 778
Flags: W
HStem: 0 21G<132.5 141.5 593 604.5> 206 56<242 469> 666 20G<348 419>
DStem: 291 535 342 516 110 97 242 262 291 535 218 206 110 97 176 94
Fore
469 206 m 1
 218 206 l 1
 176 94 l 2
 173 86 171 76 171 69 c 0
 171 52 183 38 200 37 c 2
 250 34 l 1
 250 -3 l 1
 223 -2 202 -2 193 -1 c 0
 165 0 146 0 137 0 c 0
 128 0 109 0 81 -1 c 0
 73 -2 50 -2 24 -3 c 1
 24 34 l 1
 54 37 l 2
 76 39 93 58 110 97 c 1
 291 535 l 1
 296 546 306 572 320 611 c 1
 348 686 l 1
 419 686 l 1
 678 81 l 1
 691 52 705 41 733 37 c 2
 757 34 l 1
 757 -3 l 1
 610 0 610 0 599 0 c 0
 587 0 587 0 447 -3 c 1
 447 34 l 1
 500 37 l 2
 511 38 520 49 520 64 c 0
 520 72 518 82 514 92 c 2
 469 206 l 1
342 516 m 1
 242 262 l 1
 446 262 l 1
 342 516 l 1
301 730 m 1
 430 878 l 2
 453 904 471 915 495 915 c 0
 521 915 539 898 539 871 c 0
 539 849 529 835 496 816 c 2
 488 811 l 1
 357 730 l 1
 301 730 l 1
EndSplineSet
KernsSLIF: 121 -72 0 0 119 -58 0 0 118 -68 0 0 117 -26 0 0 116 -14 0 0 39 -81 0 0 113 -18 0 0 46 12 0 0 111 -16 0 0 45 -12 0 0 172 -72 0 0 171 -49 0 0 101 -15 0 0 100 -14 0 0 44 7 0 0 99 -13 0 0 98 -8 0 0 97 7 0 0 89 -66 0 0 87 -71 0 0 86 -124 0 0 85 -46 0 0 84 -53 0 0 81 -41 0 0 79 -45 0 0 71 -54 0 0 67 -51 0 0
Ligature: 0 0 'liga' A acutecomb
EndChar
StartChar: Agrave
Encoding: 258 192 152
Width: 778
Flags: W
HStem: 0 21G<132.5 141.5 593 604.5> 206 56<242 469> 666 20G<348 419>
DStem: 291 535 342 516 110 97 242 262 291 535 218 206 110 97 176 94
Fore
469 206 m 1
 218 206 l 1
 176 94 l 2
 173 86 171 76 171 69 c 0
 171 52 183 38 200 37 c 2
 250 34 l 1
 250 -3 l 1
 223 -2 202 -2 193 -1 c 0
 165 0 146 0 137 0 c 0
 128 0 109 0 81 -1 c 0
 73 -2 50 -2 24 -3 c 1
 24 34 l 1
 54 37 l 2
 76 39 93 58 110 97 c 1
 291 535 l 1
 296 546 306 572 320 611 c 1
 348 686 l 1
 419 686 l 1
 678 81 l 1
 691 52 705 41 733 37 c 2
 757 34 l 1
 757 -3 l 1
 610 0 610 0 599 0 c 0
 587 0 587 0 447 -3 c 1
 447 34 l 1
 500 37 l 2
 511 38 520 49 520 64 c 0
 520 72 518 82 514 92 c 2
 469 206 l 1
342 516 m 1
 242 262 l 1
 446 262 l 1
 342 516 l 1
415 730 m 1
 284 811 l 2
 280 813 277 815 273 818 c 0
 243 835 233 849 233 871 c 0
 233 898 250 915 277 915 c 0
 300 915 319 904 342 878 c 2
 471 730 l 1
 415 730 l 1
EndSplineSet
KernsSLIF: 46 12 0 0 44 7 0 0 89 -66 0 0 87 -71 0 0 86 -124 0 0 85 -46 0 0 84 -53 0 0 81 -41 0 0 79 -45 0 0 71 -54 0 0 67 -51 0 0
Ligature: 0 0 'liga' A gravecomb
EndChar
StartChar: Acircumflex
Encoding: 259 194 153
Width: 778
Flags: W
HStem: 0 21G<132.5 141.5 593 604.5> 206 56<242 469> 666 20G<348 419>
DStem: 291 535 342 516 110 97 242 262 291 535 218 206 110 97 176 94
Fore
469 206 m 1
 218 206 l 1
 176 94 l 2
 173 86 171 76 171 69 c 0
 171 52 183 38 200 37 c 2
 250 34 l 1
 250 -3 l 1
 223 -2 202 -2 193 -1 c 0
 165 0 146 0 137 0 c 0
 128 0 109 0 81 -1 c 0
 73 -2 50 -2 24 -3 c 1
 24 34 l 1
 54 37 l 2
 76 39 93 58 110 97 c 1
 291 535 l 1
 296 546 306 572 320 611 c 1
 348 686 l 1
 419 686 l 1
 678 81 l 1
 691 52 705 41 733 37 c 2
 757 34 l 1
 757 -3 l 1
 610 0 610 0 599 0 c 0
 587 0 587 0 447 -3 c 1
 447 34 l 1
 500 37 l 2
 511 38 520 49 520 64 c 0
 520 72 518 82 514 92 c 2
 469 206 l 1
342 516 m 1
 242 262 l 1
 446 262 l 1
 342 516 l 1
337 905 m 1
 430 905 l 1
 553 730 l 1
 496 730 l 1
 384 828 l 1
 271 730 l 1
 216 730 l 1
 337 905 l 1
EndSplineSet
KernsSLIF: 46 12 0 0 44 7 0 0 89 -66 0 0 87 -71 0 0 86 -124 0 0 85 -46 0 0 84 -53 0 0 81 -41 0 0 79 -45 0 0 71 -54 0 0 67 -51 0 0
Ligature: 0 0 'liga' A uni0302
EndChar
StartChar: Abreve
Encoding: 260 258 154
Width: 778
Flags: W
HStem: 0 21G<132.5 141.5 593 604.5> 206 56<242 469> 666 20G<348 419> 730 76<375 392>
DStem: 291 535 342 516 110 97 242 262 291 535 218 206 110 97 176 94
Fore
469 206 m 1
 218 206 l 1
 176 94 l 2
 173 86 171 76 171 69 c 0
 171 52 183 38 200 37 c 2
 250 34 l 1
 250 -3 l 1
 223 -2 202 -2 193 -1 c 0
 165 0 146 0 137 0 c 0
 128 0 109 0 81 -1 c 0
 73 -2 50 -2 24 -3 c 1
 24 34 l 1
 54 37 l 2
 76 39 93 58 110 97 c 1
 291 535 l 1
 296 546 306 572 320 611 c 1
 348 686 l 1
 419 686 l 1
 678 81 l 1
 691 52 705 41 733 37 c 2
 757 34 l 1
 757 -3 l 1
 610 0 610 0 599 0 c 0
 587 0 587 0 447 -3 c 1
 447 34 l 1
 500 37 l 2
 511 38 520 49 520 64 c 0
 520 72 518 82 514 92 c 2
 469 206 l 1
342 516 m 1
 242 262 l 1
 446 262 l 1
 342 516 l 1
238 893 m 1
 282 893 l 1
 293 834 327 806 386 806 c 0
 424 806 453 818 473 842 c 0
 487 857 497 878 497 891 c 2
 497 893 l 1
 541 893 l 1
 537 845 531 821 515 794 c 0
 488 752 446 730 390 730 c 0
 329 730 282 756 257 804 c 0
 244 830 240 850 238 893 c 1
EndSplineSet
Ligature: 0 0 'liga' A uni0306
EndChar
StartChar: Atilde
Encoding: 261 195 155
Width: 778
Flags: W
HStem: 0 21G<132.5 141.5 593 604.5> 206 56<242 469> 666 20G<348 419> 759 78<454 478> 808 77<293 323>
DStem: 291 535 342 516 110 97 242 262 291 535 218 206 110 97 176 94
Fore
469 206 m 1xe0
 218 206 l 1
 176 94 l 2
 173 86 171 76 171 69 c 0
 171 52 183 38 200 37 c 2
 250 34 l 1
 250 -3 l 1
 223 -2 202 -2 193 -1 c 0
 165 0 146 0 137 0 c 0
 128 0 109 0 81 -1 c 0
 73 -2 50 -2 24 -3 c 1
 24 34 l 1
 54 37 l 2
 76 39 93 58 110 97 c 1
 291 535 l 1
 296 546 306 572 320 611 c 1
 348 686 l 1
 419 686 l 1
 678 81 l 1
 691 52 705 41 733 37 c 2
 757 34 l 1
 757 -3 l 1
 610 0 610 0 599 0 c 0
 587 0 587 0 447 -3 c 1
 447 34 l 1
 500 37 l 2
 511 38 520 49 520 64 c 0
 520 72 518 82 514 92 c 2
 469 206 l 1xe0
342 516 m 1
 242 262 l 1
 446 262 l 1
 342 516 l 1
529 885 m 1xe8
 572 885 l 1xe8
 548 798 512 759 454 759 c 0xf0
 431 759 410 765 370 784 c 0
 333 802 312 808 293 808 c 0
 273 808 257 792 247 760 c 1
 207 760 l 1
 215 834 263 885 323 885 c 0xe8
 346 885 365 879 403 861 c 0
 441 843 459 837 478 837 c 0xf0
 502 837 511 846 529 885 c 1xe8
EndSplineSet
KernsSLIF: 46 12 0 0 44 7 0 0 89 -66 0 0 87 -71 0 0 86 -124 0 0 85 -46 0 0 84 -53 0 0 81 -41 0 0 79 -45 0 0 71 -54 0 0 67 -51 0 0
Ligature: 0 0 'liga' A tildecomb
EndChar
StartChar: Aring
Encoding: 262 197 156
Width: 778
Flags: W
HStem: 0 21G<132.5 141.5 593 604.5> 206 56<242 469> 666 20G<348 419> 734 50<385 393> 884 50<375 393>
VStem: 285 50<828 837> 435 50<834 838>
DStem: 291 535 342 516 110 97 242 262 291 535 218 206 110 97 176 94
Fore
469 206 m 1
 218 206 l 1
 176 94 l 2
 173 86 171 76 171 69 c 0
 171 52 183 38 200 37 c 2
 250 34 l 1
 250 -3 l 1
 223 -2 202 -2 193 -1 c 0
 165 0 146 0 137 0 c 0
 128 0 109 0 81 -1 c 0
 73 -2 50 -2 24 -3 c 1
 24 34 l 1
 54 37 l 2
 76 39 93 58 110 97 c 1
 291 535 l 1
 296 546 306 572 320 611 c 1
 348 686 l 1
 419 686 l 1
 678 81 l 1
 691 52 705 41 733 37 c 2
 757 34 l 1
 757 -3 l 1
 610 0 610 0 599 0 c 0
 587 0 587 0 447 -3 c 1
 447 34 l 1
 500 37 l 2
 511 38 520 49 520 64 c 0
 520 72 518 82 514 92 c 2
 469 206 l 1
342 516 m 1
 242 262 l 1
 446 262 l 1
 342 516 l 1
387 934 m 0
 440 934 485 888 485 834 c 0
 485 779 440 734 385 734 c 0
 330 734 285 779 285 835 c 0
 285 890 330 934 387 934 c 0
386 884 m 0
 357 884 335 862 335 834 c 0
 335 806 357 784 385 784 c 0
 413 784 435 806 435 834 c 0
 435 861 413 884 386 884 c 0
EndSplineSet
KernsSLIF: 121 -72 0 0 119 -58 0 0 118 -68 0 0 117 -26 0 0 116 -14 0 0 39 -81 0 0 186 -83 0 0 113 -18 0 0 46 12 0 0 111 -16 0 0 45 -12 0 0 172 -72 0 0 171 -49 0 0 101 -15 0 0 100 -14 0 0 44 7 0 0 99 -13 0 0 98 -8 0 0 97 7 0 0 89 -66 0 0 87 -71 0 0 86 -124 0 0 85 -46 0 0 84 -53 0 0 81 -41 0 0 79 -45 0 0 71 -54 0 0 67 -51 0 0
Ligature: 0 0 'liga' A uni030A
EndChar
StartChar: Aogonek
Encoding: 263 260 157
Width: 778
Flags: W
HStem: -229 42<707 744> -22 20G<734 751.5> 206 56<242 469> 666 20G<348 419>
VStem: 604 76<-129 -114>
DStem: 291 535 342 516 110 97 242 262 291 535 218 206 110 97 176 94
Fore
757 34 m 1
 757 -3 l 1
 754 -2 752 -2 751 -2 c 0
 717 -2 680 -62 680 -116 c 0
 680 -159 706 -187 744 -187 c 0
 766 -187 782 -183 812 -172 c 1
 818 -198 l 1
 788 -219 751 -229 707 -229 c 0
 642 -229 604 -191 604 -127 c 0
 604 -83 622 -45 655 -21 c 0
 665 -14 671 -11 694 -2 c 1
 635 0 610 0 600 0 c 0
 587 0 587 0 447 -3 c 1
 447 34 l 1
 500 37 l 2
 511 38 520 49 520 64 c 0
 520 72 518 82 514 92 c 2
 469 206 l 1
 218 206 l 1
 176 94 l 2
 173 86 171 76 171 69 c 0
 171 52 183 38 200 37 c 2
 250 34 l 1
 250 -3 l 1
 223 -2 202 -2 193 -1 c 0
 165 0 146 0 137 0 c 0
 128 0 109 0 81 -1 c 0
 73 -2 50 -2 24 -3 c 1
 24 34 l 1
 54 37 l 2
 76 39 93 58 110 97 c 1
 291 535 l 1
 296 546 306 572 320 611 c 1
 348 686 l 1
 419 686 l 1
 678 81 l 1
 691 52 705 41 733 37 c 2
 757 34 l 1
342 516 m 1
 242 262 l 1
 446 262 l 1
 342 516 l 1
EndSplineSet
Ligature: 0 0 'liga' A uni0328
EndChar
StartChar: Ccedilla
Encoding: 264 199 158
Width: 722
Flags: W
HStem: -225 46<347 366> -107 42<363 419> -17 65<446 485> 639 56<427 477>
VStem: 44 150<334 368> 401 94<-146 -136>
DStem: 358 -10 397 -15 317 -103 373 -71
Fore
397 -15 m 1
 373 -71 l 1
 393 -66 404 -65 419 -65 c 0
 465 -65 495 -93 495 -138 c 0
 495 -164 485 -183 464 -198 c 0
 443 -213 399 -225 362 -225 c 0
 333 -225 303 -219 268 -207 c 1
 284 -170 l 1
 318 -177 332 -179 351 -179 c 0
 384 -179 401 -166 401 -142 c 0
 401 -120 387 -107 363 -107 c 0
 354 -107 347 -108 327 -111 c 1
 317 -103 l 1
 358 -10 l 1
 294 1 251 15 210 38 c 0
 104 99 44 211 44 347 c 0
 44 561 202 695 455 695 c 0
 542 695 598 684 689 648 c 1
 695 637 l 1
 686 599 683 580 672 484 c 1
 633 484 l 1
 628 570 l 1
 574 620 526 639 450 639 c 0
 291 639 194 533 194 361 c 0
 194 172 310 48 485 48 c 0
 550 48 615 65 680 99 c 1
 692 87 l 1
 670 38 l 1
 597 -2 537 -17 446 -17 c 0
 429 -17 417 -17 397 -15 c 1
EndSplineSet
KernsSLIF: 65 11 0 0
Ligature: 0 0 'liga' C uni0327
EndChar
StartChar: Cacute
Encoding: 265 262 159
Width: 722
Flags: W
HStem: -17 65<445 485> 639 56<427 477>
VStem: 44 150<334 368>
Fore
692 87 m 1
 670 38 l 1
 596 -3 537 -17 445 -17 c 0
 198 -17 44 123 44 347 c 0
 44 561 202 695 455 695 c 0
 542 695 598 684 689 648 c 1
 695 637 l 1
 686 599 683 580 672 484 c 1
 633 484 l 1
 628 570 l 1
 574 620 525 639 450 639 c 0
 292 639 194 533 194 361 c 0
 194 172 310 48 485 48 c 0
 550 48 615 65 680 99 c 1
 692 87 l 1
353 730 m 1
 482 878 l 2
 505 904 523 915 547 915 c 0
 573 915 591 898 591 871 c 0
 591 849 581 835 548 816 c 2
 540 811 l 1
 409 730 l 1
 353 730 l 1
EndSplineSet
Ligature: 0 0 'liga' C acutecomb
EndChar
StartChar: Ccaron
Encoding: 266 268 160
Width: 722
Flags: W
HStem: -17 65<445 485> 639 56<427 477>
VStem: 44 150<334 368>
Fore
692 87 m 1
 670 38 l 1
 596 -3 537 -17 445 -17 c 0
 198 -17 44 123 44 347 c 0
 44 561 202 695 455 695 c 0
 542 695 598 684 689 648 c 1
 695 637 l 1
 686 599 683 580 672 484 c 1
 633 484 l 1
 628 570 l 1
 574 620 525 639 450 639 c 0
 292 639 194 533 194 361 c 0
 194 172 310 48 485 48 c 0
 550 48 615 65 680 99 c 1
 692 87 l 1
487 734 m 1
 394 734 l 1
 273 909 l 1
 328 909 l 1
 441 811 l 1
 553 909 l 1
 610 909 l 1
 487 734 l 1
EndSplineSet
Ligature: 0 0 'liga' C uni030C
EndChar
StartChar: Dcaron
Encoding: 267 270 161
Width: 833
Flags: W
HStem: -3 55<320 369> 631 50<324 436>
VStem: 120 141<76 627> 636 150<346 382>
Fore
68 20 m 1
 100 38 l 2
 115 46 120 62 120 95 c 2
 120 543 l 2
 120 631 117 637 72 641 c 2
 35 644 l 1
 35 681 l 1
 184 678 184 678 197 678 c 0
 200 678 280 679 436 681 c 1
 571 680 651 656 709 598 c 0
 759 549 786 471 786 376 c 0
 786 269 751 180 682 113 c 0
 607 39 498 -3 379 -3 c 2
 320 -2 l 2
 295 -1 241 0 223 0 c 0
 204 0 204 0 68 -3 c 1
 68 20 l 1
261 627 m 1
 261 57 l 1
 286 53 304 52 329 52 c 0
 442 52 513 74 563 123 c 0
 611 171 636 247 636 348 c 0
 636 447 615 515 570 559 c 0
 521 607 441 631 324 631 c 0
 301 631 285 630 261 627 c 1
462 734 m 1
 369 734 l 1
 248 909 l 1
 303 909 l 1
 416 811 l 1
 528 909 l 1
 585 909 l 1
 462 734 l 1
EndSplineSet
Ligature: 0 0 'liga' D uni030C
EndChar
StartChar: Edieresis
Encoding: 268 203 162
Width: 611
Flags: W
HStem: -4 59<305.305 424> 328 50<332 416> 624 56<357 440> 761 134<192 201 406 424>
VStem: 124 141<73 325 95 620> 131 134<816.364 831> 346 134<826 831>
DStem: 455 291 498 349 461 241 501 241
Fore
265 620 m 1xfa
 265 380 l 1
 285 378 299 378 332 378 c 2
 398 378 l 2
 440 378 453 383 455 399 c 1
 461 456 l 1
 501 456 l 1
 498 361 498 360 498 349 c 1
 501 241 l 1
 461 241 l 1
 455 291 l 2
 452 317 436 328 398 328 c 2
 332 328 l 2
 310 328 293 327 265 325 c 1xfa
 265 58 l 1xf6
 316 56 355 55 396 55 c 0
 452 55 481 59 512 69 c 0
 514 70 515 71 515 72 c 1
 538 166 l 1
 577 166 l 1
 566 8 l 1
 561 0 l 1
 503 -3 472 -4 420 -4 c 0
 369 -4 329 -3 228 0 c 2
 194 0 l 2
 171 0 171 0 72 -3 c 1
 72 20 l 1
 104 38 l 2
 119 46 124 61 124 95 c 2
 124 543 l 2
 124 631 121 637 76 641 c 2
 39 644 l 1
 39 681 l 1
 149 679 192 678 227 678 c 0
 256 678 284 678 357 680 c 0
 412 681 442 682 465 682 c 0
 504 682 523 681 560 678 c 1
 566 671 l 1
 552 529 l 1
 516 529 l 1
 508 604 l 1
 507 615 464 624 410 624 c 0
 355 624 321 623 265 620 c 1xfa
414 895 m 0
 450 895 480 864 480 828 c 0
 480 791 450 761 413 761 c 0
 376 761 346 791 346 829 c 0
 346 865 376 895 414 895 c 0
199 895 m 0
 235 895 265 864 265 828 c 0
 265 791 235 761 198 761 c 0
 161 761 131 791 131 828 c 0xf6
 131 865 161 895 199 895 c 0
EndSplineSet
Ligature: 0 0 'liga' E uni0308
EndChar
StartChar: Eacute
Encoding: 269 201 163
Width: 611
Flags: W
HStem: -4 59<305.305 424> 328 50<332 416> 624 56<357 440>
VStem: 124 141<73 325 95 620>
DStem: 455 291 498 349 461 241 501 241
Fore
265 620 m 1
 265 380 l 1
 285 378 299 378 332 378 c 2
 398 378 l 2
 440 378 453 383 455 399 c 1
 461 456 l 1
 501 456 l 1
 498 361 498 360 498 349 c 1
 501 241 l 1
 461 241 l 1
 455 291 l 2
 452 317 436 328 398 328 c 2
 332 328 l 2
 310 328 293 327 265 325 c 1
 265 58 l 1
 316 56 355 55 396 55 c 0
 452 55 481 59 512 69 c 0
 514 70 515 71 515 72 c 1
 538 166 l 1
 577 166 l 1
 566 8 l 1
 561 0 l 1
 503 -3 472 -4 420 -4 c 0
 369 -4 329 -3 228 0 c 2
 194 0 l 2
 171 0 171 0 72 -3 c 1
 72 20 l 1
 104 38 l 2
 119 46 124 61 124 95 c 2
 124 543 l 2
 124 631 121 637 76 641 c 2
 39 644 l 1
 39 681 l 1
 149 679 192 678 227 678 c 0
 256 678 284 678 357 680 c 0
 412 681 442 682 465 682 c 0
 504 682 523 681 560 678 c 1
 566 671 l 1
 552 529 l 1
 516 529 l 1
 508 604 l 1
 507 615 464 624 410 624 c 0
 355 624 321 623 265 620 c 1
218 730 m 1
 347 878 l 2
 370 904 388 915 412 915 c 0
 438 915 456 898 456 871 c 0
 456 849 446 835 413 816 c 2
 405 811 l 1
 274 730 l 1
 218 730 l 1
EndSplineSet
Ligature: 0 0 'liga' E acutecomb
EndChar
StartChar: Egrave
Encoding: 270 200 164
Width: 611
Flags: W
HStem: -4 59<303.981 424> 328 50<332 412> 624 56<357 440>
VStem: 124 141<73 325 95 620>
DStem: 455 291 498 349 461 241 501 241
Fore
265 620 m 1
 265 380 l 1
 285 378 299 378 332 378 c 2
 398 378 l 2
 440 378 453 383 455 399 c 1
 461 456 l 1
 501 456 l 1
 498 361 498 360 498 349 c 1
 501 241 l 1
 461 241 l 1
 455 291 l 2
 452 317 436 328 398 328 c 2
 332 328 l 2
 310 328 293 327 265 325 c 1
 265 58 l 1
 316 56 355 55 396 55 c 0
 452 55 481 59 512 69 c 0
 514 70 515 71 515 72 c 1
 538 166 l 1
 577 166 l 1
 566 8 l 1
 561 0 l 1
 503 -3 472 -4 420 -4 c 0
 369 -4 329 -3 228 0 c 2
 194 0 l 2
 171 0 171 0 72 -3 c 1
 72 20 l 1
 104 38 l 2
 119 46 124 61 124 95 c 2
 124 543 l 2
 124 631 121 637 76 641 c 2
 39 644 l 1
 39 681 l 1
 149 679 192 678 227 678 c 0
 256 678 284 678 357 680 c 0
 412 681 442 682 465 682 c 0
 504 682 523 681 560 678 c 1
 566 671 l 1
 552 529 l 1
 516 529 l 1
 508 604 l 1
 507 615 464 624 410 624 c 0
 355 624 321 623 265 620 c 1
342 730 m 1
 211 811 l 2
 207 813 204 815 200 818 c 0
 170 835 160 849 160 871 c 0
 160 898 177 915 204 915 c 0
 227 915 246 904 269 878 c 2
 398 730 l 1
 342 730 l 1
EndSplineSet
Ligature: 0 0 'liga' E gravecomb
EndChar
StartChar: Ecircumflex
Encoding: 271 202 165
Width: 611
Flags: W
HStem: -4 59<305.305 430> 328 50<332 412> 624 56<357 440>
VStem: 124 141<73 325 95 620>
DStem: 455 291 498 349 461 241 501 241
Fore
265 620 m 1
 265 380 l 1
 285 378 299 378 332 378 c 2
 398 378 l 2
 440 378 453 383 455 399 c 1
 461 456 l 1
 501 456 l 1
 498 361 498 360 498 349 c 1
 501 241 l 1
 461 241 l 1
 455 291 l 2
 452 317 436 328 398 328 c 2
 332 328 l 2
 310 328 293 327 265 325 c 1
 265 58 l 1
 316 56 355 55 396 55 c 0
 452 55 481 59 512 69 c 0
 514 70 515 71 515 72 c 1
 538 166 l 1
 577 166 l 1
 566 8 l 1
 561 0 l 1
 503 -3 472 -4 420 -4 c 0
 369 -4 329 -3 228 0 c 2
 194 0 l 2
 171 0 171 0 72 -3 c 1
 72 20 l 1
 104 38 l 2
 119 46 124 61 124 95 c 2
 124 543 l 2
 124 631 121 637 76 641 c 2
 39 644 l 1
 39 681 l 1
 149 679 192 678 227 678 c 0
 256 678 284 678 357 680 c 0
 412 681 442 682 465 682 c 0
 504 682 523 681 560 678 c 1
 566 671 l 1
 552 529 l 1
 516 529 l 1
 508 604 l 1
 507 615 464 624 410 624 c 0
 355 624 321 623 265 620 c 1
269 905 m 1
 362 905 l 1
 485 730 l 1
 428 730 l 1
 316 828 l 1
 203 730 l 1
 148 730 l 1
 269 905 l 1
EndSplineSet
Ligature: 0 0 'liga' E uni0302
EndChar
StartChar: Ecaron
Encoding: 272 282 166
Width: 611
Flags: W
HStem: -4 59<305.305 423> 328 50<332 412> 624 56<357 440>
VStem: 124 141<73 325 95 620>
DStem: 455 291 498 349 461 241 501 241
Fore
265 620 m 1
 265 380 l 1
 285 378 299 378 332 378 c 2
 398 378 l 2
 440 378 453 383 455 399 c 1
 461 456 l 1
 501 456 l 1
 498 361 498 360 498 349 c 1
 501 241 l 1
 461 241 l 1
 455 291 l 2
 452 317 436 328 398 328 c 2
 332 328 l 2
 310 328 293 327 265 325 c 1
 265 58 l 1
 316 56 355 55 396 55 c 0
 452 55 481 59 512 69 c 0
 514 70 515 71 515 72 c 1
 538 166 l 1
 577 166 l 1
 566 8 l 1
 561 0 l 1
 503 -3 472 -4 420 -4 c 0
 369 -4 329 -3 228 0 c 2
 194 0 l 2
 171 0 171 0 72 -3 c 1
 72 20 l 1
 104 38 l 2
 119 46 124 61 124 95 c 2
 124 543 l 2
 124 631 121 637 76 641 c 2
 39 644 l 1
 39 681 l 1
 149 679 192 678 227 678 c 0
 256 678 284 678 357 680 c 0
 412 681 442 682 465 682 c 0
 504 682 523 681 560 678 c 1
 566 671 l 1
 552 529 l 1
 516 529 l 1
 508 604 l 1
 507 615 464 624 410 624 c 0
 355 624 321 623 265 620 c 1
351 734 m 1
 258 734 l 1
 137 909 l 1
 192 909 l 1
 305 811 l 1
 417 909 l 1
 474 909 l 1
 351 734 l 1
EndSplineSet
Ligature: 0 0 'liga' E uni030C
EndChar
StartChar: Edotaccent
Encoding: 273 278 167
Width: 611
Flags: W
HStem: -4 59<305.305 424> 328 50<332 412> 624 56<357 440> 761 134<304 312>
VStem: 124 141<73 325 95 620> 239 134<826 831>
DStem: 455 291 498 349 461 241 501 241
Fore
265 620 m 1xf8
 265 380 l 1
 285 378 299 378 332 378 c 2
 398 378 l 2
 440 378 453 383 455 399 c 1
 461 456 l 1
 501 456 l 1
 498 361 498 360 498 349 c 1
 501 241 l 1
 461 241 l 1
 455 291 l 2
 452 317 436 328 398 328 c 2
 332 328 l 2
 310 328 293 327 265 325 c 1
 265 58 l 1
 316 56 355 55 396 55 c 0
 452 55 481 59 512 69 c 0
 514 70 515 71 515 72 c 1
 538 166 l 1
 577 166 l 1
 566 8 l 1
 561 0 l 1
 503 -3 472 -4 420 -4 c 0
 369 -4 329 -3 228 0 c 2
 194 0 l 2
 171 0 171 0 72 -3 c 1
 72 20 l 1
 104 38 l 2
 119 46 124 61 124 95 c 2
 124 543 l 2
 124 631 121 637 76 641 c 2
 39 644 l 1
 39 681 l 1
 149 679 192 678 227 678 c 0
 256 678 284 678 357 680 c 0
 412 681 442 682 465 682 c 0
 504 682 523 681 560 678 c 1
 566 671 l 1
 552 529 l 1
 516 529 l 1
 508 604 l 1
 507 615 464 624 410 624 c 0
 355 624 321 623 265 620 c 1xf8
307 895 m 0
 343 895 373 864 373 828 c 0
 373 791 343 761 306 761 c 0
 269 761 239 791 239 829 c 0xf4
 239 865 269 895 307 895 c 0
EndSplineSet
Ligature: 0 0 'liga' E uni0307
EndChar
StartChar: Eogonek
Encoding: 274 280 168
Width: 611
Flags: W
HStem: -229 42<502 539> -4 59<326 424> 328 50<332 416> 624 56<357 440>
VStem: 124 141<73 325 95 620> 399 76<-129 -113>
DStem: 455 291 498 349 461 241 501 241
Fore
265 325 m 1
 265 58 l 1
 316 56 355 55 396 55 c 0
 452 55 481 59 512 69 c 0
 514 70 515 71 515 72 c 1
 538 166 l 1
 577 166 l 1
 566 8 l 1
 561 0 l 1
 557 0 l 1
 549 -1 l 2
 527 -2 509 -18 492 -53 c 0
 481 -74 475 -95 475 -115 c 0
 475 -159 500 -187 539 -187 c 0
 561 -187 577 -183 607 -172 c 1
 613 -198 l 1
 583 -219 546 -229 502 -229 c 0
 437 -229 399 -191 399 -127 c 0
 399 -67 426 -27 484 -4 c 1
 414 -4 l 2
 357 -4 352 -4 228 0 c 2
 194 0 l 2
 171 0 171 0 72 -3 c 1
 72 20 l 1
 104 38 l 2
 119 46 124 61 124 95 c 2
 124 543 l 2
 124 631 121 637 76 641 c 2
 39 644 l 1
 39 681 l 1
 149 679 192 678 227 678 c 0
 256 678 284 678 357 680 c 0
 412 681 442 682 465 682 c 0
 504 682 523 681 560 678 c 1
 566 671 l 1
 552 529 l 1
 516 529 l 1
 508 604 l 1
 507 615 464 624 410 624 c 0
 355 624 321 623 265 620 c 1
 265 380 l 1
 285 378 299 378 332 378 c 2
 398 378 l 2
 440 378 453 383 455 399 c 1
 461 456 l 1
 501 456 l 1
 498 361 498 360 498 349 c 1
 501 241 l 1
 461 241 l 1
 455 291 l 2
 452 317 436 328 398 328 c 2
 332 328 l 2
 310 328 293 327 265 325 c 1
EndSplineSet
Ligature: 0 0 'liga' E uni0328
EndChar
StartChar: Gbreve
Encoding: 275 286 169
Width: 833
Flags: W
HStem: -17 56<438 480> 639 56<430 485> 730 76<430 448>
VStem: 47 150<334 368> 593 142<63 206>
Fore
776 276 m 1
 776 242 l 1
 739 234 735 230 735 206 c 2
 735 43 l 1
 615 -2 539 -17 438 -17 c 0
 201 -17 47 126 47 346 c 0
 47 562 205 695 461 695 c 0
 559 695 631 682 722 648 c 1
 728 637 l 1
 719 599 716 580 705 484 c 1
 666 484 l 1
 661 570 l 1
 637 593 628 600 603 610 c 0
 560 629 507 639 456 639 c 0
 293 639 197 534 197 358 c 0
 197 168 305 39 466 39 c 0
 509 39 542 45 593 64 c 1
 593 196 l 2
 593 222 578 231 536 233 c 2
 483 235 l 1
 483 276 l 1
 564 274 603 273 626 273 c 0
 652 273 652 273 776 276 c 1
285 893 m 1
 329 893 l 1
 340 834 374 806 433 806 c 0
 471 806 500 818 520 842 c 0
 534 857 544 878 544 891 c 2
 544 893 l 1
 588 893 l 1
 584 845 578 821 562 794 c 0
 535 752 493 730 437 730 c 0
 376 730 329 756 304 804 c 0
 291 830 287 850 285 893 c 1
EndSplineSet
Ligature: 0 0 'liga' G uni0306
EndChar
StartChar: Idieresis
Encoding: 276 207 170
Width: 389
Flags: W
HStem: 0 21G<177 211> 761 134<76 90 291 313>
VStem: 20 134<826 831> 235 134<826 831>
Fore
265 543 m 2
 265 135 l 2
 265 46 266 44 313 40 c 2
 350 37 l 1
 350 -3 l 1
 229 0 228 0 194 0 c 0
 160 0 160 0 39 -3 c 1
 39 37 l 1
 76 40 l 2
 123 44 124 46 124 135 c 2
 124 543 l 2
 124 632 123 634 76 638 c 2
 39 641 l 1
 39 681 l 1
 159 678 160 678 194 678 c 0
 228 678 228 678 350 681 c 1
 350 641 l 1
 313 638 l 2
 266 634 265 632 265 543 c 2
303 895 m 0
 339 895 369 864 369 828 c 0
 369 791 339 761 302 761 c 0
 265 761 235 791 235 829 c 0
 235 865 265 895 303 895 c 0
88 895 m 0
 124 895 154 864 154 828 c 0
 154 791 124 761 87 761 c 0
 50 761 20 791 20 829 c 0
 20 865 50 895 88 895 c 0
EndSplineSet
Ligature: 0 0 'liga' I uni0308
EndChar
StartChar: Iacute
Encoding: 277 205 171
Width: 389
Flags: W
HStem: 0 21G<177 211>
VStem: 124 141<135 590>
Fore
265 543 m 2
 265 135 l 2
 265 46 266 44 313 40 c 2
 350 37 l 1
 350 -3 l 1
 229 0 228 0 194 0 c 0
 160 0 160 0 39 -3 c 1
 39 37 l 1
 76 40 l 2
 123 44 124 46 124 135 c 2
 124 543 l 2
 124 632 123 634 76 638 c 2
 39 641 l 1
 39 681 l 1
 159 678 160 678 194 678 c 0
 228 678 228 678 350 681 c 1
 350 641 l 1
 313 638 l 2
 266 634 265 632 265 543 c 2
106 730 m 1
 235 878 l 2
 258 904 276 915 300 915 c 0
 326 915 344 898 344 871 c 0
 344 849 334 835 301 816 c 2
 293 811 l 1
 162 730 l 1
 106 730 l 1
EndSplineSet
Ligature: 0 0 'liga' I acutecomb
EndChar
StartChar: Igrave
Encoding: 278 204 172
Width: 389
Flags: W
HStem: 0 21G<177 211>
VStem: 124 141<135 590>
Fore
265 543 m 2
 265 135 l 2
 265 46 266 44 313 40 c 2
 350 37 l 1
 350 -3 l 1
 229 0 228 0 194 0 c 0
 160 0 160 0 39 -3 c 1
 39 37 l 1
 76 40 l 2
 123 44 124 46 124 135 c 2
 124 543 l 2
 124 632 123 634 76 638 c 2
 39 641 l 1
 39 681 l 1
 159 678 160 678 194 678 c 0
 228 678 228 678 350 681 c 1
 350 641 l 1
 313 638 l 2
 266 634 265 632 265 543 c 2
221 730 m 1
 90 811 l 2
 86 813 83 815 79 818 c 0
 49 835 39 849 39 871 c 0
 39 898 56 915 83 915 c 0
 106 915 125 904 148 878 c 2
 277 730 l 1
 221 730 l 1
EndSplineSet
Ligature: 0 0 'liga' I gravecomb
EndChar
StartChar: Icircumflex
Encoding: 279 206 173
Width: 389
Flags: W
HStem: 0 21G<177 211>
VStem: 124 141<135 590>
Fore
265 543 m 2
 265 135 l 2
 265 46 266 44 313 40 c 2
 350 37 l 1
 350 -3 l 1
 229 0 228 0 194 0 c 0
 160 0 160 0 39 -3 c 1
 39 37 l 1
 76 40 l 2
 123 44 124 46 124 135 c 2
 124 543 l 2
 124 632 123 634 76 638 c 2
 39 641 l 1
 39 681 l 1
 159 678 160 678 194 678 c 0
 228 678 228 678 350 681 c 1
 350 641 l 1
 313 638 l 2
 266 634 265 632 265 543 c 2
147 905 m 1
 240 905 l 1
 363 730 l 1
 306 730 l 1
 194 828 l 1
 81 730 l 1
 26 730 l 1
 147 905 l 1
EndSplineSet
Ligature: 0 0 'liga' I uni0302
EndChar
StartChar: Idotaccent
Encoding: 280 304 174
Width: 389
Flags: W
HStem: 0 21G<177 211> 761 134<192 200>
VStem: 124 141<135 590>
Fore
265 543 m 2
 265 135 l 2
 265 46 266 44 313 40 c 2
 350 37 l 1
 350 -3 l 1
 229 0 228 0 194 0 c 0
 160 0 160 0 39 -3 c 1
 39 37 l 1
 76 40 l 2
 123 44 124 46 124 135 c 2
 124 543 l 2
 124 632 123 634 76 638 c 2
 39 641 l 1
 39 681 l 1
 159 678 160 678 194 678 c 0
 228 678 228 678 350 681 c 1
 350 641 l 1
 313 638 l 2
 266 634 265 632 265 543 c 2
196 895 m 0
 232 895 262 864 262 828 c 0
 262 791 232 761 195 761 c 0
 158 761 128 791 128 829 c 0
 128 865 158 895 196 895 c 0
EndSplineSet
Ligature: 0 0 'liga' I uni0307
EndChar
StartChar: Lacute
Encoding: 281 313 175
Width: 611
Flags: W
HStem: -4 59<305.626 424>
VStem: 124 141<73 589>
Fore
265 543 m 2
 265 58 l 1
 317 56 354 55 396 55 c 0
 458 55 513 63 515 72 c 2
 538 174 l 1
 577 174 l 1
 566 8 l 1
 561 0 l 1
 503 -3 472 -4 420 -4 c 0
 369 -4 329 -3 228 0 c 2
 194 0 l 2
 171 0 171 0 72 -3 c 1
 72 20 l 1
 104 38 l 2
 119 46 124 61 124 95 c 2
 124 543 l 2
 124 632 123 634 76 638 c 2
 39 641 l 1
 39 681 l 1
 159 678 160 678 194 678 c 0
 228 678 228 678 350 681 c 1
 350 641 l 1
 313 638 l 2
 266 634 265 632 265 543 c 2
217 730 m 1
 346 878 l 2
 369 904 387 915 411 915 c 0
 437 915 455 898 455 871 c 0
 455 849 445 835 412 816 c 2
 404 811 l 1
 273 730 l 1
 217 730 l 1
EndSplineSet
Ligature: 0 0 'liga' L acutecomb
EndChar
StartChar: Lcaron
Encoding: 282 317 176
Width: 611
Flags: W
HStem: -4 59<305.626 424>
VStem: 124 141<73 589>
Fore
265 543 m 2
 265 58 l 1
 317 56 354 55 396 55 c 0
 458 55 513 63 515 72 c 2
 538 174 l 1
 577 174 l 1
 566 8 l 1
 561 0 l 1
 503 -3 472 -4 420 -4 c 0
 369 -4 329 -3 228 0 c 2
 194 0 l 2
 171 0 171 0 72 -3 c 1
 72 20 l 1
 104 38 l 2
 119 46 124 61 124 95 c 2
 124 543 l 2
 124 632 123 634 76 638 c 2
 39 641 l 1
 39 681 l 1
 159 678 160 678 194 678 c 0
 228 678 228 678 350 681 c 1
 350 641 l 1
 313 638 l 2
 266 634 265 632 265 543 c 2
479 458 m 1
 420 434 l 1
 407 448 l 1
 438 518 463 601 474 665 c 1
 516 670 558 681 592 695 c 1
 605 683 l 1
 579 624 530 537 479 458 c 1
EndSplineSet
Ligature: 0 0 'liga' L uni030C
EndChar
StartChar: Nacute
Encoding: 283 323 177
Width: 833
Flags: W
HStem: 0 21G<140.5 160>
VStem: 120 59<135 528> 654 59<184 593>
DStem: 179 528 342 548 505 136 654 184
Fore
155 678 m 1
 239 681 l 1
 303 596 321 572 342 548 c 2
 654 184 l 1
 654 543 l 2
 654 631 651 637 606 641 c 2
 569 644 l 1
 569 681 l 1
 657 678 673 678 684 678 c 2
 798 681 l 1
 798 644 l 1
 761 641 l 2
 716 637 713 631 713 543 c 2
 713 89 l 2
 713 66 714 44 716 -12 c 1
 709 -16 l 1
 627 -3 l 1
 505 136 l 1
 179 528 l 1
 179 135 l 2
 179 46 182 41 227 37 c 2
 264 34 l 1
 264 -3 l 1
 216 -1 170 0 150 0 c 0
 131 0 131 0 35 -3 c 1
 35 34 l 1
 72 37 l 2
 117 41 120 47 120 135 c 2
 120 543 l 2
 120 631 117 637 72 641 c 2
 35 644 l 1
 35 681 l 1
 92 679 125 678 134 678 c 2
 155 678 l 1
328 730 m 1
 457 878 l 2
 480 904 498 915 522 915 c 0
 548 915 566 898 566 871 c 0
 566 849 556 835 523 816 c 2
 515 811 l 1
 384 730 l 1
 328 730 l 1
EndSplineSet
Ligature: 0 0 'liga' N acutecomb
EndChar
StartChar: Ncaron
Encoding: 284 327 178
Width: 833
Flags: W
HStem: 0 21G<140.5 160>
VStem: 120 59<135 528> 654 59<184 593>
DStem: 179 528 342 548 505 136 654 184
Fore
155 678 m 1
 239 681 l 1
 303 596 321 572 342 548 c 2
 654 184 l 1
 654 543 l 2
 654 631 651 637 606 641 c 2
 569 644 l 1
 569 681 l 1
 657 678 673 678 684 678 c 2
 798 681 l 1
 798 644 l 1
 761 641 l 2
 716 637 713 631 713 543 c 2
 713 89 l 2
 713 66 714 44 716 -12 c 1
 709 -16 l 1
 627 -3 l 1
 505 136 l 1
 179 528 l 1
 179 135 l 2
 179 46 182 41 227 37 c 2
 264 34 l 1
 264 -3 l 1
 216 -1 170 0 150 0 c 0
 131 0 131 0 35 -3 c 1
 35 34 l 1
 72 37 l 2
 117 41 120 47 120 135 c 2
 120 543 l 2
 120 631 117 637 72 641 c 2
 35 644 l 1
 35 681 l 1
 92 679 125 678 134 678 c 2
 155 678 l 1
462 734 m 1
 369 734 l 1
 248 909 l 1
 303 909 l 1
 416 811 l 1
 528 909 l 1
 585 909 l 1
 462 734 l 1
EndSplineSet
Ligature: 0 0 'liga' N uni030C
EndChar
StartChar: Ntilde
Encoding: 285 209 179
Width: 833
Flags: W
HStem: 0 21G<140.5 160> 759 78<482 506> 808 77<321 351>
VStem: 120 59<135 528> 654 59<184 593>
DStem: 179 528 342 548 505 136 654 184
Fore
155 678 m 1x98
 239 681 l 1
 303 596 321 572 342 548 c 2
 654 184 l 1
 654 543 l 2
 654 631 651 637 606 641 c 2
 569 644 l 1
 569 681 l 1
 657 678 673 678 684 678 c 2
 798 681 l 1
 798 644 l 1
 761 641 l 2
 716 637 713 631 713 543 c 2
 713 89 l 2
 713 66 714 44 716 -12 c 1
 709 -16 l 1
 627 -3 l 1
 505 136 l 1
 179 528 l 1
 179 135 l 2
 179 46 182 41 227 37 c 2
 264 34 l 1
 264 -3 l 1
 216 -1 170 0 150 0 c 0
 131 0 131 0 35 -3 c 1
 35 34 l 1
 72 37 l 2
 117 41 120 47 120 135 c 2
 120 543 l 2
 120 631 117 637 72 641 c 2
 35 644 l 1
 35 681 l 1
 92 679 125 678 134 678 c 2
 155 678 l 1x98
557 885 m 1xb8
 600 885 l 1xb8
 576 798 540 759 482 759 c 0xd8
 459 759 438 765 398 784 c 0
 361 802 340 808 321 808 c 0
 301 808 285 792 275 760 c 1
 235 760 l 1
 243 834 291 885 351 885 c 0xb8
 374 885 393 879 431 861 c 0
 469 843 487 837 506 837 c 0xd8
 530 837 539 846 557 885 c 1xb8
EndSplineSet
Ligature: 0 0 'liga' N tildecomb
EndChar
StartChar: Odieresis
Encoding: 286 214 180
Width: 833
Flags: W
HStem: -17 56<398 432> 639 56<398 432> 761 134<302 309 510 528>
VStem: 47 150<323 357> 239 134<816.364 831> 454 134<826 831> 637 150<318 357>
Fore
430 695 m 0
 656 695 787 566 787 346 c 0
 787 118 646 -17 407 -17 c 0
 178 -17 47 110 47 332 c 0
 47 561 188 695 430 695 c 0
421 639 m 0
 358 639 306 620 267 582 c 0
 222 537 197 457 197 355 c 0
 197 240 228 144 282 91 c 0
 318 55 359 39 414 39 c 0
 560 39 637 137 637 325 c 0
 637 438 606 534 551 588 c 0
 516 622 474 639 421 639 c 0
522 895 m 0
 558 895 588 864 588 828 c 0
 588 791 558 761 521 761 c 0
 484 761 454 791 454 829 c 0
 454 865 484 895 522 895 c 0
307 895 m 0
 343 895 373 864 373 828 c 0
 373 791 343 761 306 761 c 0
 269 761 239 791 239 828 c 0
 239 865 269 895 307 895 c 0
EndSplineSet
KernsSLIF: 89 -37 0 0 88 -42 0 0 87 -31 0 0 86 -49 0 0 84 -9 0 0 65 -51 0 0
Ligature: 0 0 'liga' O uni0308
EndChar
StartChar: Oacute
Encoding: 287 211 181
Width: 833
Flags: W
HStem: -17 56<398 432> 639 56<398 432>
VStem: 47 150<323 357> 637 150<318 357>
Fore
430 695 m 0
 656 695 787 566 787 346 c 0
 787 118 646 -17 407 -17 c 0
 178 -17 47 110 47 332 c 0
 47 561 188 695 430 695 c 0
421 639 m 0
 358 639 306 620 267 582 c 0
 222 537 197 457 197 355 c 0
 197 240 228 144 282 91 c 0
 318 55 359 39 414 39 c 0
 560 39 637 137 637 325 c 0
 637 438 606 534 551 588 c 0
 516 622 474 639 421 639 c 0
329 730 m 1
 458 878 l 2
 481 904 499 915 523 915 c 0
 549 915 567 898 567 871 c 0
 567 849 557 835 524 816 c 2
 516 811 l 1
 385 730 l 1
 329 730 l 1
EndSplineSet
KernsSLIF: 89 -37 0 0 87 -31 0 0 86 -49 0 0 84 -9 0 0 65 -51 0 0
Ligature: 0 0 'liga' O acutecomb
EndChar
StartChar: Ograve
Encoding: 288 210 182
Width: 833
Flags: W
HStem: -17 56<398 432> 639 56<398 442>
VStem: 47 150<323 357> 637 150<318 357>
Fore
430 695 m 0
 656 695 787 566 787 346 c 0
 787 118 646 -17 407 -17 c 0
 178 -17 47 110 47 332 c 0
 47 561 188 695 430 695 c 0
421 639 m 0
 358 639 306 620 267 582 c 0
 222 537 197 457 197 355 c 0
 197 240 228 144 282 91 c 0
 318 55 359 39 414 39 c 0
 560 39 637 137 637 325 c 0
 637 438 606 534 551 588 c 0
 516 622 474 639 421 639 c 0
442 730 m 1
 311 811 l 2
 307 813 304 815 300 818 c 0
 270 835 260 849 260 871 c 0
 260 898 277 915 304 915 c 0
 327 915 346 904 369 878 c 2
 498 730 l 1
 442 730 l 1
EndSplineSet
KernsSLIF: 89 -37 0 0 86 -49 0 0 84 -9 0 0
Ligature: 0 0 'liga' O gravecomb
EndChar
StartChar: Ocircumflex
Encoding: 289 212 183
Width: 833
Flags: W
HStem: -17 56<398 432> 639 56<398 432>
VStem: 47 150<323 357> 637 150<318 357>
Fore
430 695 m 0
 656 695 787 566 787 346 c 0
 787 118 646 -17 407 -17 c 0
 178 -17 47 110 47 332 c 0
 47 561 188 695 430 695 c 0
421 639 m 0
 358 639 306 620 267 582 c 0
 222 537 197 457 197 355 c 0
 197 240 228 144 282 91 c 0
 318 55 359 39 414 39 c 0
 560 39 637 137 637 325 c 0
 637 438 606 534 551 588 c 0
 516 622 474 639 421 639 c 0
358 905 m 1
 451 905 l 1
 574 730 l 1
 517 730 l 1
 405 828 l 1
 292 730 l 1
 237 730 l 1
 358 905 l 1
EndSplineSet
KernsSLIF: 89 -37 0 0 86 -49 0 0 84 -9 0 0
Ligature: 0 0 'liga' O uni0302
EndChar
StartChar: Otilde
Encoding: 290 213 184
Width: 833
Flags: W
HStem: -17 56<396 434> 639 56<396 434> 759 78<482 506> 808 77<321 351>
VStem: 47 150<323 357> 637 150<318 357>
Fore
430 695 m 0xcc
 656 695 787 566 787 346 c 0
 787 118 646 -17 407 -17 c 0
 178 -17 47 110 47 332 c 0
 47 561 188 695 430 695 c 0xcc
421 639 m 0
 358 639 306 620 267 582 c 0
 222 537 197 457 197 355 c 0
 197 240 228 144 282 91 c 0
 318 55 359 39 414 39 c 0
 560 39 637 137 637 325 c 0
 637 438 606 534 551 588 c 0
 516 622 474 639 421 639 c 0
557 885 m 1xdc
 600 885 l 1xdc
 576 798 540 759 482 759 c 0xec
 459 759 438 765 398 784 c 0
 361 802 340 808 321 808 c 0
 301 808 285 792 275 760 c 1
 235 760 l 1
 243 834 291 885 351 885 c 0xdc
 374 885 393 879 431 861 c 0
 469 843 487 837 506 837 c 0xec
 530 837 539 846 557 885 c 1xdc
EndSplineSet
KernsSLIF: 89 -37 0 0 86 -49 0 0 84 -9 0 0
Ligature: 0 0 'liga' O tildecomb
EndChar
StartChar: Ohungarumlaut
Encoding: 291 336 185
Width: 833
Flags: W
HStem: -17 56<398 434> 639 56<398 434>
VStem: 47 150<323 357> 637 150<318 357>
Fore
430 695 m 0
 656 695 787 566 787 346 c 0
 787 118 646 -17 407 -17 c 0
 178 -17 47 110 47 332 c 0
 47 561 188 695 430 695 c 0
421 639 m 0
 358 639 306 620 267 582 c 0
 222 537 197 457 197 355 c 0
 197 240 228 144 282 91 c 0
 318 55 359 39 414 39 c 0
 560 39 637 137 637 325 c 0
 637 438 606 534 551 588 c 0
 516 622 474 639 421 639 c 0
402 730 m 1
 530 878 l 2
 555 907 569 915 593 915 c 0
 621 915 640 896 640 868 c 0
 640 851 634 839 621 831 c 2
 456 730 l 1
 402 730 l 1
194 730 m 1
 322 878 l 2
 347 907 361 915 385 915 c 0
 413 915 432 896 432 869 c 0
 432 851 426 839 413 831 c 2
 248 730 l 1
 194 730 l 1
EndSplineSet
Ligature: 0 0 'liga' O uni030B
EndChar
StartChar: Racute
Encoding: 292 340 186
Width: 722
Flags: W
HStem: 0 21G<177 211> 631 47<217 324>
VStem: 124 141<135 590> 464 142<503 534>
DStem: 297 344 457 356 521 -3 638 82
Fore
457 356 m 1
 638 82 l 1
 662 50 672 44 708 37 c 1
 708 -3 l 1
 671 -1 662 -1 611 0 c 1
 521 -3 l 1
 297 344 l 1
 304 362 l 1
 348 361 373 366 398 381 c 0
 439 405 464 450 464 503 c 0
 464 584 413 631 324 631 c 0
 298 631 279 628 265 622 c 1
 265 135 l 2
 265 46 266 44 313 40 c 2
 350 37 l 1
 350 -3 l 1
 229 0 228 0 194 0 c 0
 160 0 160 0 39 -3 c 1
 39 37 l 1
 76 40 l 2
 123 44 124 46 124 135 c 2
 124 543 l 2
 124 631 121 637 76 641 c 2
 39 644 l 1
 39 681 l 1
 189 678 189 678 217 678 c 0
 239 678 321 679 347 680 c 0
 381 681 405 681 416 681 c 0
 542 681 606 631 606 534 c 0
 606 492 592 455 563 424 c 1
 537 394 513 379 457 356 c 1
273 730 m 1
 402 878 l 2
 425 904 443 915 467 915 c 0
 493 915 511 898 511 871 c 0
 511 849 501 835 468 816 c 2
 460 811 l 1
 329 730 l 1
 273 730 l 1
EndSplineSet
Ligature: 0 0 'liga' R acutecomb
EndChar
StartChar: Rcaron
Encoding: 293 344 187
Width: 722
Flags: W
HStem: 0 21G<177 211> 631 47<217 324>
VStem: 124 141<135 590> 464 142<503 534>
DStem: 297 344 457 356 521 -3 638 82
Fore
457 356 m 1
 638 82 l 1
 662 50 672 44 708 37 c 1
 708 -3 l 1
 671 -1 662 -1 611 0 c 1
 521 -3 l 1
 297 344 l 1
 304 362 l 1
 348 361 373 366 398 381 c 0
 439 405 464 450 464 503 c 0
 464 584 413 631 324 631 c 0
 298 631 279 628 265 622 c 1
 265 135 l 2
 265 46 266 44 313 40 c 2
 350 37 l 1
 350 -3 l 1
 229 0 228 0 194 0 c 0
 160 0 160 0 39 -3 c 1
 39 37 l 1
 76 40 l 2
 123 44 124 46 124 135 c 2
 124 543 l 2
 124 631 121 637 76 641 c 2
 39 644 l 1
 39 681 l 1
 189 678 189 678 217 678 c 0
 239 678 321 679 347 680 c 0
 381 681 405 681 416 681 c 0
 542 681 606 631 606 534 c 0
 606 492 592 455 563 424 c 1
 537 394 513 379 457 356 c 1
407 734 m 1
 314 734 l 1
 193 909 l 1
 248 909 l 1
 361 811 l 1
 473 909 l 1
 530 909 l 1
 407 734 l 1
EndSplineSet
Ligature: 0 0 'liga' R uni030C
EndChar
StartChar: Sacute
Encoding: 294 346 188
Width: 611
Flags: W
HStem: -17 54<263 296> 644 51<311 331>
VStem: 64 124<481 527> 433 126<166 220>
Fore
72 202 m 1
 112 202 l 1
 119 114 l 1
 150 67 215 37 283 37 c 0
 369 37 433 92 433 166 c 0
 433 214 406 245 350 262 c 2
 210 304 l 2
 116 332 64 395 64 481 c 0
 64 615 163 695 329 695 c 0
 395 695 447 685 514 661 c 1
 519 649 l 1
 510 620 505 572 505 507 c 1
 464 507 l 1
 458 589 l 1
 420 626 375 644 322 644 c 0
 243 644 188 596 188 527 c 0
 188 476 220 445 294 426 c 2
 408 396 l 2
 507 370 559 309 559 220 c 0
 559 76 444 -17 265 -17 c 0
 190 -17 130 -4 57 29 c 1
 68 86 72 127 72 202 c 1
257 730 m 1
 386 878 l 2
 409 904 427 915 451 915 c 0
 477 915 495 898 495 871 c 0
 495 849 485 835 452 816 c 2
 444 811 l 1
 313 730 l 1
 257 730 l 1
EndSplineSet
Ligature: 0 0 'liga' S acutecomb
EndChar
StartChar: Scaron
Encoding: 295 352 189
Width: 611
Flags: W
HStem: -17 54<263 296> 644 51<312 331>
VStem: 64 124<481 527> 433 126<166 220>
Fore
72 202 m 1
 112 202 l 1
 119 114 l 1
 150 67 215 37 283 37 c 0
 369 37 433 92 433 166 c 0
 433 214 406 245 350 262 c 2
 210 304 l 2
 116 332 64 395 64 481 c 0
 64 615 163 695 329 695 c 0
 395 695 447 685 514 661 c 1
 519 649 l 1
 510 620 505 572 505 507 c 1
 464 507 l 1
 458 589 l 1
 420 626 375 644 322 644 c 0
 243 644 188 596 188 527 c 0
 188 476 220 445 294 426 c 2
 408 396 l 2
 507 370 559 309 559 220 c 0
 559 76 444 -17 265 -17 c 0
 190 -17 130 -4 57 29 c 1
 68 86 72 127 72 202 c 1
375 734 m 1
 282 734 l 1
 161 909 l 1
 216 909 l 1
 329 811 l 1
 441 909 l 1
 498 909 l 1
 375 734 l 1
EndSplineSet
Ligature: 0 0 'liga' S uni030C
EndChar
StartChar: Scedilla
Encoding: 296 350 190
Width: 611
Flags: W
HStem: -225 46<248 270> -107 144<261 283> 644 51<302 331>
VStem: 64 124<481 527> 305 94<-146 -136> 433 126<166 220>
DStem: 260 -17 301 -15 221 -103 277 -71
Fore
514 661 m 1
 519 649 l 1
 510 620 505 572 505 507 c 1
 464 507 l 1
 458 589 l 1
 420 626 375 644 322 644 c 0
 243 644 188 596 188 527 c 0
 188 476 220 445 294 426 c 2
 408 396 l 2
 507 370 559 309 559 220 c 0
 559 86 464 -1 301 -15 c 1
 277 -71 l 1
 296 -66 308 -65 322 -65 c 0
 369 -65 399 -93 399 -138 c 0
 399 -191 347 -225 266 -225 c 0
 237 -225 208 -219 172 -207 c 1
 188 -170 l 1
 222 -177 236 -179 255 -179 c 0
 288 -179 305 -166 305 -142 c 0
 305 -120 291 -107 267 -107 c 0
 260 -107 255 -108 231 -111 c 1
 221 -103 l 1
 260 -17 l 1
 186 -16 119 -1 57 29 c 1
 68 86 72 127 72 202 c 1
 112 202 l 1
 119 114 l 1
 150 67 215 37 283 37 c 0
 369 37 433 92 433 166 c 0
 433 214 406 245 350 262 c 2
 210 304 l 2
 116 332 64 395 64 481 c 0
 64 615 163 695 329 695 c 0
 395 695 447 685 514 661 c 1
EndSplineSet
Ligature: 0 0 'liga' S uni0327
EndChar
StartChar: Tcaron
Encoding: 297 356 191
Width: 667
Flags: W
HStem: 0 21G<316 350> 619 59<334 500.045>
VStem: 263 141<135 619>
Fore
404 619 m 1
 404 135 l 2
 404 46 405 44 452 40 c 2
 489 37 l 1
 489 -3 l 1
 368 0 367 0 333 0 c 0
 299 0 299 0 178 -3 c 1
 178 37 l 1
 215 40 l 2
 262 44 263 46 263 135 c 2
 263 619 l 1
 146 619 l 2
 104 619 88 616 83 609 c 0
 80 604 75 592 75 586 c 1
 70 517 l 1
 30 517 l 1
 27 593 25 628 17 676 c 1
 23 681 l 1
 299 678 299 678 334 678 c 0
 368 678 368 678 644 681 c 1
 650 676 l 1
 642 628 639 593 637 517 c 1
 597 517 l 1
 592 586 l 1
 583 610 l 1
 574 617 563 619 521 619 c 2
 404 619 l 1
379 734 m 1
 286 734 l 1
 165 909 l 1
 220 909 l 1
 333 811 l 1
 445 909 l 1
 502 909 l 1
 379 734 l 1
EndSplineSet
Ligature: 0 0 'liga' T uni030C
EndChar
StartChar: Udieresis
Encoding: 298 220 192
Width: 778
Flags: W
HStem: -17 82<391 428> 761 134<297 315 518 531>
VStem: 111 141<177 592> 238 134<816.364 831> 453 134<826 831> 616 59<270 592>
Fore
675 543 m 2xec
 675 251 l 2
 675 70 582 -17 391 -17 c 0
 219 -17 111 58 111 177 c 2
 111 543 l 2
 111 631 108 637 63 641 c 2
 26 644 l 1
 26 681 l 1
 146 678 147 678 181 678 c 0
 215 678 215 678 337 681 c 1
 337 644 l 1
 300 641 l 2
 255 637 252 631 252 543 c 2
 252 295 l 2
 252 193 261 146 287 114 c 0
 314 81 359 65 428 65 c 0
 494 65 541 79 569 108 c 0
 603 143 616 196 616 302 c 2
 616 543 l 2
 616 631 613 637 568 641 c 2
 531 644 l 1
 531 681 l 1
 619 678 635 678 646 678 c 2
 760 681 l 1
 760 644 l 1
 723 641 l 2
 678 637 675 631 675 543 c 2xec
521 895 m 0
 557 895 587 864 587 828 c 0
 587 791 557 761 520 761 c 0
 483 761 453 791 453 829 c 0
 453 865 483 895 521 895 c 0
306 895 m 0
 342 895 372 864 372 828 c 0
 372 791 342 761 305 761 c 0
 268 761 238 791 238 828 c 0xdc
 238 865 268 895 306 895 c 0
EndSplineSet
KernsSLIF: 114 -23 0 0 46 -13 0 0 112 -23 0 0 110 -20 0 0 109 -20 0 0 44 -24 0 0 98 29 0 0 65 -51 0 0
Ligature: 0 0 'liga' U uni0308
EndChar
StartChar: Uacute
Encoding: 299 218 193
Width: 778
Flags: W
HStem: -17 82<391 428>
VStem: 111 141<177 592> 616 59<270 592>
Fore
675 543 m 2
 675 251 l 2
 675 70 582 -17 391 -17 c 0
 219 -17 111 58 111 177 c 2
 111 543 l 2
 111 631 108 637 63 641 c 2
 26 644 l 1
 26 681 l 1
 146 678 147 678 181 678 c 0
 215 678 215 678 337 681 c 1
 337 644 l 1
 300 641 l 2
 255 637 252 631 252 543 c 2
 252 295 l 2
 252 193 261 146 287 114 c 0
 314 81 359 65 428 65 c 0
 494 65 541 79 569 108 c 0
 603 143 616 196 616 302 c 2
 616 543 l 2
 616 631 613 637 568 641 c 2
 531 644 l 1
 531 681 l 1
 619 678 635 678 646 678 c 2
 760 681 l 1
 760 644 l 1
 723 641 l 2
 678 637 675 631 675 543 c 2
327 730 m 1
 456 878 l 2
 479 904 497 915 521 915 c 0
 547 915 565 898 565 871 c 0
 565 849 555 835 522 816 c 2
 514 811 l 1
 383 730 l 1
 327 730 l 1
EndSplineSet
KernsSLIF: 114 -23 0 0 46 -13 0 0 112 -23 0 0 110 -20 0 0 109 -20 0 0 44 -24 0 0 65 -51 0 0
Ligature: 0 0 'liga' U acutecomb
EndChar
StartChar: Ugrave
Encoding: 300 217 194
Width: 778
Flags: W
HStem: -17 82<391 428>
VStem: 111 141<177 592> 616 59<270 592>
Fore
675 543 m 2
 675 251 l 2
 675 70 582 -17 391 -17 c 0
 219 -17 111 58 111 177 c 2
 111 543 l 2
 111 631 108 637 63 641 c 2
 26 644 l 1
 26 681 l 1
 146 678 147 678 181 678 c 0
 215 678 215 678 337 681 c 1
 337 644 l 1
 300 641 l 2
 255 637 252 631 252 543 c 2
 252 295 l 2
 252 193 261 146 287 114 c 0
 314 81 359 65 428 65 c 0
 494 65 541 79 569 108 c 0
 603 143 616 196 616 302 c 2
 616 543 l 2
 616 631 613 637 568 641 c 2
 531 644 l 1
 531 681 l 1
 619 678 635 678 646 678 c 2
 760 681 l 1
 760 644 l 1
 723 641 l 2
 678 637 675 631 675 543 c 2
446 730 m 1
 315 811 l 2
 311 813 308 815 304 818 c 0
 274 835 264 849 264 871 c 0
 264 898 281 915 308 915 c 0
 331 915 350 904 373 878 c 2
 502 730 l 1
 446 730 l 1
EndSplineSet
KernsSLIF: 65 -51 0 0
Ligature: 0 0 'liga' U gravecomb
EndChar
StartChar: Ucircumflex
Encoding: 301 219 195
Width: 778
Flags: W
HStem: -17 82<391 428>
VStem: 111 141<177 592> 616 59<270 592>
Fore
675 543 m 2
 675 251 l 2
 675 70 582 -17 391 -17 c 0
 219 -17 111 58 111 177 c 2
 111 543 l 2
 111 631 108 637 63 641 c 2
 26 644 l 1
 26 681 l 1
 146 678 147 678 181 678 c 0
 215 678 215 678 337 681 c 1
 337 644 l 1
 300 641 l 2
 255 637 252 631 252 543 c 2
 252 295 l 2
 252 193 261 146 287 114 c 0
 314 81 359 65 428 65 c 0
 494 65 541 79 569 108 c 0
 603 143 616 196 616 302 c 2
 616 543 l 2
 616 631 613 637 568 641 c 2
 531 644 l 1
 531 681 l 1
 619 678 635 678 646 678 c 2
 760 681 l 1
 760 644 l 1
 723 641 l 2
 678 637 675 631 675 543 c 2
358 905 m 1
 451 905 l 1
 574 730 l 1
 517 730 l 1
 405 828 l 1
 292 730 l 1
 237 730 l 1
 358 905 l 1
EndSplineSet
KernsSLIF: 65 -51 0 0
Ligature: 0 0 'liga' U uni0302
EndChar
StartChar: Uring
Encoding: 302 366 196
Width: 778
Flags: W
HStem: -17 82<391 428> 724 50<378.788 394> 874 50<387 395>
VStem: 111 141<177 592> 289 50<814 832> 439 50<824 832> 616 59<270 592>
Fore
675 543 m 2
 675 251 l 2
 675 70 582 -17 391 -17 c 0
 219 -17 111 58 111 177 c 2
 111 543 l 2
 111 631 108 637 63 641 c 2
 26 644 l 1
 26 681 l 1
 146 678 147 678 181 678 c 0
 215 678 215 678 337 681 c 1
 337 644 l 1
 300 641 l 2
 255 637 252 631 252 543 c 2
 252 295 l 2
 252 193 261 146 287 114 c 0
 314 81 359 65 428 65 c 0
 494 65 541 79 569 108 c 0
 603 143 616 196 616 302 c 2
 616 543 l 2
 616 631 613 637 568 641 c 2
 531 644 l 1
 531 681 l 1
 619 678 635 678 646 678 c 2
 760 681 l 1
 760 644 l 1
 723 641 l 2
 678 637 675 631 675 543 c 2
391 924 m 0
 444 924 489 878 489 824 c 0
 489 769 444 724 389 724 c 0
 334 724 289 769 289 825 c 0
 289 880 334 924 391 924 c 0
390 874 m 0
 361 874 339 852 339 824 c 0
 339 796 361 774 389 774 c 0
 417 774 439 796 439 824 c 0
 439 851 417 874 390 874 c 0
EndSplineSet
Ligature: 0 0 'liga' U uni030A
EndChar
StartChar: Uhungarumlaut
Encoding: 303 368 197
Width: 778
Flags: W
HStem: -17 82<391 428>
VStem: 111 141<177 592> 616 59<270 592>
Fore
675 543 m 2
 675 251 l 2
 675 70 582 -17 391 -17 c 0
 219 -17 111 58 111 177 c 2
 111 543 l 2
 111 631 108 637 63 641 c 2
 26 644 l 1
 26 681 l 1
 146 678 147 678 181 678 c 0
 215 678 215 678 337 681 c 1
 337 644 l 1
 300 641 l 2
 255 637 252 631 252 543 c 2
 252 295 l 2
 252 193 261 146 287 114 c 0
 314 81 359 65 428 65 c 0
 494 65 541 79 569 108 c 0
 603 143 616 196 616 302 c 2
 616 543 l 2
 616 631 613 637 568 641 c 2
 531 644 l 1
 531 681 l 1
 619 678 635 678 646 678 c 2
 760 681 l 1
 760 644 l 1
 723 641 l 2
 678 637 675 631 675 543 c 2
375 730 m 1
 503 878 l 2
 528 907 542 915 566 915 c 0
 594 915 613 896 613 868 c 0
 613 851 607 839 594 831 c 2
 429 730 l 1
 375 730 l 1
167 730 m 1
 295 878 l 2
 320 907 334 915 358 915 c 0
 386 915 405 896 405 869 c 0
 405 851 399 839 386 831 c 2
 221 730 l 1
 167 730 l 1
EndSplineSet
Ligature: 0 0 'liga' U uni030B
EndChar
StartChar: Yacute
Encoding: 304 221 198
Width: 667
Flags: W
HStem: 0 21G<343 377>
VStem: 290 141<135 274>
Fore
395 356 m 1
 583 678 l 1
 660 678 l 1
 660 659 l 1
 484 398 l 2
 466 371 450 341 431 298 c 1
 431 135 l 2
 431 46 432 44 479 40 c 2
 516 37 l 1
 516 -3 l 1
 395 0 394 0 360 0 c 0
 326 0 326 0 205 -3 c 1
 205 37 l 1
 242 40 l 2
 289 44 290 46 290 135 c 2
 290 274 l 1
 274 310 262 332 246 359 c 1
 145 522 l 1
 86 607 66 622 15 622 c 1
 15 659 l 1
 174 695 l 1
 220 668 247 635 288 559 c 1
 395 356 l 1
288 730 m 1
 417 878 l 2
 440 904 458 915 482 915 c 0
 508 915 526 898 526 871 c 0
 526 849 516 835 483 816 c 2
 475 811 l 1
 344 730 l 1
 288 730 l 1
EndSplineSet
Ligature: 0 0 'liga' Y acutecomb
EndChar
StartChar: Zacute
Encoding: 305 377 199
Width: 667
Flags: W
HStem: -3 60<215 474.752> -3 177<587 610.806> 0 57<215 328> 620 58<174.146 211.937 212 434>
DStem: 80 681 125 574 80 519 117 519 434 620 540 536 128 174 215 57
Fore
623 681 m 1x50
 623 646 l 1
 591 607 568 576 540 536 c 1
 215 57 l 1x90
 491 57 l 2x30
 542 57 567 69 572 96 c 2
 587 174 l 1
 627 174 l 1
 618 124 612 58 611 -3 c 1x50
 480 -1 419 0 327 0 c 0x30
 234 0 167 -1 24 -3 c 1
 24 35 l 1
 73 97 100 134 128 174 c 2
 434 620 l 1
 212 620 l 2
 141 620 131 615 125 574 c 2
 117 519 l 1
 80 519 l 1
 80 681 l 1
 352 678 l 2
 371 678 371 678 623 681 c 1x50
245 730 m 1
 374 878 l 2
 397 904 415 915 439 915 c 0
 465 915 483 898 483 871 c 0
 483 849 473 835 440 816 c 2
 432 811 l 1
 301 730 l 1
 245 730 l 1
EndSplineSet
Ligature: 0 0 'liga' Z acutecomb
EndChar
StartChar: Zcaron
Encoding: 306 381 200
Width: 667
Flags: W
HStem: -3 60<215 474.752> -3 177<587 610.806> 0 57<215 328> 620 58<174.146 211.937 212 434>
DStem: 80 681 125 574 80 519 117 519 434 620 540 536 128 174 215 57
Fore
623 681 m 1x50
 623 646 l 1
 591 607 568 576 540 536 c 1
 215 57 l 1x90
 491 57 l 2x30
 542 57 567 69 572 96 c 2
 587 174 l 1
 627 174 l 1
 618 124 612 58 611 -3 c 1x50
 480 -1 419 0 327 0 c 0x30
 234 0 167 -1 24 -3 c 1
 24 35 l 1
 73 97 100 134 128 174 c 2
 434 620 l 1
 212 620 l 2
 141 620 131 615 125 574 c 2
 117 519 l 1
 80 519 l 1
 80 681 l 1
 352 678 l 2
 371 678 371 678 623 681 c 1x50
390 734 m 1
 297 734 l 1
 176 909 l 1
 231 909 l 1
 344 811 l 1
 456 909 l 1
 513 909 l 1
 390 734 l 1
EndSplineSet
Ligature: 0 0 'liga' Z uni030C
EndChar
StartChar: Zdotaccent
Encoding: 307 379 201
Width: 667
Flags: W
HStem: -3 60<215 474.752> -3 177<587 610.806> 0 57<215 328> 620 58<174.146 211.937 212 434> 761 134<325 345>
VStem: 267 134<826 831>
DStem: 80 681 125 574 80 519 117 519 434 620 540 536 128 174 215 57
Fore
623 681 m 1x5c
 623 646 l 1
 591 607 568 576 540 536 c 1
 215 57 l 1x9c
 491 57 l 2x3c
 542 57 567 69 572 96 c 2
 587 174 l 1
 627 174 l 1
 618 124 612 58 611 -3 c 1x5c
 480 -1 419 0 327 0 c 0x3c
 234 0 167 -1 24 -3 c 1
 24 35 l 1
 73 97 100 134 128 174 c 2
 434 620 l 1
 212 620 l 2
 141 620 131 615 125 574 c 2
 117 519 l 1
 80 519 l 1
 80 681 l 1
 352 678 l 2
 371 678 371 678 623 681 c 1x5c
335 895 m 0
 371 895 401 864 401 828 c 0
 401 791 371 761 334 761 c 0
 297 761 267 791 267 829 c 0
 267 865 297 895 335 895 c 0
EndSplineSet
Ligature: 0 0 'liga' Z uni0307
EndChar
StartChar: Amacron
Encoding: 308 256 202
Width: 778
Flags: W
HStem: 0 21G<132.5 141.5 593 604.5> 206 56<242 469> 666 20G<348 419> 762 71<224 555>
DStem: 291 535 342 516 110 97 242 262 291 535 218 206 110 97 176 94
Fore
469 206 m 1
 218 206 l 1
 176 94 l 2
 173 86 171 76 171 69 c 0
 171 52 183 38 200 37 c 2
 250 34 l 1
 250 -3 l 1
 223 -2 202 -2 193 -1 c 0
 165 0 146 0 137 0 c 0
 128 0 109 0 81 -1 c 0
 73 -2 50 -2 24 -3 c 1
 24 34 l 1
 54 37 l 2
 76 39 93 58 110 97 c 1
 291 535 l 1
 296 546 306 572 320 611 c 1
 348 686 l 1
 419 686 l 1
 678 81 l 1
 691 52 705 41 733 37 c 2
 757 34 l 1
 757 -3 l 1
 610 0 610 0 599 0 c 0
 587 0 587 0 447 -3 c 1
 447 34 l 1
 500 37 l 2
 511 38 520 49 520 64 c 0
 520 72 518 82 514 92 c 2
 469 206 l 1
342 516 m 1
 242 262 l 1
 446 262 l 1
 342 516 l 1
555 762 m 1
 224 762 l 1
 224 833 l 1
 555 833 l 1
 555 762 l 1
EndSplineSet
Ligature: 0 0 'liga' A uni0304
EndChar
StartChar: Tcommaaccent
Encoding: 309 354 203
Width: 667
Flags: W
HStem: -20 20G<316 350> 619 59<334 500.045>
VStem: 263 141<135 619>
Fore
404 619 m 1
 404 135 l 2
 404 46 405 44 452 40 c 2
 489 37 l 1
 489 -3 l 1
 368 0 367 0 333 0 c 0
 299 0 299 0 178 -3 c 1
 178 37 l 1
 215 40 l 2
 262 44 263 46 263 135 c 2
 263 619 l 1
 146 619 l 2
 104 619 88 616 83 609 c 0
 80 604 75 592 75 586 c 1
 70 517 l 1
 30 517 l 1
 27 593 25 628 17 676 c 1
 23 681 l 1
 299 678 299 678 334 678 c 0
 368 678 368 678 644 681 c 1
 650 676 l 1
 642 628 639 593 637 517 c 1
 597 517 l 1
 592 586 l 1
 583 610 l 1
 574 617 563 619 521 619 c 2
 404 619 l 1
287 -277 m 1
 228 -301 l 1
 215 -287 l 1
 246 -217 271 -134 282 -70 c 1
 324 -65 366 -54 400 -40 c 1
 413 -52 l 1
 387 -111 338 -198 287 -277 c 1
EndSplineSet
Ligature: 0 0 'liga' T uni0327
EndChar
StartChar: Ydieresis
Encoding: 310 376 204
Width: 667
Flags: W
HStem: 0 21G<343 377> 761 134<243 257 462 481>
VStem: 187 134<816.364 831> 290 141<135 274> 402 134<826 831>
Fore
395 356 m 1xd0
 583 678 l 1
 660 678 l 1
 660 659 l 1
 484 398 l 2
 466 371 450 341 431 298 c 1
 431 135 l 2
 431 46 432 44 479 40 c 2
 516 37 l 1
 516 -3 l 1
 395 0 394 0 360 0 c 0
 326 0 326 0 205 -3 c 1
 205 37 l 1
 242 40 l 2
 289 44 290 46 290 135 c 2
 290 274 l 1
 274 310 262 332 246 359 c 1
 145 522 l 1
 86 607 66 622 15 622 c 1
 15 659 l 1
 174 695 l 1
 220 668 247 635 288 559 c 1
 395 356 l 1xd0
470 895 m 0
 506 895 536 864 536 828 c 0
 536 791 506 761 469 761 c 0
 432 761 402 791 402 829 c 0xc8
 402 865 432 895 470 895 c 0
255 895 m 0
 291 895 321 864 321 828 c 0
 321 791 291 761 254 761 c 0
 217 761 187 791 187 828 c 0xe0
 187 865 217 895 255 895 c 0
EndSplineSet
Ligature: 0 0 'liga' Y uni0308
EndChar
StartChar: Emacron
Encoding: 311 274 205
Width: 611
Flags: W
HStem: -4 59<305.305 424> 328 50<332 412> 624 56<357 440> 762 71<140 471>
VStem: 124 141<73 325 95 620>
DStem: 455 291 498 349 461 241 501 241
Fore
265 620 m 1
 265 380 l 1
 285 378 299 378 332 378 c 2
 398 378 l 2
 440 378 453 383 455 399 c 1
 461 456 l 1
 501 456 l 1
 498 361 498 360 498 349 c 1
 501 241 l 1
 461 241 l 1
 455 291 l 2
 452 317 436 328 398 328 c 2
 332 328 l 2
 310 328 293 327 265 325 c 1
 265 58 l 1
 316 56 355 55 396 55 c 0
 452 55 481 59 512 69 c 0
 514 70 515 71 515 72 c 1
 538 166 l 1
 577 166 l 1
 566 8 l 1
 561 0 l 1
 503 -3 472 -4 420 -4 c 0
 369 -4 329 -3 228 0 c 2
 194 0 l 2
 171 0 171 0 72 -3 c 1
 72 20 l 1
 104 38 l 2
 119 46 124 61 124 95 c 2
 124 543 l 2
 124 631 121 637 76 641 c 2
 39 644 l 1
 39 681 l 1
 149 679 192 678 227 678 c 0
 256 678 284 678 357 680 c 0
 412 681 442 682 465 682 c 0
 504 682 523 681 560 678 c 1
 566 671 l 1
 552 529 l 1
 516 529 l 1
 508 604 l 1
 507 615 464 624 410 624 c 0
 355 624 321 623 265 620 c 1
471 762 m 1
 140 762 l 1
 140 833 l 1
 471 833 l 1
 471 762 l 1
EndSplineSet
Ligature: 0 0 'liga' E uni0304
EndChar
StartChar: Imacron
Encoding: 312 298 206
Width: 389
Flags: W
HStem: 0 21G<177 211> 762 71<29 360>
VStem: 124 141<135 590>
Fore
265 543 m 2
 265 135 l 2
 265 46 266 44 313 40 c 2
 350 37 l 1
 350 -3 l 1
 229 0 228 0 194 0 c 0
 160 0 160 0 39 -3 c 1
 39 37 l 1
 76 40 l 2
 123 44 124 46 124 135 c 2
 124 543 l 2
 124 632 123 634 76 638 c 2
 39 641 l 1
 39 681 l 1
 159 678 160 678 194 678 c 0
 228 678 228 678 350 681 c 1
 350 641 l 1
 313 638 l 2
 266 634 265 632 265 543 c 2
360 762 m 1
 29 762 l 1
 29 833 l 1
 360 833 l 1
 360 762 l 1
EndSplineSet
Ligature: 0 0 'liga' I uni0304
EndChar
StartChar: Iogonek
Encoding: 313 302 207
Width: 389
Flags: W
HStem: -229 42<298 335> -20 20G<177.5 209>
VStem: 124 141<135 588> 195 76<-129 -113>
Fore
350 37 m 1xe0
 350 -3 l 1
 331 -3 326 -4 316 -13 c 0
 291 -35 271 -80 271 -115 c 0
 271 -159 296 -187 335 -187 c 0
 357 -187 373 -183 403 -172 c 1
 409 -198 l 1
 379 -219 342 -229 298 -229 c 0
 233 -229 195 -191 195 -127 c 0
 195 -83 213 -45 246 -21 c 0
 256 -14 262 -11 286 -1 c 1
 241 0 223 0 195 0 c 0xd0
 160 0 160 0 39 -3 c 1
 39 37 l 1
 76 40 l 2
 123 44 124 46 124 135 c 2
 124 543 l 2
 124 632 123 634 76 638 c 2
 39 641 l 1
 39 681 l 1
 159 678 160 678 194 678 c 0
 228 678 228 678 350 681 c 1
 350 641 l 1
 313 638 l 2
 266 634 265 632 265 543 c 2
 265 135 l 2
 265 46 266 44 313 40 c 2
 350 37 l 1xe0
EndSplineSet
Ligature: 0 0 'liga' I uni0328
EndChar
StartChar: Kcommaaccent
Encoding: 314 310 208
Width: 778
Flags: W
HStem: -20 20G<177 211>
VStem: 124 141<135 332 135 596> 556 182<646.028 678>
DStem: 352 246 406 401 560 -3 672 88 462 536 628 608 265 343 406 401
Fore
265 343 m 1
 462 536 l 2
 471 545 495 570 520 598 c 0
 525 603 529 608 530 610 c 0
 551 632 556 641 556 656 c 2
 556 681 l 1
 614 679 632 678 647 678 c 0
 662 678 680 679 738 681 c 1
 738 642 l 1
 675 637 652 630 628 608 c 2
 406 401 l 1
 672 88 l 2
 703 52 726 39 763 38 c 1
 763 -3 l 1
 746 -2 734 -2 729 -2 c 0
 678 0 669 0 662 0 c 2
 560 -3 l 1
 352 246 l 2
 295 313 291 317 265 332 c 1
 265 135 l 2
 265 46 266 44 313 40 c 2
 350 37 l 1
 350 -3 l 1
 229 0 228 0 194 0 c 0
 160 0 160 0 39 -3 c 1
 39 37 l 1
 76 40 l 2
 123 44 124 46 124 135 c 2
 124 543 l 2
 124 632 123 634 76 638 c 2
 39 641 l 1
 39 681 l 1
 159 678 160 678 194 678 c 0
 228 678 228 678 350 681 c 1
 350 641 l 1
 313 638 l 2
 266 634 265 632 265 543 c 2
 265 343 l 1
342 -277 m 1
 283 -301 l 1
 270 -287 l 1
 301 -217 326 -134 337 -70 c 1
 379 -65 421 -54 455 -40 c 1
 468 -52 l 1
 442 -111 393 -198 342 -277 c 1
EndSplineSet
Ligature: 0 0 'liga' K uni0327
EndChar
StartChar: Lcommaaccent
Encoding: 315 315 209
Width: 611
Flags: W
HStem: -4 59<305.626 424>
VStem: 124 141<73 596>
Fore
265 543 m 2
 265 58 l 1
 317 56 354 55 396 55 c 0
 458 55 513 63 515 72 c 2
 538 174 l 1
 577 174 l 1
 566 8 l 1
 561 0 l 1
 503 -3 472 -4 420 -4 c 0
 369 -4 329 -3 228 0 c 2
 194 0 l 2
 171 0 171 0 72 -3 c 1
 72 20 l 1
 104 38 l 2
 119 46 124 61 124 95 c 2
 124 543 l 2
 124 632 123 634 76 638 c 2
 39 641 l 1
 39 681 l 1
 159 678 160 678 194 678 c 0
 228 678 228 678 350 681 c 1
 350 641 l 1
 313 638 l 2
 266 634 265 632 265 543 c 2
259 -277 m 1
 200 -301 l 1
 187 -287 l 1
 218 -217 243 -134 254 -70 c 1
 296 -65 338 -54 372 -40 c 1
 385 -52 l 1
 359 -111 310 -198 259 -277 c 1
EndSplineSet
Ligature: 0 0 'liga' L uni0327
EndChar
StartChar: Ncommaaccent
Encoding: 316 325 210
Width: 833
Flags: W
HStem: -20 20G<140.5 160>
VStem: 120 59<135 528> 654 59<184 580>
DStem: 179 528 342 548 505 136 654 184
Fore
155 678 m 1
 239 681 l 1
 303 596 321 572 342 548 c 2
 654 184 l 1
 654 543 l 2
 654 631 651 637 606 641 c 2
 569 644 l 1
 569 681 l 1
 657 678 673 678 684 678 c 2
 798 681 l 1
 798 644 l 1
 761 641 l 2
 716 637 713 631 713 543 c 2
 713 89 l 2
 713 66 714 44 716 -12 c 1
 709 -16 l 1
 627 -3 l 1
 505 136 l 1
 179 528 l 1
 179 135 l 2
 179 46 182 41 227 37 c 2
 264 34 l 1
 264 -3 l 1
 216 -1 170 0 150 0 c 0
 131 0 131 0 35 -3 c 1
 35 34 l 1
 72 37 l 2
 117 41 120 47 120 135 c 2
 120 543 l 2
 120 631 117 637 72 641 c 2
 35 644 l 1
 35 681 l 1
 92 679 125 678 134 678 c 2
 155 678 l 1
370 -277 m 1
 311 -301 l 1
 298 -287 l 1
 329 -217 354 -134 365 -70 c 1
 407 -65 449 -54 483 -40 c 1
 496 -52 l 1
 470 -111 421 -198 370 -277 c 1
EndSplineSet
Ligature: 0 0 'liga' N uni0327
EndChar
StartChar: Omacron
Encoding: 317 332 211
Width: 833
Flags: W
HStem: -17 56<398 432> 639 56<398 432> 762 71<251 582>
VStem: 47 150<323 357> 637 150<318 357>
Fore
430 695 m 0
 656 695 787 566 787 346 c 0
 787 118 646 -17 407 -17 c 0
 178 -17 47 110 47 332 c 0
 47 561 188 695 430 695 c 0
421 639 m 0
 358 639 306 620 267 582 c 0
 222 537 197 457 197 355 c 0
 197 240 228 144 282 91 c 0
 318 55 359 39 414 39 c 0
 560 39 637 137 637 325 c 0
 637 438 606 534 551 588 c 0
 516 622 474 639 421 639 c 0
582 762 m 1
 251 762 l 1
 251 833 l 1
 582 833 l 1
 582 762 l 1
EndSplineSet
Ligature: 0 0 'liga' O uni0304
EndChar
StartChar: Rcommaaccent
Encoding: 318 342 212
Width: 722
Flags: W
HStem: -20 20G<177 211> 631 47<217 324>
VStem: 124 141<135 580> 464 142<503 534>
DStem: 297 344 457 356 521 -3 638 82
Fore
457 356 m 1
 638 82 l 1
 662 50 672 44 708 37 c 1
 708 -3 l 1
 671 -1 662 -1 611 0 c 1
 521 -3 l 1
 297 344 l 1
 304 362 l 1
 348 361 373 366 398 381 c 0
 439 405 464 450 464 503 c 0
 464 584 413 631 324 631 c 0
 298 631 279 628 265 622 c 1
 265 135 l 2
 265 46 266 44 313 40 c 2
 350 37 l 1
 350 -3 l 1
 229 0 228 0 194 0 c 0
 160 0 160 0 39 -3 c 1
 39 37 l 1
 76 40 l 2
 123 44 124 46 124 135 c 2
 124 543 l 2
 124 631 121 637 76 641 c 2
 39 644 l 1
 39 681 l 1
 189 678 189 678 217 678 c 0
 239 678 321 679 347 680 c 0
 381 681 405 681 416 681 c 0
 542 681 606 631 606 534 c 0
 606 492 592 455 563 424 c 1
 537 394 513 379 457 356 c 1
314 -277 m 1
 255 -301 l 1
 242 -287 l 1
 273 -217 298 -134 309 -70 c 1
 351 -65 393 -54 427 -40 c 1
 440 -52 l 1
 414 -111 365 -198 314 -277 c 1
EndSplineSet
Ligature: 0 0 'liga' R uni0327
EndChar
StartChar: Gcommaaccent
Encoding: 319 290 213
Width: 833
Flags: W
HStem: -17 56<438 480> 639 56<430 485>
VStem: 47 150<338 372> 593 142<63 206>
Fore
776 276 m 1
 776 242 l 1
 739 234 735 230 735 206 c 2
 735 43 l 1
 615 -2 539 -17 438 -17 c 0
 201 -17 47 126 47 346 c 0
 47 562 205 695 461 695 c 0
 559 695 631 682 722 648 c 1
 728 637 l 1
 719 599 716 580 705 484 c 1
 666 484 l 1
 661 570 l 1
 637 593 628 600 603 610 c 0
 560 629 507 639 456 639 c 0
 293 639 197 534 197 358 c 0
 197 168 305 39 466 39 c 0
 509 39 542 45 593 64 c 1
 593 196 l 2
 593 222 578 231 536 233 c 2
 483 235 l 1
 483 276 l 1
 564 274 603 273 626 273 c 0
 652 273 652 273 776 276 c 1
370 -277 m 1
 311 -301 l 1
 298 -287 l 1
 329 -217 354 -134 365 -70 c 1
 407 -65 449 -54 483 -40 c 1
 496 -52 l 1
 470 -111 421 -198 370 -277 c 1
EndSplineSet
Ligature: 0 0 'liga' G uni0327
EndChar
StartChar: Umacron
Encoding: 320 362 214
Width: 778
Flags: W
HStem: -17 82<391 428> 762 71<224 555>
VStem: 111 141<177 592> 616 59<270 592>
Fore
675 543 m 2
 675 251 l 2
 675 70 582 -17 391 -17 c 0
 219 -17 111 58 111 177 c 2
 111 543 l 2
 111 631 108 637 63 641 c 2
 26 644 l 1
 26 681 l 1
 146 678 147 678 181 678 c 0
 215 678 215 678 337 681 c 1
 337 644 l 1
 300 641 l 2
 255 637 252 631 252 543 c 2
 252 295 l 2
 252 193 261 146 287 114 c 0
 314 81 359 65 428 65 c 0
 494 65 541 79 569 108 c 0
 603 143 616 196 616 302 c 2
 616 543 l 2
 616 631 613 637 568 641 c 2
 531 644 l 1
 531 681 l 1
 619 678 635 678 646 678 c 2
 760 681 l 1
 760 644 l 1
 723 641 l 2
 678 637 675 631 675 543 c 2
555 762 m 1
 224 762 l 1
 224 833 l 1
 555 833 l 1
 555 762 l 1
EndSplineSet
Ligature: 0 0 'liga' U uni0304
EndChar
StartChar: Uogonek
Encoding: 321 370 215
Width: 778
Flags: W
HStem: -229 42<518 556> -17 82<391 428>
VStem: 111 141<177 588> 416 76<-129 -113> 616 59<266 588>
Fore
624 -172 m 1
 630 -198 l 1
 600 -219 563 -229 518 -229 c 0
 454 -229 416 -191 416 -127 c 0
 416 -69 443 -28 496 -6 c 1
 459 -14 429 -17 391 -17 c 0
 219 -17 111 58 111 177 c 2
 111 543 l 2
 111 631 108 637 63 641 c 2
 26 644 l 1
 26 681 l 1
 146 678 147 678 181 678 c 0
 215 678 215 678 337 681 c 1
 337 644 l 1
 300 641 l 2
 255 637 252 631 252 543 c 2
 252 295 l 2
 252 193 261 146 287 114 c 0
 314 81 359 65 428 65 c 0
 494 65 541 79 569 108 c 0
 603 143 616 196 616 302 c 2
 616 543 l 2
 616 631 613 637 568 641 c 2
 531 644 l 1
 531 681 l 1
 619 678 635 678 646 678 c 2
 760 681 l 1
 760 644 l 1
 723 641 l 2
 678 637 675 631 675 543 c 2
 675 251 l 2
 675 191 662 133 640 94 c 0
 624 65 624 65 566 18 c 0
 520 -20 492 -70 492 -115 c 0
 492 -159 517 -187 556 -187 c 0
 577 -187 593 -183 624 -172 c 1
EndSplineSet
Ligature: 0 0 'liga' U uni0328
EndChar
StartChar: adieresis
Encoding: 322 228 216
Width: 500
Flags: W
HStem: -17 87<157 213> 393 78<197 260> 537 134<135 153 355 360>
VStem: 40 122<107 133> 75 134<592.364 607> 299 121<114 119 115 233>
Fore
299 67 m 1xf4
 206 -5 l 2
 196 -13 179 -17 157 -17 c 0
 81 -17 40 26 40 107 c 0
 40 192 85 231 211 257 c 2
 299 275 l 1
 296 357 264 393 197 393 c 0
 170 393 142 386 139 379 c 2
 117 329 l 1
 87 336 l 1
 87 405 l 1
 140 437 l 2
 177 460 218 471 260 471 c 0
 361 471 421 418 421 329 c 0
 421 322 421 313 420 300 c 0
 419 262 418 230 418 203 c 0
 418 179 419 151 420 119 c 1
 420 98 l 1
 421 51 426 41 448 37 c 1
 478 34 l 1
 478 -3 l 1
 418 -1 402 0 390 0 c 0
 378 0 361 -1 299 -3 c 1
 294 5 l 1
 299 67 l 1xf4
299 115 m 1
 299 233 l 1
 254 221 l 2
 183 202 162 182 162 133 c 0
 162 94 181 70 213 70 c 0
 243 70 280 89 299 115 c 1
358 671 m 0
 394 671 424 640 424 604 c 0
 424 567 394 537 357 537 c 0
 320 537 290 567 290 605 c 0
 290 641 320 671 358 671 c 0
143 671 m 0
 179 671 209 640 209 604 c 0
 209 567 179 537 142 537 c 0
 105 537 75 567 75 604 c 0xec
 75 641 105 671 143 671 c 0
EndSplineSet
KernsSLIF: 121 -22 0 0 119 -19 0 0 118 -18 0 0
Ligature: 0 0 'liga' a uni0308
EndChar
StartChar: aacute
Encoding: 323 225 217
Width: 500
Flags: W
HStem: -17 87<157 213> 393 78<197 260> 671 20G<344 369>
VStem: 40 122<107 133> 299 121<114 119 115 233>
Fore
299 67 m 1
 206 -5 l 2
 196 -13 179 -17 157 -17 c 0
 81 -17 40 26 40 107 c 0
 40 192 85 231 211 257 c 2
 299 275 l 1
 296 357 264 393 197 393 c 0
 170 393 142 386 139 379 c 2
 117 329 l 1
 87 336 l 1
 87 405 l 1
 140 437 l 2
 177 460 218 471 260 471 c 0
 361 471 421 418 421 329 c 0
 421 322 421 313 420 300 c 0
 419 262 418 230 418 203 c 0
 418 179 419 151 420 119 c 1
 420 98 l 1
 421 51 426 41 448 37 c 1
 478 34 l 1
 478 -3 l 1
 418 -1 402 0 390 0 c 0
 378 0 361 -1 299 -3 c 1
 294 5 l 1
 299 67 l 1
299 115 m 1
 299 233 l 1
 254 221 l 2
 183 202 162 182 162 133 c 0
 162 94 181 70 213 70 c 0
 243 70 280 89 299 115 c 1
162 506 m 1
 291 654 l 2
 314 680 332 691 356 691 c 0
 382 691 400 674 400 647 c 0
 400 625 390 611 357 592 c 2
 349 587 l 1
 218 506 l 1
 162 506 l 1
EndSplineSet
KernsSLIF: 121 -22 0 0 119 -19 0 0 118 -18 0 0
Ligature: 0 0 'liga' a acutecomb
EndChar
StartChar: agrave
Encoding: 324 224 218
Width: 500
Flags: W
HStem: -17 87<157 213> 393 78<197 260> 671 20G<131.5 156.5>
VStem: 40 122<107 133> 299 121<114 119 115 233>
Fore
299 67 m 1
 206 -5 l 2
 196 -13 179 -17 157 -17 c 0
 81 -17 40 26 40 107 c 0
 40 192 85 231 211 257 c 2
 299 275 l 1
 296 357 264 393 197 393 c 0
 170 393 142 386 139 379 c 2
 117 329 l 1
 87 336 l 1
 87 405 l 1
 140 437 l 2
 177 460 218 471 260 471 c 0
 361 471 421 418 421 329 c 0
 421 322 421 313 420 300 c 0
 419 262 418 230 418 203 c 0
 418 179 419 151 420 119 c 1
 420 98 l 1
 421 51 426 41 448 37 c 1
 478 34 l 1
 478 -3 l 1
 418 -1 402 0 390 0 c 0
 378 0 361 -1 299 -3 c 1
 294 5 l 1
 299 67 l 1
299 115 m 1
 299 233 l 1
 254 221 l 2
 183 202 162 182 162 133 c 0
 162 94 181 70 213 70 c 0
 243 70 280 89 299 115 c 1
283 506 m 1
 152 587 l 2
 148 589 145 591 141 594 c 0
 111 611 101 625 101 647 c 0
 101 674 118 691 145 691 c 0
 168 691 187 680 210 654 c 2
 339 506 l 1
 283 506 l 1
EndSplineSet
KernsSLIF: 121 -22 0 0 119 -19 0 0 118 -18 0 0
Ligature: 0 0 'liga' a gravecomb
EndChar
StartChar: acircumflex
Encoding: 325 226 219
Width: 500
Flags: W
HStem: -17 87<157 213> 393 78<197 260> 661 20G<203 296>
VStem: 40 122<107 133> 299 121<114 119 115 233>
Fore
299 67 m 1
 206 -5 l 2
 196 -13 179 -17 157 -17 c 0
 81 -17 40 26 40 107 c 0
 40 192 85 231 211 257 c 2
 299 275 l 1
 296 357 264 393 197 393 c 0
 170 393 142 386 139 379 c 2
 117 329 l 1
 87 336 l 1
 87 405 l 1
 140 437 l 2
 177 460 218 471 260 471 c 0
 361 471 421 418 421 329 c 0
 421 322 421 313 420 300 c 0
 419 262 418 230 418 203 c 0
 418 179 419 151 420 119 c 1
 420 98 l 1
 421 51 426 41 448 37 c 1
 478 34 l 1
 478 -3 l 1
 418 -1 402 0 390 0 c 0
 378 0 361 -1 299 -3 c 1
 294 5 l 1
 299 67 l 1
299 115 m 1
 299 233 l 1
 254 221 l 2
 183 202 162 182 162 133 c 0
 162 94 181 70 213 70 c 0
 243 70 280 89 299 115 c 1
203 681 m 1
 296 681 l 1
 419 506 l 1
 362 506 l 1
 250 604 l 1
 137 506 l 1
 82 506 l 1
 203 681 l 1
EndSplineSet
Ligature: 0 0 'liga' a uni0302
EndChar
StartChar: abreve
Encoding: 326 259 220
Width: 500
Flags: W
HStem: -17 87<157 213> 393 78<197 260> 506 76<231 265>
VStem: 40 122<107 133> 299 121<114 119 115 233>
Fore
299 67 m 1
 206 -5 l 2
 196 -13 179 -17 157 -17 c 0
 81 -17 40 26 40 107 c 0
 40 192 85 231 211 257 c 2
 299 275 l 1
 296 357 264 393 197 393 c 0
 170 393 142 386 139 379 c 2
 117 329 l 1
 87 336 l 1
 87 405 l 1
 140 437 l 2
 177 460 218 471 260 471 c 0
 361 471 421 418 421 329 c 0
 421 322 421 313 420 300 c 0
 419 262 418 230 418 203 c 0
 418 179 419 151 420 119 c 1
 420 98 l 1
 421 51 426 41 448 37 c 1
 478 34 l 1
 478 -3 l 1
 418 -1 402 0 390 0 c 0
 378 0 361 -1 299 -3 c 1
 294 5 l 1
 299 67 l 1
299 115 m 1
 299 233 l 1
 254 221 l 2
 183 202 162 182 162 133 c 0
 162 94 181 70 213 70 c 0
 243 70 280 89 299 115 c 1
99 669 m 1
 143 669 l 1
 154 610 188 582 247 582 c 0
 285 582 314 594 334 618 c 0
 348 633 358 654 358 667 c 2
 358 669 l 1
 402 669 l 1
 398 621 392 597 376 570 c 0
 349 528 307 506 251 506 c 0
 190 506 143 532 118 580 c 0
 105 606 101 626 99 669 c 1
EndSplineSet
Ligature: 0 0 'liga' a uni0306
EndChar
StartChar: atilde
Encoding: 327 227 221
Width: 500
Flags: W
HStem: -17 87<157 213> 393 78<197 260> 535 78<315 339> 584 77<154 184>
VStem: 40 122<107 133> 299 121<114 119 115 233>
Fore
299 67 m 1xcc
 206 -5 l 2
 196 -13 179 -17 157 -17 c 0
 81 -17 40 26 40 107 c 0
 40 192 85 231 211 257 c 2
 299 275 l 1
 296 357 264 393 197 393 c 0
 170 393 142 386 139 379 c 2
 117 329 l 1
 87 336 l 1
 87 405 l 1
 140 437 l 2
 177 460 218 471 260 471 c 0
 361 471 421 418 421 329 c 0
 421 322 421 313 420 300 c 0
 419 262 418 230 418 203 c 0
 418 179 419 151 420 119 c 1
 420 98 l 1
 421 51 426 41 448 37 c 1
 478 34 l 1
 478 -3 l 1
 418 -1 402 0 390 0 c 0
 378 0 361 -1 299 -3 c 1
 294 5 l 1
 299 67 l 1xcc
299 115 m 1
 299 233 l 1
 254 221 l 2
 183 202 162 182 162 133 c 0
 162 94 181 70 213 70 c 0
 243 70 280 89 299 115 c 1
390 661 m 1xdc
 433 661 l 1xdc
 409 574 373 535 315 535 c 0xec
 292 535 271 541 231 560 c 0
 194 578 173 584 154 584 c 0
 134 584 118 568 108 536 c 1
 68 536 l 1
 76 610 124 661 184 661 c 0xdc
 207 661 226 655 264 637 c 0
 302 619 320 613 339 613 c 0xec
 363 613 372 622 390 661 c 1xdc
EndSplineSet
Ligature: 0 0 'liga' a tildecomb
EndChar
StartChar: aring
Encoding: 328 229 222
Width: 500
Flags: W
HStem: -17 87<157 213> 393 78<197 260> 500 50<254 265> 650 50<247 265>
VStem: 40 122<107 133> 154 50<590 608> 299 121<114 119 115 233> 304 50<600 608>
Fore
299 67 m 1xfa
 206 -5 l 2
 196 -13 179 -17 157 -17 c 0
 81 -17 40 26 40 107 c 0
 40 192 85 231 211 257 c 2
 299 275 l 1
 296 357 264 393 197 393 c 0
 170 393 142 386 139 379 c 2
 117 329 l 1
 87 336 l 1
 87 405 l 1
 140 437 l 2
 177 460 218 471 260 471 c 0
 361 471 421 418 421 329 c 0
 421 322 421 313 420 300 c 0
 419 262 418 230 418 203 c 0
 418 179 419 151 420 119 c 1
 420 98 l 1
 421 51 426 41 448 37 c 1
 478 34 l 1
 478 -3 l 1
 418 -1 402 0 390 0 c 0
 378 0 361 -1 299 -3 c 1
 294 5 l 1
 299 67 l 1xfa
299 115 m 1
 299 233 l 1
 254 221 l 2
 183 202 162 182 162 133 c 0
 162 94 181 70 213 70 c 0
 243 70 280 89 299 115 c 1
256 700 m 0
 309 700 354 654 354 600 c 0
 354 545 309 500 254 500 c 0
 199 500 154 545 154 601 c 0xf5
 154 656 199 700 256 700 c 0
255 650 m 0
 226 650 204 628 204 600 c 0
 204 572 226 550 254 550 c 0
 282 550 304 572 304 600 c 0
 304 627 282 650 255 650 c 0
EndSplineSet
KernsSLIF: 121 -22 0 0 119 -19 0 0 118 -18 0 0
Ligature: 0 0 'liga' a uni030A
EndChar
StartChar: aogonek
Encoding: 329 261 223
Width: 500
Flags: W
HStem: -229 42<433 470> -17 87<157 213> 393 78<197 260>
VStem: 40 122<107 133> 299 121<114 119 115 233> 330 76<-129 -113>
Fore
478 34 m 1xf8
 478 -3 l 1
 475 -2 473 -2 471 -2 c 0
 445 0 406 -69 406 -115 c 0
 406 -159 431 -187 470 -187 c 0
 492 -187 508 -183 538 -172 c 1
 544 -198 l 1
 514 -219 477 -229 433 -229 c 0
 368 -229 330 -191 330 -127 c 0xf4
 330 -83 348 -45 381 -21 c 0
 391 -14 398 -11 422 -1 c 1
 393 0 393 0 389 0 c 0
 379 0 379 0 299 -3 c 1
 294 5 l 1
 299 67 l 1
 206 -5 l 2
 196 -13 179 -17 157 -17 c 0
 81 -17 40 26 40 107 c 0
 40 192 85 231 211 257 c 2
 299 275 l 1
 296 357 264 393 197 393 c 0
 170 393 142 386 139 379 c 2
 117 329 l 1
 87 336 l 1
 87 405 l 1
 140 437 l 2
 177 460 218 471 260 471 c 0
 361 471 421 418 421 329 c 0
 421 322 421 313 420 300 c 0
 419 262 418 230 418 203 c 0
 418 179 419 151 420 119 c 1
 420 98 l 1
 421 51 426 41 448 37 c 1
 478 34 l 1xf8
299 115 m 1xf8
 299 233 l 1
 254 221 l 2
 183 202 162 182 162 133 c 0
 162 94 181 70 213 70 c 0
 243 70 280 89 299 115 c 1xf8
EndSplineSet
Ligature: 0 0 'liga' a uni0328
EndChar
StartChar: cacute
Encoding: 330 263 224
Width: 444
Flags: W
HStem: -17 71<259 320> 400 71<259 300> 671 20G<388 413>
VStem: 37 124<229 260>
Fore
390 297 m 1
 354 297 l 1
 347 357 l 1
 344 380 304 400 259 400 c 0
 195 400 161 351 161 260 c 0
 161 133 222 54 320 54 c 0
 349 54 371 59 405 73 c 1
 414 63 l 1
 393 17 l 1
 346 -8 309 -17 259 -17 c 0
 116 -17 37 70 37 229 c 0
 37 316 69 366 158 419 c 2
 210 450 l 2
 234 464 262 471 300 471 c 0
 336 471 357 467 403 451 c 1
 410 438 l 1
 401 394 396 361 390 297 c 1
206 506 m 1
 335 654 l 2
 358 680 376 691 400 691 c 0
 426 691 444 674 444 647 c 0
 444 625 434 611 401 592 c 2
 393 587 l 1
 262 506 l 1
 206 506 l 1
EndSplineSet
Ligature: 0 0 'liga' c acutecomb
EndChar
StartChar: ccaron
Encoding: 331 269 225
Width: 444
Flags: W
HStem: -17 71<259 320> 400 71<259 300> 665 20G<94 149 374 431>
VStem: 37 124<229 260>
Fore
390 297 m 1
 354 297 l 1
 347 357 l 1
 344 380 304 400 259 400 c 0
 195 400 161 351 161 260 c 0
 161 133 222 54 320 54 c 0
 349 54 371 59 405 73 c 1
 414 63 l 1
 393 17 l 1
 346 -8 309 -17 259 -17 c 0
 116 -17 37 70 37 229 c 0
 37 316 69 366 158 419 c 2
 210 450 l 2
 234 464 262 471 300 471 c 0
 336 471 357 467 403 451 c 1
 410 438 l 1
 401 394 396 361 390 297 c 1
308 510 m 1
 215 510 l 1
 94 685 l 1
 149 685 l 1
 262 587 l 1
 374 685 l 1
 431 685 l 1
 308 510 l 1
EndSplineSet
Ligature: 0 0 'liga' c uni030C
EndChar
StartChar: ccedilla
Encoding: 332 231 226
Width: 444
Flags: W
HStem: -225 46<208 227> -107 42<224 279> -17 71<258 320> 400 71<259 300>
VStem: 37 124<229 260> 262 94<-146 -136>
DStem: 218 -14 258 -17 178 -103 234 -71
Fore
258 -17 m 1
 234 -71 l 1
 253 -66 265 -65 279 -65 c 0
 326 -65 356 -93 356 -138 c 0
 356 -191 304 -225 223 -225 c 0
 194 -225 165 -219 129 -207 c 1
 145 -170 l 1
 179 -177 193 -179 212 -179 c 0
 245 -179 262 -166 262 -142 c 0
 262 -120 248 -107 224 -107 c 0
 216 -107 209 -108 188 -111 c 1
 178 -103 l 1
 218 -14 l 1
 99 2 37 86 37 229 c 0
 37 316 69 366 158 419 c 2
 210 450 l 2
 234 464 262 471 300 471 c 0
 336 471 357 467 403 451 c 1
 410 438 l 1
 401 394 396 361 390 297 c 1
 354 297 l 1
 347 357 l 1
 344 380 304 400 259 400 c 0
 195 400 161 351 161 260 c 0
 161 133 222 54 320 54 c 0
 349 54 371 59 405 73 c 1
 414 63 l 1
 393 17 l 1
 351 -6 308 -17 258 -17 c 1
EndSplineSet
Ligature: 0 0 'liga' c uni0327
EndChar
StartChar: dcaron
Encoding: 333 271 227
Width: 711
Flags: W
HStem: -17 95<233 284> 407 64<272 288>
VStem: 42 126<217 255> 386 122<148.658 344 446 714>
DStem: 500 720 500 720 428 698 508 714
Fore
508 714 m 1
 508 100 l 2
 508 46 513 38 544 36 c 2
 577 34 l 1
 577 -3 l 1
 556 -2 537 -2 530 -2 c 0
 502 -1 484 0 476 0 c 0
 465 0 446 -1 386 -3 c 1
 381 5 l 1
 386 80 l 1
 282 -5 l 2
 272 -13 256 -17 233 -17 c 0
 116 -17 42 74 42 217 c 0
 42 303 69 360 126 398 c 2
 198 445 l 2
 225 462 254 471 286 471 c 0
 311 471 338 465 366 454 c 2
 386 446 l 1
 386 568 l 2
 386 627 382 637 360 638 c 2
 307 641 l 1
 307 677 l 1
 365 683 399 689 428 698 c 2
 500 720 l 1
 508 714 l 1
386 160 m 2
 386 344 l 1
 353 387 317 407 274 407 c 0
 203 407 168 356 168 255 c 0
 168 147 213 78 284 78 c 0
 339 78 386 115 386 160 c 2
605 486 m 1
 546 462 l 1
 533 476 l 1
 564 546 589 629 600 693 c 1
 642 698 684 709 718 723 c 1
 731 711 l 1
 705 652 656 565 605 486 c 1
EndSplineSet
Ligature: 0 0 'liga' d uni030C
EndChar
StartChar: edieresis
Encoding: 334 235 228
Width: 500
Flags: W
HStem: -17 71<271 322> 223 50<217 303> 415 56<250 272> 537 134<135 145 355 363>
VStem: 75 134<592.364 607> 290 134<602 607> 334 127<276 297>
Fore
461 295 m 2xfa
 461 243 l 1
 405 229 360 223 303 223 c 2
 172 223 l 1
 174 176 180 153 196 125 c 0
 221 82 270 54 322 54 c 0
 362 54 392 63 439 89 c 1
 451 74 l 1
 429 26 l 1
 365 -7 328 -17 271 -17 c 0
 122 -17 42 67 42 226 c 0
 42 321 71 381 137 420 c 2
 184 448 l 2
 211 464 237 471 272 471 c 0
 386 471 461 402 461 295 c 2xfa
250 273 m 1
 334 276 l 1
 332 375 308 415 251 415 c 0
 193 415 169 375 166 276 c 1
 198 275 l 2
 213 274 240 273 246 273 c 2
 250 273 l 1
358 671 m 0
 394 671 424 640 424 604 c 0
 424 567 394 537 357 537 c 0
 320 537 290 567 290 605 c 0xfc
 290 641 320 671 358 671 c 0
143 671 m 0
 179 671 209 640 209 604 c 0
 209 567 179 537 142 537 c 0
 105 537 75 567 75 604 c 0
 75 641 105 671 143 671 c 0
EndSplineSet
Ligature: 0 0 'liga' e uni0308
EndChar
StartChar: eacute
Encoding: 335 233 229
Width: 500
Flags: W
HStem: -17 71<271 322> 223 50<217 303> 415 56<250 272> 671 20G<349 374>
VStem: 334 127<276 297>
Fore
461 295 m 2
 461 243 l 1
 405 229 360 223 303 223 c 2
 172 223 l 1
 174 176 180 153 196 125 c 0
 221 82 270 54 322 54 c 0
 362 54 392 63 439 89 c 1
 451 74 l 1
 429 26 l 1
 365 -7 328 -17 271 -17 c 0
 122 -17 42 67 42 226 c 0
 42 321 71 381 137 420 c 2
 184 448 l 2
 211 464 237 471 272 471 c 0
 386 471 461 402 461 295 c 2
250 273 m 1
 334 276 l 1
 332 375 308 415 251 415 c 0
 193 415 169 375 166 276 c 1
 198 275 l 2
 213 274 240 273 246 273 c 2
 250 273 l 1
167 506 m 1
 296 654 l 2
 319 680 337 691 361 691 c 0
 387 691 405 674 405 647 c 0
 405 625 395 611 362 592 c 2
 354 587 l 1
 223 506 l 1
 167 506 l 1
EndSplineSet
KernsSLIF: 121 -8 0 0 119 -5 0 0 118 -4 0 0
Ligature: 0 0 'liga' e acutecomb
EndChar
StartChar: egrave
Encoding: 336 232 230
Width: 500
Flags: W
HStem: -17 71<271 322> 223 50<216 303> 415 56<250 272> 671 20G<138.5 163.5>
VStem: 334 127<276 297>
Fore
461 295 m 2
 461 243 l 1
 405 229 360 223 303 223 c 2
 172 223 l 1
 174 176 180 153 196 125 c 0
 221 82 270 54 322 54 c 0
 362 54 392 63 439 89 c 1
 451 74 l 1
 429 26 l 1
 365 -7 328 -17 271 -17 c 0
 122 -17 42 67 42 226 c 0
 42 321 71 381 137 420 c 2
 184 448 l 2
 211 464 237 471 272 471 c 0
 386 471 461 402 461 295 c 2
250 273 m 1
 334 276 l 1
 332 375 308 415 251 415 c 0
 193 415 169 375 166 276 c 1
 198 275 l 2
 213 274 240 273 246 273 c 2
 250 273 l 1
290 506 m 1
 159 587 l 2
 155 589 152 591 148 594 c 0
 118 611 108 625 108 647 c 0
 108 674 125 691 152 691 c 0
 175 691 194 680 217 654 c 2
 346 506 l 1
 290 506 l 1
EndSplineSet
Ligature: 0 0 'liga' e gravecomb
EndChar
StartChar: ecircumflex
Encoding: 337 234 231
Width: 500
Flags: W
HStem: -17 71<271 322> 223 50<217 303> 415 56<250 272> 661 20G<210 303>
VStem: 334 127<276 297>
Fore
461 295 m 2
 461 243 l 1
 405 229 360 223 303 223 c 2
 172 223 l 1
 174 176 180 153 196 125 c 0
 221 82 270 54 322 54 c 0
 362 54 392 63 439 89 c 1
 451 74 l 1
 429 26 l 1
 365 -7 328 -17 271 -17 c 0
 122 -17 42 67 42 226 c 0
 42 321 71 381 137 420 c 2
 184 448 l 2
 211 464 237 471 272 471 c 0
 386 471 461 402 461 295 c 2
250 273 m 1
 334 276 l 1
 332 375 308 415 251 415 c 0
 193 415 169 375 166 276 c 1
 198 275 l 2
 213 274 240 273 246 273 c 2
 250 273 l 1
210 681 m 1
 303 681 l 1
 426 506 l 1
 369 506 l 1
 257 604 l 1
 144 506 l 1
 89 506 l 1
 210 681 l 1
EndSplineSet
KernsSLIF: 121 -8 0 0 119 -5 0 0 118 -4 0 0
Ligature: 0 0 'liga' e uni0302
EndChar
StartChar: ecaron
Encoding: 338 283 232
Width: 500
Flags: W
HStem: -17 71<271 322> 223 50<217 303> 415 56<250 272> 665 20G<82 137 362 419>
VStem: 334 127<276 297>
Fore
461 295 m 2
 461 243 l 1
 405 229 360 223 303 223 c 2
 172 223 l 1
 174 176 180 153 196 125 c 0
 221 82 270 54 322 54 c 0
 362 54 392 63 439 89 c 1
 451 74 l 1
 429 26 l 1
 365 -7 328 -17 271 -17 c 0
 122 -17 42 67 42 226 c 0
 42 321 71 381 137 420 c 2
 184 448 l 2
 211 464 237 471 272 471 c 0
 386 471 461 402 461 295 c 2
250 273 m 1
 334 276 l 1
 332 375 308 415 251 415 c 0
 193 415 169 375 166 276 c 1
 198 275 l 2
 213 274 240 273 246 273 c 2
 250 273 l 1
296 510 m 1
 203 510 l 1
 82 685 l 1
 137 685 l 1
 250 587 l 1
 362 685 l 1
 419 685 l 1
 296 510 l 1
EndSplineSet
Ligature: 0 0 'liga' e uni030C
EndChar
StartChar: edotaccent
Encoding: 339 279 233
Width: 500
Flags: W
HStem: -17 71<271 322> 223 50<217 303> 415 56<250 272> 537 134<244 253>
VStem: 183 134<602 607> 334 127<276 297>
Fore
461 295 m 2
 461 243 l 1
 405 229 360 223 303 223 c 2
 172 223 l 1
 174 176 180 153 196 125 c 0
 221 82 270 54 322 54 c 0
 362 54 392 63 439 89 c 1
 451 74 l 1
 429 26 l 1
 365 -7 328 -17 271 -17 c 0
 122 -17 42 67 42 226 c 0
 42 321 71 381 137 420 c 2
 184 448 l 2
 211 464 237 471 272 471 c 0
 386 471 461 402 461 295 c 2
250 273 m 1
 334 276 l 1
 332 375 308 415 251 415 c 0
 193 415 169 375 166 276 c 1
 198 275 l 2
 213 274 240 273 246 273 c 2
 250 273 l 1
251 671 m 0
 287 671 317 640 317 604 c 0
 317 567 287 537 250 537 c 0
 213 537 183 567 183 605 c 0
 183 641 213 671 251 671 c 0
EndSplineSet
Ligature: 0 0 'liga' e uni0307
EndChar
StartChar: eogonek
Encoding: 340 281 234
Width: 500
Flags: W
HStem: -229 42<369 406> -17 71<272 322> 223 50<217 303> 415 56<250 272>
VStem: 266 76<-128 -113> 334 127<276 300>
Fore
439 89 m 1xf4
 451 74 l 1
 429 26 l 1
 378 -8 342 -66 342 -115 c 0
 342 -159 367 -187 406 -187 c 0
 428 -187 444 -183 474 -172 c 1
 480 -198 l 1
 450 -219 413 -229 369 -229 c 0
 304 -229 266 -191 266 -126 c 0xf8
 266 -74 290 -33 334 -11 c 1
 311 -15 294 -17 272 -17 c 0
 122 -17 42 67 42 226 c 0
 42 321 71 381 137 420 c 2
 184 448 l 2
 211 464 237 471 272 471 c 0
 386 471 461 402 461 295 c 2
 461 243 l 1
 405 229 360 223 303 223 c 2
 172 223 l 1
 174 176 180 153 196 125 c 0
 221 82 270 54 322 54 c 0
 362 54 392 63 439 89 c 1xf4
250 273 m 1
 334 276 l 1xf4
 332 375 308 415 251 415 c 0
 193 415 169 375 166 276 c 1
 198 275 l 2
 213 274 240 273 246 273 c 2
 250 273 l 1
EndSplineSet
Ligature: 0 0 'liga' e uni0328
EndChar
StartChar: gbreve
Encoding: 341 287 235
Width: 556
Flags: W
HStem: -266 50<242 274> -15 93<217 272> 145 46<239 264> 421 50<238 266> 506 76<262 283>
VStem: 26 94<-126 -110> 47 123<290 311> 334 123<299 325> 424 111<-95 -42>
Fore
529 368 m 1xfa
 452 372 l 1
 456 353 457 341 457 325 c 0
 457 275 444 240 413 209 c 0
 372 168 308 145 239 145 c 0
 227 145 217 146 199 147 c 1
 179 135 170 123 170 108 c 0xfb
 170 88 186 78 217 78 c 0
 228 78 264 79 363 82 c 2
 387 82 l 2
 488 82 535 42 535 -42 c 0
 535 -175 417 -266 242 -266 c 0
 110 -266 26 -211 26 -124 c 0xfc80
 26 -97 37 -71 52 -62 c 2
 133 -14 l 1
 83 -1 65 17 65 53 c 0
 65 73 72 94 82 101 c 2
 153 155 l 1
 118 167 103 176 84 196 c 0
 60 222 47 255 47 292 c 0
 47 397 136 471 264 471 c 0
 328 471 375 458 416 428 c 1
 432 427 444 427 452 427 c 0
 474 427 493 428 534 432 c 1
 529 368 l 1xfa
252 421 m 0
 198 421 170 383 170 311 c 0
 170 236 202 191 254 191 c 0
 307 191 334 228 334 299 c 0
 334 378 305 421 252 421 c 0
272 -15 m 0
 223 -15 187 -19 171 -26 c 0
 141 -41 120 -75 120 -112 c 0
 120 -174 179 -216 268 -216 c 0
 357 -216 424 -164 424 -95 c 0xfc80
 424 -31 394 -15 272 -15 c 0
127 669 m 1
 171 669 l 1
 182 610 216 582 275 582 c 0
 313 582 342 594 362 618 c 0
 376 633 386 654 386 667 c 2
 386 669 l 1
 430 669 l 1
 426 621 420 597 404 570 c 0
 377 528 335 506 279 506 c 0
 218 506 171 532 146 580 c 0
 133 606 129 626 127 669 c 1
EndSplineSet
Ligature: 0 0 'liga' g uni0306
EndChar
StartChar: idieresis
Encoding: 342 239 236
Width: 333
Flags: W
HStem: 557 134<48 71 263 281>
VStem: -8 134<624 628> 105 122<100 350> 207 134<620 627>
DStem: 217 471 217 471 147 449 227 465
Fore
217 471 m 1xa0
 227 465 l 1
 227 100 l 2
 227 46 232 38 263 36 c 2
 298 34 l 1
 298 -3 l 1
 231 -1 183 0 163 0 c 2
 34 -3 l 1
 34 34 l 1
 69 36 l 2
 100 38 105 46 105 100 c 2
 105 319 l 2
 105 378 102 387 79 389 c 2
 34 392 l 1
 34 428 l 1
 41 429 46 430 49 430 c 0
 91 435 115 439 147 449 c 2
 217 471 l 1xa0
275 691 m 0
 311 691 341 660 341 624 c 0
 341 587 311 557 274 557 c 0
 237 557 207 587 207 625 c 0x90
 207 661 237 691 275 691 c 0
60 691 m 0
 96 691 126 660 126 624 c 0
 126 587 96 557 59 557 c 0
 22 557 -8 587 -8 624 c 0xc0
 -8 661 22 691 60 691 c 0
EndSplineSet
Ligature: 0 0 'liga' i uni0308
EndChar
StartChar: iacute
Encoding: 343 237 237
Width: 333
Flags: W
HStem: 671 20G<260 285>
VStem: 105 122<100 350>
DStem: 217 471 217 471 147 449 227 465
Fore
217 471 m 1
 227 465 l 1
 227 100 l 2
 227 46 232 38 263 36 c 2
 298 34 l 1
 298 -3 l 1
 231 -1 183 0 163 0 c 2
 34 -3 l 1
 34 34 l 1
 69 36 l 2
 100 38 105 46 105 100 c 2
 105 319 l 2
 105 378 102 387 79 389 c 2
 34 392 l 1
 34 428 l 1
 41 429 46 430 49 430 c 0
 91 435 115 439 147 449 c 2
 217 471 l 1
78 506 m 1
 207 654 l 2
 230 680 248 691 272 691 c 0
 298 691 316 674 316 647 c 0
 316 625 306 611 273 592 c 2
 265 587 l 1
 134 506 l 1
 78 506 l 1
EndSplineSet
Ligature: 0 0 'liga' i acutecomb
EndChar
StartChar: igrave
Encoding: 344 236 238
Width: 333
Flags: W
HStem: 671 20G<48.5 73.5>
VStem: 105 122<100 350>
DStem: 217 471 217 471 147 449 227 465
Fore
217 471 m 1
 227 465 l 1
 227 100 l 2
 227 46 232 38 263 36 c 2
 298 34 l 1
 298 -3 l 1
 231 -1 183 0 163 0 c 2
 34 -3 l 1
 34 34 l 1
 69 36 l 2
 100 38 105 46 105 100 c 2
 105 319 l 2
 105 378 102 387 79 389 c 2
 34 392 l 1
 34 428 l 1
 41 429 46 430 49 430 c 0
 91 435 115 439 147 449 c 2
 217 471 l 1
200 506 m 1
 69 587 l 2
 65 589 62 591 58 594 c 0
 28 611 18 625 18 647 c 0
 18 674 35 691 62 691 c 0
 85 691 104 680 127 654 c 2
 256 506 l 1
 200 506 l 1
EndSplineSet
Ligature: 0 0 'liga' i gravecomb
EndChar
StartChar: icircumflex
Encoding: 345 238 239
Width: 333
Flags: W
HStem: 661 20G<119 212>
VStem: 105 122<100 350>
DStem: 217 471 217 471 147 449 227 465
Fore
217 471 m 1
 227 465 l 1
 227 100 l 2
 227 46 232 38 263 36 c 2
 298 34 l 1
 298 -3 l 1
 231 -1 183 0 163 0 c 2
 34 -3 l 1
 34 34 l 1
 69 36 l 2
 100 38 105 46 105 100 c 2
 105 319 l 2
 105 378 102 387 79 389 c 2
 34 392 l 1
 34 428 l 1
 41 429 46 430 49 430 c 0
 91 435 115 439 147 449 c 2
 217 471 l 1
119 681 m 1
 212 681 l 1
 335 506 l 1
 278 506 l 1
 166 604 l 1
 53 506 l 1
 -2 506 l 1
 119 681 l 1
EndSplineSet
Ligature: 0 0 'liga' i uni0302
EndChar
StartChar: lacute
Encoding: 346 314 240
Width: 333
Flags: W
VStem: 103 122<100 590>
DStem: 217 720 217 720 145 698 225 714
Fore
217 720 m 1
 225 714 l 1
 225 100 l 2
 225 46 230 38 261 36 c 2
 296 34 l 1
 296 -3 l 1
 229 -1 181 0 161 0 c 2
 32 -3 l 1
 32 34 l 1
 67 36 l 2
 98 38 103 46 103 100 c 2
 103 568 l 2
 103 627 99 637 77 638 c 2
 24 641 l 1
 24 677 l 1
 82 683 116 689 145 698 c 2
 217 720 l 1
78 730 m 1
 207 878 l 2
 230 904 248 915 272 915 c 0
 298 915 316 898 316 871 c 0
 316 849 306 835 273 816 c 2
 265 811 l 1
 134 730 l 1
 78 730 l 1
EndSplineSet
Ligature: 0 0 'liga' l acutecomb
EndChar
StartChar: lcaron
Encoding: 347 318 241
Width: 433
Flags: W
VStem: 103 122<100 590>
DStem: 217 720 217 720 145 698 225 714
Fore
217 720 m 1
 225 714 l 1
 225 100 l 2
 225 46 230 38 261 36 c 2
 296 34 l 1
 296 -3 l 1
 229 -1 181 0 161 0 c 2
 32 -3 l 1
 32 34 l 1
 67 36 l 2
 98 38 103 46 103 100 c 2
 103 568 l 2
 103 627 99 637 77 638 c 2
 24 641 l 1
 24 677 l 1
 82 683 116 689 145 698 c 2
 217 720 l 1
327 486 m 1
 268 462 l 1
 255 476 l 1
 286 546 311 629 322 693 c 1
 364 698 406 709 440 723 c 1
 453 711 l 1
 427 652 378 565 327 486 c 1
EndSplineSet
Ligature: 0 0 'liga' l uni030C
EndChar
StartChar: nacute
Encoding: 348 324 242
Width: 611
Flags: W
HStem: 0 21G<478 493> 385 86<302 367> 671 20G<399 424>
VStem: 95 122<100 321> 396 122<-3 288>
Fore
24 392 m 1
 24 428 l 1
 79 431 107 437 211 471 c 1
 217 465 l 1
 217 390 l 1
 297 452 l 2
 313 465 337 471 367 471 c 0
 416 471 457 456 483 429 c 0
 509 401 518 363 518 286 c 2
 518 100 l 2
 518 46 523 38 554 36 c 2
 587 34 l 1
 587 -3 l 1
 500 0 500 0 486 0 c 0
 470 0 453 -1 396 -3 c 1
 396 270 l 2
 396 350 368 385 302 385 c 0
 258 385 217 352 217 317 c 2
 217 100 l 2
 217 46 222 38 253 36 c 2
 288 34 l 1
 288 -3 l 1
 221 -1 173 0 153 0 c 2
 24 -3 l 1
 24 34 l 1
 59 36 l 2
 90 38 95 46 95 100 c 2
 95 319 l 2
 95 378 92 387 69 389 c 2
 24 392 l 1
217 506 m 1
 346 654 l 2
 369 680 387 691 411 691 c 0
 437 691 455 674 455 647 c 0
 455 625 445 611 412 592 c 2
 404 587 l 1
 273 506 l 1
 217 506 l 1
EndSplineSet
Ligature: 0 0 'liga' n acutecomb
EndChar
StartChar: ncaron
Encoding: 349 328 243
Width: 611
Flags: W
HStem: 0 21G<478 493> 385 86<302 367> 665 20G<137 192 417 474>
VStem: 95 122<100 321> 396 122<-3 288>
Fore
24 392 m 1
 24 428 l 1
 79 431 107 437 211 471 c 1
 217 465 l 1
 217 390 l 1
 297 452 l 2
 313 465 337 471 367 471 c 0
 416 471 457 456 483 429 c 0
 509 401 518 363 518 286 c 2
 518 100 l 2
 518 46 523 38 554 36 c 2
 587 34 l 1
 587 -3 l 1
 500 0 500 0 486 0 c 0
 470 0 453 -1 396 -3 c 1
 396 270 l 2
 396 350 368 385 302 385 c 0
 258 385 217 352 217 317 c 2
 217 100 l 2
 217 46 222 38 253 36 c 2
 288 34 l 1
 288 -3 l 1
 221 -1 173 0 153 0 c 2
 24 -3 l 1
 24 34 l 1
 59 36 l 2
 90 38 95 46 95 100 c 2
 95 319 l 2
 95 378 92 387 69 389 c 2
 24 392 l 1
351 510 m 1
 258 510 l 1
 137 685 l 1
 192 685 l 1
 305 587 l 1
 417 685 l 1
 474 685 l 1
 351 510 l 1
EndSplineSet
Ligature: 0 0 'liga' n uni030C
EndChar
StartChar: ntilde
Encoding: 350 241 244
Width: 611
Flags: W
HStem: 0 21G<478 493> 385 86<302 367> 535 78<370 394> 584 77<209 239>
VStem: 95 122<100 321> 396 122<-3 288>
Fore
24 392 m 1xcc
 24 428 l 1
 79 431 107 437 211 471 c 1
 217 465 l 1
 217 390 l 1
 297 452 l 2
 313 465 337 471 367 471 c 0
 416 471 457 456 483 429 c 0
 509 401 518 363 518 286 c 2
 518 100 l 2
 518 46 523 38 554 36 c 2
 587 34 l 1
 587 -3 l 1
 500 0 500 0 486 0 c 0
 470 0 453 -1 396 -3 c 1
 396 270 l 2
 396 350 368 385 302 385 c 0
 258 385 217 352 217 317 c 2
 217 100 l 2
 217 46 222 38 253 36 c 2
 288 34 l 1
 288 -3 l 1
 221 -1 173 0 153 0 c 2
 24 -3 l 1
 24 34 l 1
 59 36 l 2
 90 38 95 46 95 100 c 2
 95 319 l 2
 95 378 92 387 69 389 c 2
 24 392 l 1xcc
445 661 m 1xdc
 488 661 l 1xdc
 464 574 428 535 370 535 c 0xec
 347 535 326 541 286 560 c 0
 249 578 228 584 209 584 c 0
 189 584 173 568 163 536 c 1
 123 536 l 1
 131 610 179 661 239 661 c 0xdc
 262 661 281 655 319 637 c 0
 357 619 375 613 394 613 c 0xec
 418 613 427 622 445 661 c 1xdc
EndSplineSet
Ligature: 0 0 'liga' n tildecomb
EndChar
StartChar: odieresis
Encoding: 351 246 245
Width: 556
Flags: W
HStem: -17 48<267 289> 423 48<263 289> 537 134<167 178 375 393>
VStem: 40 136<222 250> 103 134<592.364 607> 318 134<602 607> 381 136<205 240>
Fore
287 471 m 0xf2
 435 471 517 388 517 236 c 0
 517 74 427 -17 267 -17 c 0
 122 -17 40 70 40 224 c 0
 40 383 128 471 287 471 c 0xf2
275 423 m 0
 206 423 176 369 176 248 c 0
 176 104 213 31 285 31 c 0
 353 31 381 83 381 205 c 0
 381 352 347 423 275 423 c 0
386 671 m 0
 422 671 452 640 452 604 c 0
 452 567 422 537 385 537 c 0
 348 537 318 567 318 605 c 0xe4
 318 641 348 671 386 671 c 0
171 671 m 0
 207 671 237 640 237 604 c 0
 237 567 207 537 170 537 c 0
 133 537 103 567 103 604 c 0xe8
 103 641 133 671 171 671 c 0
EndSplineSet
KernsSLIF: 121 -22 0 0 120 -16 0 0 119 -19 0 0 118 -18 0 0 116 -2 0 0
Ligature: 0 0 'liga' o uni0308
EndChar
StartChar: oacute
Encoding: 352 243 246
Width: 556
Flags: W
HStem: -17 48<267 289> 423 48<263 289> 671 20G<372 397>
VStem: 40 136<222 250> 381 136<205 240>
Fore
287 471 m 0
 435 471 517 388 517 236 c 0
 517 74 427 -17 267 -17 c 0
 122 -17 40 70 40 224 c 0
 40 383 128 471 287 471 c 0
275 423 m 0
 206 423 176 369 176 248 c 0
 176 104 213 31 285 31 c 0
 353 31 381 83 381 205 c 0
 381 352 347 423 275 423 c 0
190 506 m 1
 319 654 l 2
 342 680 360 691 384 691 c 0
 410 691 428 674 428 647 c 0
 428 625 418 611 385 592 c 2
 377 587 l 1
 246 506 l 1
 190 506 l 1
EndSplineSet
KernsSLIF: 121 -22 0 0 119 -19 0 0 118 -18 0 0
Ligature: 0 0 'liga' o acutecomb
EndChar
StartChar: ograve
Encoding: 353 242 247
Width: 556
Flags: W
HStem: -17 48<267 289> 423 48<263 289> 671 20G<159.5 184.5>
VStem: 40 136<222 250> 381 136<205 240>
Fore
287 471 m 0
 435 471 517 388 517 236 c 0
 517 74 427 -17 267 -17 c 0
 122 -17 40 70 40 224 c 0
 40 383 128 471 287 471 c 0
275 423 m 0
 206 423 176 369 176 248 c 0
 176 104 213 31 285 31 c 0
 353 31 381 83 381 205 c 0
 381 352 347 423 275 423 c 0
311 506 m 1
 180 587 l 2
 176 589 173 591 169 594 c 0
 139 611 129 625 129 647 c 0
 129 674 146 691 173 691 c 0
 196 691 215 680 238 654 c 2
 367 506 l 1
 311 506 l 1
EndSplineSet
KernsSLIF: 121 -22 0 0 119 -19 0 0 118 -18 0 0
Ligature: 0 0 'liga' o gravecomb
EndChar
StartChar: ocircumflex
Encoding: 354 244 248
Width: 556
Flags: W
HStem: -17 48<267 289> 423 48<263 289> 661 20G<231 324>
VStem: 40 136<222 250> 381 136<205 240>
Fore
287 471 m 0
 435 471 517 388 517 236 c 0
 517 74 427 -17 267 -17 c 0
 122 -17 40 70 40 224 c 0
 40 383 128 471 287 471 c 0
275 423 m 0
 206 423 176 369 176 248 c 0
 176 104 213 31 285 31 c 0
 353 31 381 83 381 205 c 0
 381 352 347 423 275 423 c 0
231 681 m 1
 324 681 l 1
 447 506 l 1
 390 506 l 1
 278 604 l 1
 165 506 l 1
 110 506 l 1
 231 681 l 1
EndSplineSet
KernsSLIF: 116 -2 0 0
Ligature: 0 0 'liga' o uni0302
EndChar
StartChar: otilde
Encoding: 355 245 249
Width: 556
Flags: W
HStem: -17 48<267 294> 423 48<259 289> 535 78<343 367> 584 77<182 212>
VStem: 40 136<222 250> 381 136<205 240>
Fore
287 471 m 0xcc
 435 471 517 388 517 236 c 0
 517 74 427 -17 267 -17 c 0
 122 -17 40 70 40 224 c 0
 40 383 128 471 287 471 c 0xcc
275 423 m 0
 206 423 176 369 176 248 c 0
 176 104 213 31 285 31 c 0
 353 31 381 83 381 205 c 0
 381 352 347 423 275 423 c 0
418 661 m 1xdc
 461 661 l 1xdc
 437 574 401 535 343 535 c 0xec
 320 535 299 541 259 560 c 0
 222 578 201 584 182 584 c 0
 162 584 146 568 136 536 c 1
 96 536 l 1
 104 610 152 661 212 661 c 0xdc
 235 661 254 655 292 637 c 0
 330 619 348 613 367 613 c 0xec
 391 613 400 622 418 661 c 1xdc
EndSplineSet
Ligature: 0 0 'liga' o tildecomb
EndChar
StartChar: ohungarumlaut
Encoding: 356 337 250
Width: 556
Flags: W
HStem: -17 48<267 289> 423 48<263 289> 671 20G<289 315 497 523>
VStem: 40 136<222 250> 381 136<205 240>
Fore
287 471 m 0
 435 471 517 388 517 236 c 0
 517 74 427 -17 267 -17 c 0
 122 -17 40 70 40 224 c 0
 40 383 128 471 287 471 c 0
275 423 m 0
 206 423 176 369 176 248 c 0
 176 104 213 31 285 31 c 0
 353 31 381 83 381 205 c 0
 381 352 347 423 275 423 c 0
318 506 m 1
 446 654 l 2
 471 683 485 691 509 691 c 0
 537 691 556 672 556 644 c 0
 556 627 550 615 537 607 c 2
 372 506 l 1
 318 506 l 1
110 506 m 1
 238 654 l 2
 263 683 277 691 301 691 c 0
 329 691 348 672 348 645 c 0
 348 627 342 615 329 607 c 2
 164 506 l 1
 110 506 l 1
EndSplineSet
Ligature: 0 0 'liga' o uni030B
EndChar
StartChar: racute
Encoding: 357 341 251
Width: 389
Flags: W
HStem: 362 109<303 352> 671 20G<353 378>
VStem: 101 122<100 302>
DStem: 213 471 213 471 143 449 223 465
Fore
213 471 m 1
 223 465 l 1
 223 370 l 1
 267 418 l 2
 305 459 324 471 352 471 c 0
 366 471 379 469 389 465 c 1
 384 336 l 1
 360 326 l 1
 346 350 328 362 303 362 c 0
 264 362 223 329 223 298 c 2
 223 100 l 2
 223 44 228 38 271 36 c 2
 310 34 l 1
 310 -3 l 1
 175 0 172 0 159 0 c 2
 30 -3 l 1
 30 34 l 1
 65 36 l 2
 96 38 101 46 101 100 c 2
 101 319 l 2
 101 378 98 387 75 389 c 2
 30 392 l 1
 30 428 l 1
 93 436 111 439 143 449 c 2
 213 471 l 1
171 506 m 1
 300 654 l 2
 323 680 341 691 365 691 c 0
 391 691 409 674 409 647 c 0
 409 625 399 611 366 592 c 2
 358 587 l 1
 227 506 l 1
 171 506 l 1
EndSplineSet
Ligature: 0 0 'liga' r acutecomb
EndChar
StartChar: sacute
Encoding: 358 347 252
Width: 444
Flags: W
HStem: -17 48<182 216> 423 48<227 247> 671 20G<356 381>
VStem: 39 102<317 358> 294 111<108 155>
DStem: 46 152 85 152 39 11 90 83
Fore
362 326 m 1
 326 326 l 1
 316 384 l 1
 313 404 269 423 229 423 c 0
 175 423 141 398 141 358 c 0
 141 327 157 311 196 302 c 2
 278 284 l 2
 368 264 405 227 405 155 c 0
 405 52 320 -17 194 -17 c 0
 141 -17 96 -9 39 11 c 1
 46 152 l 1
 85 152 l 1
 90 83 l 1
 122 46 155 31 202 31 c 0
 258 31 294 61 294 108 c 0
 294 143 277 160 231 171 c 2
 145 192 l 2
 75 209 39 251 39 317 c 0
 39 417 112 471 247 471 c 0
 300 471 331 465 370 448 c 1
 362 326 l 1
174 506 m 1
 303 654 l 2
 326 680 344 691 368 691 c 0
 394 691 412 674 412 647 c 0
 412 625 402 611 369 592 c 2
 361 587 l 1
 230 506 l 1
 174 506 l 1
EndSplineSet
Ligature: 0 0 'liga' s acutecomb
EndChar
StartChar: scaron
Encoding: 359 353 253
Width: 444
Flags: W
HStem: -17 48<182 216> 423 48<220 247> 665 20G<54 109 334 391>
VStem: 39 102<317 358> 294 111<108 155>
DStem: 46 152 85 152 39 11 90 83
Fore
362 326 m 1
 326 326 l 1
 316 384 l 1
 313 404 269 423 229 423 c 0
 175 423 141 398 141 358 c 0
 141 327 157 311 196 302 c 2
 278 284 l 2
 368 264 405 227 405 155 c 0
 405 52 320 -17 194 -17 c 0
 141 -17 96 -9 39 11 c 1
 46 152 l 1
 85 152 l 1
 90 83 l 1
 122 46 155 31 202 31 c 0
 258 31 294 61 294 108 c 0
 294 143 277 160 231 171 c 2
 145 192 l 2
 75 209 39 251 39 317 c 0
 39 417 112 471 247 471 c 0
 300 471 331 465 370 448 c 1
 362 326 l 1
268 510 m 1
 175 510 l 1
 54 685 l 1
 109 685 l 1
 222 587 l 1
 334 685 l 1
 391 685 l 1
 268 510 l 1
EndSplineSet
Ligature: 0 0 'liga' s uni030C
EndChar
StartChar: scommaaccent
Encoding: 360 537 254
Width: 444
Flags: W
HStem: -17 48<182 216> 423 48<227 247>
VStem: 39 102<317 358> 294 111<108 155>
DStem: 46 152 85 152 39 11 90 83
Fore
362 326 m 1
 326 326 l 1
 316 384 l 1
 313 404 269 423 229 423 c 0
 175 423 141 398 141 358 c 0
 141 327 157 311 196 302 c 2
 278 284 l 2
 368 264 405 227 405 155 c 0
 405 52 320 -17 194 -17 c 0
 141 -17 96 -9 39 11 c 1
 46 152 l 1
 85 152 l 1
 90 83 l 1
 122 46 155 31 202 31 c 0
 258 31 294 61 294 108 c 0
 294 143 277 160 231 171 c 2
 145 192 l 2
 75 209 39 251 39 317 c 0
 39 417 112 471 247 471 c 0
 300 471 331 465 370 448 c 1
 362 326 l 1
175 -277 m 1
 116 -301 l 1
 103 -287 l 1
 134 -217 159 -134 170 -70 c 1
 212 -65 254 -54 288 -40 c 1
 301 -52 l 1
 275 -111 226 -198 175 -277 c 1
EndSplineSet
Ligature: 0 0 'liga' s uni0326
EndChar
StartChar: tcaron
Encoding: 361 357 255
Width: 402
Flags: W
HStem: -17 83<210 270>
VStem: 86 122<110 369 429 528>
Fore
324 60 m 1
 275 1 l 2
 266 -10 241 -17 210 -17 c 0
 123 -17 86 21 86 110 c 2
 86 369 l 1
 22 365 l 1
 22 387 l 1
 88 430 l 1
 88 490 l 2
 88 511 87 530 84 582 c 1
 135 601 166 613 206 632 c 1
 220 622 l 1
 211 572 208 539 208 486 c 2
 208 428 l 1
 322 434 l 1
 314 369 l 1
 208 369 l 1
 208 131 l 2
 208 82 223 66 270 66 c 0
 286 66 296 69 316 79 c 1
 324 60 l 1
296 458 m 1
 237 434 l 1
 224 448 l 1
 255 518 280 601 291 665 c 1
 333 670 375 681 409 695 c 1
 422 683 l 1
 396 624 347 537 296 458 c 1
EndSplineSet
Ligature: 0 0 'liga' t uni030C
EndChar
StartChar: udieresis
Encoding: 362 252 256
Width: 611
Flags: W
HStem: -17 90<246 296> 537 134<184 189 390 410>
VStem: 96 122<140 352> 119 134<592.364 607> 334 134<602 607> 392 122<158 465>
DStem: 208 471 208 471 138 449 218 465 504 471 504 471 434 449 514 465
Fore
392 80 m 1xe4
 316 6 l 2
 301 -9 275 -17 246 -17 c 0
 150 -17 96 39 96 140 c 2
 96 319 l 2
 96 378 93 387 70 389 c 2
 25 392 l 1
 25 428 l 1
 88 436 105 439 138 449 c 2
 208 471 l 1
 218 465 l 1
 218 204 l 2
 218 108 239 73 296 73 c 0
 349 73 392 114 392 163 c 2
 392 319 l 2
 392 378 389 387 366 389 c 2
 321 392 l 1
 321 428 l 1
 383 436 401 439 434 449 c 2
 504 471 l 1
 514 465 l 1
 514 100 l 2
 514 46 519 38 550 36 c 2
 583 34 l 1
 583 -3 l 1
 562 -2 543 -2 536 -2 c 0
 508 0 491 0 481 0 c 0
 470 0 470 0 387 -3 c 1
 392 80 l 1xe4
402 671 m 0
 438 671 468 640 468 604 c 0
 468 567 438 537 401 537 c 0
 364 537 334 567 334 605 c 0xc8
 334 641 364 671 402 671 c 0
187 671 m 0
 223 671 253 640 253 604 c 0
 253 567 223 537 186 537 c 0
 149 537 119 567 119 604 c 0xd0
 119 641 149 671 187 671 c 0
EndSplineSet
Ligature: 0 0 'liga' u uni0308
EndChar
